Orienta-Regular.otf.ufo
<glyph name="exclam" format="1">
  <advance width="333"/>
  <unicode hex="0021"/>
  <outline>
    <contour>
      <point x="100" y="53" type="curve" smooth="yes" name="hr00"/>
      <point x="100" y="6" smooth="yes"/>
      <point x="128" y="-15" smooth="yes"/>
      <point x="166" y="-15" type="curve" smooth="yes"/>
      <point x="205" y="-15" smooth="yes"/>
      <point x="233" y="6" smooth="yes"/>
      <point x="233" y="53" type="curve" smooth="yes"/>
      <point x="233" y="100" smooth="yes"/>
      <point x="205" y="121" smooth="yes"/>
      <point x="166" y="121" type="curve" smooth="yes"/>
      <point x="128" y="121" smooth="yes"/>
      <point x="100" y="100" smooth="yes"/>
    </contour>
    <contour>
      <point x="214" y="750" type="line"/>
      <point x="119" y="750" type="line"/>
      <point x="119" y="430" type="line"/>
      <point x="134" y="218" type="line"/>
      <point x="198" y="218" type="line"/>
      <point x="213" y="430" type="line"/>
    </contour>
  </outline>
</glyph>
<glyph name="quotedbl" format="1">
  <advance width="366"/>
  <unicode hex="0022"/>
  <outline>
    <contour>
      <point x="146" y="750" type="line" name="hr00"/>
      <point x="50" y="750" type="line"/>
      <point x="65" y="515" type="line"/>
      <point x="131" y="515" type="line"/>
    </contour>
    <contour>
      <point x="316" y="750" type="line"/>
      <point x="220" y="750" type="line"/>
      <point x="235" y="515" type="line"/>
      <point x="301" y="515" type="line"/>
    </contour>
  </outline>
</glyph>
<glyph name="numbersign" format="1">
  <advance width="638"/>
  <unicode hex="0023"/>
  <outline>
    <contour>
      <point x="70" y="390" type="line" name="hr00"/>
      <point x="171" y="390" type="line"/>
      <point x="146" y="270" type="line"/>
      <point x="47" y="270" type="line"/>
      <point x="30" y="190" type="line"/>
      <point x="130" y="190" type="line"/>
      <point x="88" y="-15" type="line"/>
      <point x="167" y="-15" type="line"/>
      <point x="209" y="190" type="line"/>
      <point x="370" y="190" type="line"/>
      <point x="328" y="-15" type="line"/>
      <point x="407" y="-15" type="line"/>
      <point x="449" y="190" type="line"/>
      <point x="549" y="190" type="line"/>
      <point x="566" y="270" type="line"/>
      <point x="466" y="270" type="line"/>
      <point x="491" y="390" type="line"/>
      <point x="591" y="390" type="line"/>
      <point x="608" y="470" type="line"/>
      <point x="507" y="470" type="line"/>
      <point x="550" y="675" type="line"/>
      <point x="469" y="675" type="line"/>
      <point x="427" y="470" type="line"/>
      <point x="267" y="470" type="line"/>
      <point x="310" y="675" type="line"/>
      <point x="229" y="675" type="line"/>
      <point x="187" y="470" type="line"/>
      <point x="87" y="470" type="line"/>
    </contour>
    <contour>
      <point x="251" y="390" type="line"/>
      <point x="411" y="390" type="line"/>
      <point x="386" y="270" type="line"/>
      <point x="226" y="270" type="line"/>
    </contour>
  </outline>
</glyph>
<glyph name="dollar" format="1">
  <advance width="566"/>
  <unicode hex="0024"/>
  <outline>
    <contour>
      <point x="416" y="157" type="curve" smooth="yes" name="hr00"/>
      <point x="416" y="103" smooth="yes"/>
      <point x="363" y="63" smooth="yes"/>
      <point x="289" y="63" type="curve" smooth="yes"/>
      <point x="210" y="63"/>
      <point x="157" y="108"/>
      <point x="133" y="202" type="curve"/>
      <point x="50" y="172" type="line"/>
      <point x="82" y="40" smooth="yes"/>
      <point x="160" y="-15" smooth="yes"/>
      <point x="278" y="-15" type="curve" smooth="yes"/>
      <point x="453" y="-15" smooth="yes"/>
      <point x="513" y="92" smooth="yes"/>
      <point x="513" y="171" type="curve" smooth="yes"/>
      <point x="513" y="380" smooth="yes"/>
      <point x="166" y="348" smooth="yes"/>
      <point x="166" y="501" type="curve" smooth="yes"/>
      <point x="166" y="561" smooth="yes"/>
      <point x="212" y="597" smooth="yes"/>
      <point x="280" y="597" type="curve" smooth="yes"/>
      <point x="353" y="597"/>
      <point x="405" y="558"/>
      <point x="427" y="493" type="curve"/>
      <point x="511" y="523" type="line"/>
      <point x="480" y="631" smooth="yes"/>
      <point x="405" y="675" smooth="yes"/>
      <point x="295" y="675" type="curve" smooth="yes"/>
      <point x="126" y="675" smooth="yes"/>
      <point x="70" y="572" smooth="yes"/>
      <point x="70" y="496" type="curve" smooth="yes"/>
      <point x="70" y="269" smooth="yes"/>
      <point x="416" y="308" smooth="yes"/>
    </contour>
    <component  base="bar" xOffset="48" yOffset="-21"/>
  </outline>
</glyph>
<glyph name="ampersand" format="1">
  <advance width="615"/>
  <unicode hex="0026"/>
  <outline>
    <contour>
      <point x="472" y="314" type="line"/>
      <point x="472" y="310"/>
      <point x="472" y="252"/>
      <point x="448" y="192" type="curve"/>
      <point x="397" y="237"/>
      <point x="343" y="289"/>
      <point x="300" y="343" type="curve"/>
      <point x="404" y="390" smooth="yes"/>
      <point x="491" y="444" smooth="yes"/>
      <point x="491" y="550" type="curve" smooth="yes"/>
      <point x="491" y="659" smooth="yes"/>
      <point x="403" y="715" smooth="yes"/>
      <point x="312" y="715" type="curve" smooth="yes"/>
      <point x="218" y="715" smooth="yes"/>
      <point x="121" y="651" smooth="yes"/>
      <point x="121" y="536" type="curve" smooth="yes"/>
      <point x="121" y="484"/>
      <point x="142" y="428"/>
      <point x="176" y="374" type="curve"/>
      <point x="102" y="337" smooth="yes"/>
      <point x="40" y="287" smooth="yes"/>
      <point x="40" y="179" type="curve" smooth="yes" name="hr01"/>
      <point x="40" y="76" smooth="yes"/>
      <point x="106" y="-15" smooth="yes"/>
      <point x="256" y="-15" type="curve" smooth="yes"/>
      <point x="348" y="-15"/>
      <point x="417" y="19"/>
      <point x="465" y="71" type="curve"/>
      <point x="527" y="22"/>
      <point x="573" y="-9"/>
      <point x="573" y="-9" type="curve"/>
      <point x="625" y="55" type="line"/>
      <point x="625" y="55"/>
      <point x="575" y="88"/>
      <point x="511" y="139" type="curve"/>
      <point x="537" y="192"/>
      <point x="550" y="253"/>
      <point x="550" y="314" type="curve"/>
    </contour>
    <contour>
      <point x="256" y="63" type="curve" smooth="yes"/>
      <point x="168" y="63" smooth="yes"/>
      <point x="130" y="118" smooth="yes"/>
      <point x="130" y="179" type="curve" smooth="yes"/>
      <point x="130" y="248"/>
      <point x="171" y="282"/>
      <point x="222" y="308" type="curve"/>
      <point x="275" y="239"/>
      <point x="343" y="175"/>
      <point x="404" y="122" type="curve"/>
      <point x="372" y="88" smooth="yes"/>
      <point x="325" y="63" smooth="yes"/>
    </contour>
    <contour>
      <point x="211" y="536" type="curve" smooth="yes" name="hr02"/>
      <point x="211" y="601" smooth="yes"/>
      <point x="262" y="637" smooth="yes"/>
      <point x="312" y="637" type="curve" smooth="yes"/>
      <point x="357" y="637" smooth="yes"/>
      <point x="401" y="605" smooth="yes"/>
      <point x="401" y="550" type="curve" smooth="yes"/>
      <point x="401" y="474"/>
      <point x="345" y="450"/>
      <point x="253" y="409" type="curve"/>
      <point x="227" y="453" smooth="yes"/>
      <point x="211" y="496" smooth="yes"/>
    </contour>
  </outline>
</glyph>
<glyph name="quotesingle" format="1">
  <advance width="196"/>
  <unicode hex="0027"/>
  <outline>
    <contour>
      <point x="146" y="750" type="line" name="hr00"/>
      <point x="50" y="750" type="line"/>
      <point x="65" y="515" type="line"/>
      <point x="131" y="515" type="line"/>
    </contour>
  </outline>
</glyph>
<glyph name="parenleft" format="1">
  <advance width="371"/>
  <unicode hex="0028"/>
  <outline>
    <contour>
      <point x="321" y="-106" type="line" name="hr00"/>
      <point x="189" y="-106" smooth="yes"/>
      <point x="90" y="36" smooth="yes"/>
      <point x="90" y="331" type="curve" smooth="yes"/>
      <point x="90" y="623"/>
      <point x="189" y="765"/>
      <point x="321" y="765" type="curve"/>
      <point x="321" y="677" type="line"/>
      <point x="244" y="677" smooth="yes"/>
      <point x="190" y="579" smooth="yes"/>
      <point x="190" y="331" type="curve" smooth="yes"/>
      <point x="190" y="81"/>
      <point x="244" y="-18"/>
      <point x="321" y="-18" type="curve"/>
    </contour>
  </outline>
</glyph>
<glyph name="asterisk" format="1">
  <advance width="517"/>
  <unicode hex="002A"/>
  <outline>
    <contour>
      <point x="304" y="750" type="line" name="hr00"/>
      <point x="214" y="750" type="line"/>
      <point x="227" y="599" type="line"/>
      <point x="290" y="599" type="line"/>
    </contour>
    <contour>
      <point x="79" y="654" type="line"/>
      <point x="50" y="568" type="line"/>
      <point x="201" y="533" type="line"/>
      <point x="219" y="593" type="line"/>
    </contour>
    <contour>
      <point x="102" y="408" type="line"/>
      <point x="175" y="355" type="line"/>
      <point x="254" y="487" type="line"/>
      <point x="204" y="522" type="line"/>
    </contour>
    <contour>
      <point x="343" y="355" type="line"/>
      <point x="415" y="408" type="line"/>
      <point x="315" y="523" type="line"/>
      <point x="263" y="487" type="line"/>
    </contour>
    <contour>
      <point x="467" y="568" type="line"/>
      <point x="439" y="654" type="line"/>
      <point x="298" y="593" type="line"/>
      <point x="317" y="533" type="line"/>
    </contour>
  </outline>
</glyph>
<glyph name="plus" format="1">
  <advance width="542"/>
  <unicode hex="002B"/>
  <outline>
    <contour>
      <point x="80" y="290" type="line" name="hr00"/>
      <point x="231" y="290" type="line"/>
      <point x="231" y="139" type="line"/>
      <point x="311" y="139" type="line"/>
      <point x="311" y="290" type="line"/>
      <point x="462" y="290" type="line"/>
      <point x="462" y="370" type="line"/>
      <point x="311" y="370" type="line"/>
      <point x="311" y="521" type="line"/>
      <point x="231" y="521" type="line"/>
      <point x="231" y="370" type="line"/>
      <point x="80" y="370" type="line"/>
    </contour>
  </outline>
</glyph>
<glyph name="comma" format="1">
  <advance width="233"/>
  <unicode hex="002C"/>
  <outline>
    <contour>
      <point x="82" y="-43" type="curve" smooth="yes" name="hr00"/>
      <point x="82" y="-75"/>
      <point x="65" y="-111"/>
      <point x="47" y="-138" type="curve"/>
      <point x="92" y="-168" type="line"/>
      <point x="138" y="-115" smooth="yes"/>
      <point x="183" y="-17" smooth="yes"/>
      <point x="183" y="53" type="curve" smooth="yes"/>
      <point x="183" y="100" smooth="yes"/>
      <point x="155" y="121" smooth="yes"/>
      <point x="116" y="121" type="curve" smooth="yes"/>
      <point x="78" y="121" smooth="yes"/>
      <point x="50" y="100" smooth="yes"/>
      <point x="50" y="53" type="curve" smooth="yes"/>
      <point x="50" y="8" smooth="yes"/>
      <point x="82" y="1" smooth="yes"/>
    </contour>
  </outline>
</glyph>
<glyph name="hyphen" format="1">
  <advance width="422"/>
  <unicode hex="002D"/>
  <outline>
    <contour>
      <point x="55" y="266" type="line" name="hr00"/>
      <point x="367" y="266" type="line"/>
      <point x="367" y="336" type="line"/>
      <point x="55" y="336" type="line"/>
    </contour>
  </outline>
</glyph>
<glyph name="period" format="1">
  <advance width="233"/>
  <unicode hex="002E"/>
  <outline>
    <contour>
      <point x="50" y="53" type="curve" smooth="yes" name="hr00"/>
      <point x="50" y="6" smooth="yes"/>
      <point x="78" y="-15" smooth="yes"/>
      <point x="116" y="-15" type="curve" smooth="yes"/>
      <point x="155" y="-15" smooth="yes"/>
      <point x="183" y="6" smooth="yes"/>
      <point x="183" y="53" type="curve" smooth="yes"/>
      <point x="183" y="100" smooth="yes"/>
      <point x="155" y="121" smooth="yes"/>
      <point x="116" y="121" type="curve" smooth="yes"/>
      <point x="78" y="121"/>
      <point x="50" y="100"/>
    </contour>
  </outline>
</glyph>
<glyph name="zero" format="1">
  <advance width="623"/>
  <unicode hex="0030"/>
  <outline>
    <contour>
      <point x="60" y="331" type="curve" smooth="yes" name="hr00"/>
      <point x="60" y="102" smooth="yes"/>
      <point x="166" y="-15" smooth="yes"/>
      <point x="311" y="-15" type="curve" smooth="yes"/>
      <point x="454" y="-15" smooth="yes"/>
      <point x="563" y="102" smooth="yes"/>
      <point x="563" y="331" type="curve" smooth="yes"/>
      <point x="563" y="558" smooth="yes"/>
      <point x="454" y="675" smooth="yes"/>
      <point x="311" y="675" type="curve" smooth="yes"/>
      <point x="166" y="675" smooth="yes"/>
      <point x="60" y="558" smooth="yes"/>
    </contour>
    <contour>
      <point x="157" y="331" type="curve" smooth="yes"/>
      <point x="157" y="511" smooth="yes"/>
      <point x="221" y="597" smooth="yes"/>
      <point x="311" y="597" type="curve" smooth="yes"/>
      <point x="402" y="597" smooth="yes"/>
      <point x="466" y="511" smooth="yes"/>
      <point x="466" y="331" type="curve" smooth="yes"/>
      <point x="466" y="149" smooth="yes"/>
      <point x="402" y="63" smooth="yes"/>
      <point x="311" y="63" type="curve" smooth="yes"/>
      <point x="221" y="63" smooth="yes"/>
      <point x="157" y="149" smooth="yes"/>
    </contour>
  </outline>
</glyph>
<glyph name="one" format="1">
  <advance width="481"/>
  <unicode hex="0031"/>
  <outline>
    <contour>
      <point x="235" y="660" type="line" name="hr00"/>
      <point x="217" y="605"/>
      <point x="140" y="548"/>
      <point x="70" y="527" type="curve"/>
      <point x="99" y="447" type="line"/>
      <point x="148" y="462"/>
      <point x="186" y="483"/>
      <point x="215" y="511" type="curve"/>
      <point x="215" y="78" type="line"/>
      <point x="105" y="78" type="line"/>
      <point x="105" y="0" type="line"/>
      <point x="421" y="0" type="line"/>
      <point x="421" y="78" type="line"/>
      <point x="311" y="78" type="line"/>
      <point x="311" y="660" type="line"/>
    </contour>
  </outline>
</glyph>
<glyph name="two" format="1">
  <advance width="570"/>
  <unicode hex="0032"/>
  <outline>
    <contour>
      <point x="498" y="0" type="line" name="hr00"/>
      <point x="498" y="78" type="line"/>
      <point x="178" y="78" type="line"/>
      <point x="233" y="213"/>
      <point x="492" y="307"/>
      <point x="492" y="501" type="curve"/>
      <point x="489" y="584" smooth="yes"/>
      <point x="439" y="675" smooth="yes"/>
      <point x="275" y="675" type="curve" smooth="yes"/>
      <point x="162" y="675"/>
      <point x="93" y="601"/>
      <point x="72" y="489" type="curve"/>
      <point x="159" y="468" type="line"/>
      <point x="176" y="562" smooth="yes"/>
      <point x="214" y="598" smooth="yes"/>
      <point x="285" y="598" type="curve" smooth="yes"/>
      <point x="349" y="598" smooth="yes"/>
      <point x="397" y="552" smooth="yes"/>
      <point x="397" y="493" type="curve" smooth="yes"/>
      <point x="397" y="331" smooth="yes"/>
      <point x="75" y="234" smooth="yes"/>
      <point x="75" y="40" type="curve" smooth="yes"/>
      <point x="75" y="0" type="line"/>
    </contour>
  </outline>
</glyph>
<glyph name="three" format="1">
  <advance width="553"/>
  <unicode hex="0033"/>
  <outline>
    <contour>
      <point x="467" y="501" type="curve" smooth="yes"/>
      <point x="467" y="584" smooth="yes"/>
      <point x="421" y="675" smooth="yes"/>
      <point x="257" y="675" type="curve" smooth="yes"/>
      <point x="155" y="675"/>
      <point x="80" y="605"/>
      <point x="57" y="499" type="curve"/>
      <point x="143" y="478" type="line"/>
      <point x="161" y="565" smooth="yes"/>
      <point x="204" y="598" smooth="yes"/>
      <point x="264" y="598" type="curve" smooth="yes"/>
      <point x="327" y="598" smooth="yes"/>
      <point x="372" y="554" smooth="yes"/>
      <point x="372" y="497" type="curve" smooth="yes"/>
      <point x="372" y="441" smooth="yes"/>
      <point x="337" y="361" smooth="yes"/>
      <point x="183" y="357" type="curve" smooth="yes"/>
      <point x="171" y="357" type="line"/>
      <point x="171" y="288" type="line"/>
      <point x="194" y="292" smooth="yes"/>
      <point x="216" y="294" smooth="yes"/>
      <point x="235" y="294" type="curve" smooth="yes"/>
      <point x="346" y="294" smooth="yes"/>
      <point x="388" y="236" smooth="yes"/>
      <point x="388" y="169" type="curve" smooth="yes" name="hr01"/>
      <point x="388" y="101" smooth="yes"/>
      <point x="338" y="63" smooth="yes"/>
      <point x="256" y="63" type="curve" smooth="yes"/>
      <point x="205" y="63"/>
      <point x="149" y="92"/>
      <point x="134" y="146" type="curve"/>
      <point x="51" y="118" type="line"/>
      <point x="80" y="23" smooth="yes"/>
      <point x="168" y="-15" smooth="yes"/>
      <point x="258" y="-15" type="curve" smooth="yes"/>
      <point x="414" y="-15" smooth="yes"/>
      <point x="488" y="82" smooth="yes"/>
      <point x="488" y="174" type="curve" smooth="yes"/>
      <point x="488" y="243"/>
      <point x="446" y="315"/>
      <point x="355" y="344" type="curve"/>
      <point x="423" y="381" smooth="yes"/>
      <point x="467" y="439" smooth="yes"/>
    </contour>
  </outline>
</glyph>
<glyph name="four" format="1">
  <advance width="530"/>
  <unicode hex="0034"/>
  <outline>
    <contour>
      <point x="10" y="185" type="line" name="hr00"/>
      <point x="10" y="141" type="line"/>
      <point x="322" y="141" type="line"/>
      <point x="322" y="0" type="line"/>
      <point x="418" y="0" type="line"/>
      <point x="418" y="141" type="line"/>
      <point x="500" y="141" type="line"/>
      <point x="500" y="219" type="line"/>
      <point x="418" y="219" type="line"/>
      <point x="418" y="660" type="line"/>
      <point x="283" y="660" type="line"/>
    </contour>
    <contour>
      <point x="119" y="219" type="line"/>
      <point x="322" y="572" type="line"/>
      <point x="322" y="219" type="line"/>
    </contour>
  </outline>
</glyph>
<glyph name="five" format="1">
  <advance width="553"/>
  <unicode hex="0035"/>
  <outline>
    <contour>
      <point x="102" y="660" type="line" name="hr00"/>
      <point x="95" y="337" type="line"/>
      <point x="125" y="307" type="line"/>
      <point x="167" y="318" smooth="yes"/>
      <point x="204" y="324" smooth="yes"/>
      <point x="235" y="324" type="curve" smooth="yes"/>
      <point x="346" y="324" smooth="yes"/>
      <point x="388" y="259" smooth="yes"/>
      <point x="388" y="183" type="curve" smooth="yes"/>
      <point x="388" y="106" smooth="yes"/>
      <point x="338" y="63" smooth="yes"/>
      <point x="256" y="63" type="curve" smooth="yes"/>
      <point x="205" y="63"/>
      <point x="149" y="92"/>
      <point x="134" y="146" type="curve"/>
      <point x="51" y="118" type="line"/>
      <point x="80" y="23" smooth="yes"/>
      <point x="168" y="-15" smooth="yes"/>
      <point x="258" y="-15" type="curve" smooth="yes"/>
      <point x="414" y="-15" smooth="yes"/>
      <point x="488" y="87" smooth="yes"/>
      <point x="488" y="188" type="curve" smooth="yes"/>
      <point x="488" y="294" smooth="yes"/>
      <point x="419" y="397" smooth="yes"/>
      <point x="262" y="397" type="curve" smooth="yes"/>
      <point x="237" y="397"/>
      <point x="210" y="394"/>
      <point x="181" y="388" type="curve"/>
      <point x="187" y="582" type="line"/>
      <point x="447" y="582" type="line"/>
      <point x="447" y="660" type="line"/>
    </contour>
  </outline>
</glyph>
<glyph name="six" format="1">
  <advance width="570"/>
  <unicode hex="0036"/>
  <outline>
    <contour>
      <point x="323" y="597" type="curve" smooth="yes" name="hr00"/>
      <point x="366" y="597"/>
      <point x="404" y="574"/>
      <point x="425" y="529" type="curve"/>
      <point x="506" y="570" type="line"/>
      <point x="471" y="646" smooth="yes"/>
      <point x="409" y="675" smooth="yes"/>
      <point x="324" y="675" type="curve" smooth="yes"/>
      <point x="174" y="675" smooth="yes"/>
      <point x="60" y="551" smooth="yes"/>
      <point x="60" y="310" type="curve" smooth="yes"/>
      <point x="60" y="95" smooth="yes"/>
      <point x="147" y="-15" smooth="yes"/>
      <point x="290" y="-15" type="curve" smooth="yes"/>
      <point x="442" y="-15" smooth="yes"/>
      <point x="521" y="101" smooth="yes"/>
      <point x="521" y="211" type="curve" smooth="yes"/>
      <point x="521" y="335" smooth="yes"/>
      <point x="419" y="404" smooth="yes"/>
      <point x="318" y="404" type="curve" smooth="yes"/>
      <point x="257" y="404"/>
      <point x="196" y="380"/>
      <point x="157" y="327" type="curve"/>
      <point x="160" y="511" smooth="yes"/>
      <point x="229" y="597" smooth="yes"/>
    </contour>
    <contour>
      <point x="172" y="197" type="curve" smooth="yes"/>
      <point x="172" y="272" smooth="yes"/>
      <point x="229" y="332" smooth="yes"/>
      <point x="300" y="332" type="curve" smooth="yes"/>
      <point x="371" y="332" smooth="yes"/>
      <point x="429" y="272" smooth="yes"/>
      <point x="429" y="197" type="curve" smooth="yes"/>
      <point x="429" y="122" smooth="yes"/>
      <point x="371" y="63" smooth="yes"/>
      <point x="300" y="63" type="curve" smooth="yes"/>
      <point x="229" y="63" smooth="yes"/>
      <point x="172" y="122" smooth="yes"/>
    </contour>
  </outline>
</glyph>
<glyph name="seven" format="1">
  <advance width="450"/>
  <unicode hex="0037"/>
  <outline>
    <contour>
      <point x="440" y="660" type="line" name="hr00"/>
      <point x="10" y="660" type="line"/>
      <point x="10" y="582" type="line"/>
      <point x="332" y="582" type="line"/>
      <point x="77" y="0" type="line"/>
      <point x="172" y="0" type="line"/>
      <point x="440" y="616" type="line"/>
    </contour>
  </outline>
</glyph>
<glyph name="eight" format="1">
  <advance width="594"/>
  <unicode hex="0038"/>
  <outline>
    <contour>
      <point x="88" y="491" type="curve" smooth="yes"/>
      <point x="88" y="452"/>
      <point x="105" y="387"/>
      <point x="168" y="347" type="curve"/>
      <point x="87" y="302" smooth="yes"/>
      <point x="73" y="232" smooth="yes"/>
      <point x="73" y="182" type="curve" smooth="yes" name="hr01"/>
      <point x="73" y="42" smooth="yes"/>
      <point x="181" y="-15" smooth="yes"/>
      <point x="297" y="-15" type="curve" smooth="yes"/>
      <point x="413" y="-15" smooth="yes"/>
      <point x="521" y="42" smooth="yes"/>
      <point x="521" y="182" type="curve" smooth="yes"/>
      <point x="521" y="233"/>
      <point x="507" y="300"/>
      <point x="426" y="345" type="curve"/>
      <point x="488" y="385" smooth="yes"/>
      <point x="506" y="452" smooth="yes"/>
      <point x="506" y="490" type="curve" smooth="yes" name="hr02"/>
      <point x="506" y="624" smooth="yes"/>
      <point x="401" y="675" smooth="yes"/>
      <point x="297" y="675" type="curve" smooth="yes"/>
      <point x="192" y="675" smooth="yes"/>
      <point x="88" y="624" smooth="yes"/>
    </contour>
    <contour>
      <point x="172" y="182" type="curve"/>
      <point x="172" y="252" smooth="yes"/>
      <point x="226" y="307" smooth="yes"/>
      <point x="296" y="307" type="curve" smooth="yes"/>
      <point x="366" y="307" smooth="yes"/>
      <point x="421" y="252" smooth="yes"/>
      <point x="421" y="182" type="curve" smooth="yes"/>
      <point x="421" y="112" smooth="yes"/>
      <point x="366" y="58" smooth="yes"/>
      <point x="296" y="58" type="curve" smooth="yes"/>
      <point x="226" y="58" smooth="yes"/>
      <point x="172" y="112" smooth="yes"/>
    </contour>
    <contour>
      <point x="182" y="493" type="curve" smooth="yes"/>
      <point x="182" y="557" smooth="yes"/>
      <point x="232" y="608" smooth="yes"/>
      <point x="296" y="608" type="curve" smooth="yes"/>
      <point x="360" y="608" smooth="yes"/>
      <point x="411" y="557" smooth="yes"/>
      <point x="411" y="493" type="curve" smooth="yes"/>
      <point x="411" y="429" smooth="yes"/>
      <point x="360" y="379" smooth="yes"/>
      <point x="296" y="379" type="curve" smooth="yes"/>
      <point x="232" y="379" smooth="yes"/>
      <point x="182" y="429" smooth="yes"/>
    </contour>
  </outline>
</glyph>
<glyph name="nine" format="1">
  <advance width="570"/>
  <unicode hex="0039"/>
  <outline>
    <contour>
      <point x="258" y="63" type="curve" smooth="yes" name="hr00"/>
      <point x="215" y="63"/>
      <point x="172" y="86"/>
      <point x="151" y="131" type="curve"/>
      <point x="70" y="90" type="line"/>
      <point x="105" y="14" smooth="yes"/>
      <point x="172" y="-15" smooth="yes"/>
      <point x="257" y="-15" type="curve" smooth="yes"/>
      <point x="407" y="-15" smooth="yes"/>
      <point x="521" y="109" smooth="yes"/>
      <point x="521" y="350" type="curve" smooth="yes"/>
      <point x="521" y="565" smooth="yes"/>
      <point x="434" y="675" smooth="yes"/>
      <point x="291" y="675" type="curve" smooth="yes"/>
      <point x="139" y="675" smooth="yes"/>
      <point x="63" y="559" smooth="yes"/>
      <point x="63" y="449" type="curve" smooth="yes"/>
      <point x="63" y="352" smooth="yes"/>
      <point x="126" y="248" smooth="yes"/>
      <point x="260" y="248" type="curve" smooth="yes"/>
      <point x="330" y="248"/>
      <point x="389" y="271"/>
      <point x="427" y="324" type="curve"/>
      <point x="421" y="146" smooth="yes"/>
      <point x="350" y="63" smooth="yes"/>
    </contour>
    <contour>
      <point x="156" y="458" type="curve" smooth="yes"/>
      <point x="156" y="535" smooth="yes"/>
      <point x="213" y="597" smooth="yes"/>
      <point x="285" y="597" type="curve" smooth="yes"/>
      <point x="357" y="597" smooth="yes"/>
      <point x="415" y="535" smooth="yes"/>
      <point x="415" y="458" type="curve" smooth="yes"/>
      <point x="415" y="381" smooth="yes"/>
      <point x="357" y="320" smooth="yes"/>
      <point x="285" y="320" type="curve" smooth="yes"/>
      <point x="213" y="320" smooth="yes"/>
      <point x="156" y="381" smooth="yes"/>
    </contour>
  </outline>
</glyph>
<glyph name="less" format="1">
  <advance width="542"/>
  <unicode hex="003C"/>
  <outline>
    <contour>
      <point x="80" y="291" type="line" name="hr00"/>
      <point x="462" y="130" type="line"/>
      <point x="462" y="210" type="line"/>
      <point x="173" y="330" type="line"/>
      <point x="462" y="450" type="line"/>
      <point x="462" y="530" type="line"/>
      <point x="80" y="369" type="line"/>
    </contour>
  </outline>
</glyph>
<glyph name="equal" format="1">
  <advance width="542"/>
  <unicode hex="003D"/>
  <outline>
    <contour>
      <point x="80" y="390" type="line" name="hr00"/>
      <point x="462" y="390" type="line"/>
      <point x="462" y="470" type="line"/>
      <point x="80" y="470" type="line"/>
    </contour>
    <contour>
      <point x="80" y="190" type="line"/>
      <point x="462" y="190" type="line"/>
      <point x="462" y="270" type="line"/>
      <point x="80" y="270" type="line"/>
    </contour>
  </outline>
</glyph>
<glyph name="greater" format="1">
  <advance width="542"/>
  <unicode hex="003E"/>
  <outline>
    <contour>
      <point x="462" y="291" type="line" name="hr00"/>
      <point x="80" y="130" type="line"/>
      <point x="80" y="210" type="line"/>
      <point x="368" y="330" type="line"/>
      <point x="80" y="450" type="line"/>
      <point x="80" y="530" type="line"/>
      <point x="462" y="369" type="line"/>
    </contour>
  </outline>
</glyph>
<glyph name="question" format="1">
  <advance width="490"/>
  <unicode hex="003F"/>
  <outline>
    <contour>
      <point x="157" y="53" type="curve" smooth="yes" name="hr00"/>
      <point x="157" y="6" smooth="yes"/>
      <point x="185" y="-15" smooth="yes"/>
      <point x="223" y="-15" type="curve" smooth="yes"/>
      <point x="262" y="-15" smooth="yes"/>
      <point x="290" y="6" smooth="yes"/>
      <point x="290" y="53" type="curve" smooth="yes"/>
      <point x="290" y="100" smooth="yes"/>
      <point x="262" y="121" smooth="yes"/>
      <point x="223" y="121" type="curve" smooth="yes"/>
      <point x="185" y="121" smooth="yes"/>
      <point x="157" y="100" smooth="yes"/>
    </contour>
    <contour>
      <point x="430" y="591" type="curve" smooth="yes"/>
      <point x="430" y="674" smooth="yes"/>
      <point x="383" y="765" smooth="yes"/>
      <point x="238" y="765" type="curve" smooth="yes"/>
      <point x="128" y="765"/>
      <point x="60" y="691"/>
      <point x="40" y="594" type="curve"/>
      <point x="127" y="573" type="line"/>
      <point x="142" y="652" smooth="yes"/>
      <point x="175" y="688" smooth="yes"/>
      <point x="237" y="688" type="curve" smooth="yes"/>
      <point x="293" y="688" smooth="yes"/>
      <point x="335" y="642" smooth="yes"/>
      <point x="335" y="583" type="curve" smooth="yes"/>
      <point x="335" y="462" smooth="yes"/>
      <point x="190" y="414" smooth="yes"/>
      <point x="190" y="242" type="curve" smooth="yes"/>
      <point x="190" y="234"/>
      <point x="190" y="226"/>
      <point x="191" y="218" type="curve"/>
      <point x="255" y="218" type="line"/>
      <point x="255" y="351" smooth="yes"/>
      <point x="430" y="423" smooth="yes"/>
    </contour>
  </outline>
</glyph>
<glyph name="at" format="1">
  <advance width="1077"/>
  <unicode hex="0040"/>
  <outline>
    <contour>
      <point x="766" y="-15" type="curve" smooth="yes" name="hr00"/>
      <point x="706" y="-15" smooth="yes"/>
      <point x="687" y="52" smooth="yes"/>
      <point x="687" y="141" type="curve" smooth="yes"/>
      <point x="687" y="257"/>
      <point x="720" y="410"/>
      <point x="742" y="495" type="curve"/>
      <point x="693" y="505" type="line"/>
      <point x="683" y="491"/>
      <point x="673" y="476"/>
      <point x="664" y="461" type="curve"/>
      <point x="634" y="487" smooth="yes"/>
      <point x="592" y="505" smooth="yes"/>
      <point x="546" y="505" type="curve" smooth="yes"/>
      <point x="426" y="505" smooth="yes"/>
      <point x="323" y="404" smooth="yes"/>
      <point x="323" y="208" type="curve" smooth="yes"/>
      <point x="323" y="88" smooth="yes"/>
      <point x="377" y="27" smooth="yes"/>
      <point x="467" y="27" type="curve" smooth="yes"/>
      <point x="529" y="27"/>
      <point x="575" y="59"/>
      <point x="612" y="125" type="curve"/>
      <point x="612" y="-5" smooth="yes"/>
      <point x="661" y="-85" smooth="yes"/>
      <point x="756" y="-85" type="curve" smooth="yes"/>
      <point x="885" y="-85" smooth="yes"/>
      <point x="997" y="70" smooth="yes"/>
      <point x="997" y="273" type="curve" smooth="yes"/>
      <point x="997" y="576" smooth="yes"/>
      <point x="792" y="731" smooth="yes"/>
      <point x="539" y="731" type="curve" smooth="yes"/>
      <point x="286" y="731" smooth="yes"/>
      <point x="80" y="576" smooth="yes"/>
      <point x="80" y="273" type="curve" smooth="yes"/>
      <point x="80" y="-30" smooth="yes"/>
      <point x="286" y="-186" smooth="yes"/>
      <point x="539" y="-186" type="curve" smooth="yes"/>
      <point x="561" y="-186"/>
      <point x="581" y="-185"/>
      <point x="602" y="-183" type="curve"/>
      <point x="596" y="-106" type="line"/>
      <point x="578" y="-108" smooth="yes"/>
      <point x="558" y="-109" smooth="yes"/>
      <point x="539" y="-109" type="curve" smooth="yes"/>
      <point x="334" y="-109" smooth="yes"/>
      <point x="167" y="27" smooth="yes"/>
      <point x="167" y="273" type="curve" smooth="yes"/>
      <point x="167" y="519" smooth="yes"/>
      <point x="334" y="654" smooth="yes"/>
      <point x="539" y="654" type="curve" smooth="yes"/>
      <point x="744" y="654" smooth="yes"/>
      <point x="910" y="519" smooth="yes"/>
      <point x="910" y="273" type="curve" smooth="yes"/>
      <point x="910" y="133" smooth="yes"/>
      <point x="841" y="-15" smooth="yes"/>
    </contour>
    <contour>
      <point x="488" y="98" type="curve" smooth="yes"/>
      <point x="442" y="98" smooth="yes"/>
      <point x="417" y="136" smooth="yes"/>
      <point x="417" y="217" type="curve" smooth="yes"/>
      <point x="417" y="363" smooth="yes"/>
      <point x="479" y="437" smooth="yes"/>
      <point x="544" y="437" type="curve" smooth="yes"/>
      <point x="582" y="437"/>
      <point x="614" y="421"/>
      <point x="635" y="403" type="curve"/>
      <point x="615" y="160" smooth="yes"/>
      <point x="536" y="98" smooth="yes"/>
    </contour>
  </outline>
</glyph>
<glyph name="A" format="1">
  <advance width="582"/>
  <unicode hex="0041"/>
  <outline>
    <contour>
      <point x="367" y="700" type="line" name="hr00"/>
      <point x="215" y="700" type="line"/>
      <point x="15" y="0" type="line"/>
      <point x="109" y="0" type="line"/>
      <point x="163" y="191" type="line"/>
      <point x="418" y="191" type="line"/>
      <point x="473" y="0" type="line"/>
      <point x="567" y="0" type="line"/>
    </contour>
    <contour>
      <point x="291" y="637" type="line"/>
      <point x="396" y="269" type="line"/>
      <point x="186" y="269" type="line"/>
    </contour>
  </outline>
</glyph>
<glyph name="B" format="1">
  <advance width="601"/>
  <unicode hex="0042"/>
  <outline>
    <contour>
      <point x="302" y="700" type="curve"/>
      <point x="100" y="700" type="line"/>
      <point x="100" y="0" type="line"/>
      <point x="332" y="0" type="line" smooth="yes"/>
      <point x="475" y="0" smooth="yes"/>
      <point x="546" y="78" smooth="yes"/>
      <point x="546" y="195" type="curve" smooth="yes"/>
      <point x="546" y="278"/>
      <point x="507" y="338"/>
      <point x="430" y="364" type="curve"/>
      <point x="487" y="391" smooth="yes"/>
      <point x="516" y="439" smooth="yes"/>
      <point x="516" y="506" type="curve" smooth="yes" name="hr01"/>
      <point x="516" y="609"/>
      <point x="445" y="700"/>
    </contour>
    <contour>
      <point x="332" y="321" type="line" smooth="yes"/>
      <point x="426" y="321" smooth="yes"/>
      <point x="453" y="261" smooth="yes"/>
      <point x="453" y="201" type="curve" smooth="yes" name="hr02"/>
      <point x="453" y="142" smooth="yes"/>
      <point x="426" y="78" smooth="yes"/>
      <point x="332" y="78" type="curve" smooth="yes"/>
      <point x="196" y="78" type="line"/>
      <point x="196" y="321" type="line"/>
    </contour>
    <contour>
      <point x="302" y="622" type="line" smooth="yes"/>
      <point x="396" y="622" smooth="yes"/>
      <point x="423" y="565" smooth="yes"/>
      <point x="423" y="512" type="curve" smooth="yes" name="hr03"/>
      <point x="423" y="460" smooth="yes"/>
      <point x="396" y="399" smooth="yes"/>
      <point x="302" y="399" type="curve" smooth="yes"/>
      <point x="196" y="399" type="line"/>
      <point x="196" y="622" type="line"/>
    </contour>
  </outline>
</glyph>
<glyph name="C" format="1">
  <advance width="600"/>
  <unicode hex="0043"/>
  <outline>
    <contour>
      <point x="580" y="563" type="line" name="hr00"/>
      <point x="545" y="675" smooth="yes"/>
      <point x="468" y="715" smooth="yes"/>
      <point x="359" y="715" type="curve" smooth="yes"/>
      <point x="195" y="715" smooth="yes"/>
      <point x="70" y="592" smooth="yes"/>
      <point x="70" y="351" type="curve" smooth="yes"/>
      <point x="70" y="110" smooth="yes"/>
      <point x="192" y="-15" smooth="yes"/>
      <point x="361" y="-15" type="curve" smooth="yes"/>
      <point x="453" y="-15"/>
      <point x="531" y="26"/>
      <point x="581" y="75" type="curve"/>
      <point x="535" y="134" type="line"/>
      <point x="499" y="96" smooth="yes"/>
      <point x="436" y="63" smooth="yes"/>
      <point x="365" y="63" type="curve" smooth="yes"/>
      <point x="252" y="63" smooth="yes"/>
      <point x="170" y="156" smooth="yes"/>
      <point x="170" y="351" type="curve" smooth="yes"/>
      <point x="170" y="546" smooth="yes"/>
      <point x="251" y="637" smooth="yes"/>
      <point x="362" y="637" type="curve" smooth="yes"/>
      <point x="423" y="637"/>
      <point x="474" y="602"/>
      <point x="495" y="532" type="curve"/>
    </contour>
  </outline>
</glyph>
<glyph name="D" format="1">
  <advance width="684"/>
  <unicode hex="0044"/>
  <outline>
    <contour>
      <point x="322" y="622" type="line" smooth="yes" name="hr00"/>
      <point x="433" y="622" smooth="yes"/>
      <point x="514" y="536" smooth="yes"/>
      <point x="514" y="351" type="curve" smooth="yes"/>
      <point x="514" y="166" smooth="yes"/>
      <point x="432" y="78" smooth="yes"/>
      <point x="319" y="78" type="curve" smooth="yes"/>
      <point x="196" y="78" type="line"/>
      <point x="196" y="622" type="line"/>
    </contour>
    <contour>
      <point x="100" y="700" type="line"/>
      <point x="100" y="0" type="line"/>
      <point x="323" y="0" type="line" smooth="yes"/>
      <point x="492" y="0" smooth="yes"/>
      <point x="614" y="120" smooth="yes"/>
      <point x="614" y="351" type="curve" smooth="yes"/>
      <point x="614" y="582" smooth="yes"/>
      <point x="489" y="700" smooth="yes"/>
      <point x="325" y="700" type="curve" smooth="yes"/>
    </contour>
  </outline>
</glyph>
<glyph name="E" format="1">
  <advance width="555"/>
  <unicode hex="0045"/>
  <outline>
    <contour>
      <point x="490" y="700" type="line" name="hr00"/>
      <point x="100" y="700" type="line"/>
      <point x="100" y="0" type="line"/>
      <point x="490" y="0" type="line"/>
      <point x="490" y="78" type="line"/>
      <point x="196" y="78" type="line"/>
      <point x="196" y="311" type="line"/>
      <point x="460" y="311" type="line"/>
      <point x="460" y="389" type="line"/>
      <point x="196" y="389" type="line"/>
      <point x="196" y="622" type="line"/>
      <point x="490" y="622" type="line"/>
    </contour>
  </outline>
</glyph>
<glyph name="F" format="1">
  <advance width="490"/>
  <unicode hex="0046"/>
  <outline>
    <contour>
      <point x="470" y="700" type="line" name="hr00"/>
      <point x="100" y="700" type="line"/>
      <point x="100" y="0" type="line"/>
      <point x="196" y="0" type="line"/>
      <point x="196" y="311" type="line"/>
      <point x="440" y="311" type="line"/>
      <point x="440" y="389" type="line"/>
      <point x="196" y="389" type="line"/>
      <point x="196" y="622" type="line"/>
      <point x="470" y="622" type="line"/>
    </contour>
  </outline>
</glyph>
<glyph name="G" format="1">
  <advance width="674"/>
  <unicode hex="0047"/>
  <outline>
    <contour>
      <point x="508" y="360" type="line"/>
      <point x="389" y="360" type="line"/>
      <point x="389" y="282" type="line"/>
      <point x="508" y="282" type="line"/>
      <point x="508" y="110" type="line"/>
      <point x="471" y="83" smooth="yes"/>
      <point x="420" y="63" smooth="yes"/>
      <point x="365" y="63" type="curve" smooth="yes"/>
      <point x="252" y="63" smooth="yes"/>
      <point x="170" y="156" smooth="yes"/>
      <point x="170" y="351" type="curve" smooth="yes"/>
      <point x="170" y="546" smooth="yes"/>
      <point x="251" y="637" smooth="yes"/>
      <point x="362" y="637" type="curve" smooth="yes"/>
      <point x="423" y="637"/>
      <point x="474" y="602"/>
      <point x="495" y="532" type="curve"/>
      <point x="580" y="563" type="line"/>
      <point x="545" y="675" smooth="yes"/>
      <point x="468" y="715" smooth="yes"/>
      <point x="359" y="715" type="curve" smooth="yes"/>
      <point x="195" y="715" smooth="yes"/>
      <point x="70" y="592" smooth="yes"/>
      <point x="70" y="351" type="curve" smooth="yes"/>
      <point x="70" y="110" smooth="yes"/>
      <point x="192" y="-15" smooth="yes"/>
      <point x="361" y="-15" type="curve" smooth="yes"/>
      <point x="430" y="-15"/>
      <point x="485" y="8"/>
      <point x="530" y="40" type="curve"/>
      <point x="548" y="0" type="line" name="hr01"/>
      <point x="594" y="0" type="line"/>
      <point x="594" y="360" type="line"/>
    </contour>
  </outline>
</glyph>
<glyph name="H" format="1">
  <advance width="686"/>
  <unicode hex="0048"/>
  <outline>
    <contour>
      <point x="586" y="700" type="line" name="hr00"/>
      <point x="490" y="700" type="line"/>
      <point x="490" y="389" type="line"/>
      <point x="196" y="389" type="line"/>
      <point x="196" y="700" type="line"/>
      <point x="100" y="700" type="line"/>
      <point x="100" y="0" type="line"/>
      <point x="196" y="0" type="line"/>
      <point x="196" y="311" type="line"/>
      <point x="490" y="311" type="line"/>
      <point x="490" y="0" type="line"/>
      <point x="586" y="0" type="line"/>
    </contour>
  </outline>
</glyph>
<glyph name="I" format="1">
  <advance width="296"/>
  <unicode hex="0049"/>
  <outline>
    <contour>
      <point x="196" y="700" type="line" name="hr00"/>
      <point x="100" y="700" type="line"/>
      <point x="100" y="0" type="line"/>
      <point x="196" y="0" type="line"/>
    </contour>
  </outline>
</glyph>
<glyph name="J" format="1">
  <advance width="425"/>
  <unicode hex="004A"/>
  <outline>
    <contour>
      <point x="330" y="700" type="line" name="hr00"/>
      <point x="234" y="700" type="line"/>
      <point x="234" y="164" type="line" smooth="yes"/>
      <point x="234" y="91" smooth="yes"/>
      <point x="202" y="63" smooth="yes"/>
      <point x="156" y="63" type="curve" smooth="yes"/>
      <point x="114" y="63"/>
      <point x="85" y="92"/>
      <point x="73" y="146" type="curve"/>
      <point x="-10" y="118" type="line"/>
      <point x="19" y="23" smooth="yes"/>
      <point x="78" y="-15" smooth="yes"/>
      <point x="156" y="-15" type="curve" smooth="yes"/>
      <point x="273" y="-15" smooth="yes"/>
      <point x="330" y="42" smooth="yes"/>
      <point x="330" y="199" type="curve" smooth="yes"/>
    </contour>
  </outline>
</glyph>
<glyph name="K" format="1">
  <advance width="561"/>
  <unicode hex="004B"/>
  <outline>
    <contour>
      <point x="196" y="700" type="line" name="hr00"/>
      <point x="100" y="700" type="line"/>
      <point x="100" y="0" type="line"/>
      <point x="196" y="0" type="line"/>
      <point x="196" y="241" type="line"/>
      <point x="251" y="313" type="line"/>
      <point x="456" y="0" type="line"/>
      <point x="561" y="0" type="line"/>
      <point x="307" y="387" type="line"/>
      <point x="546" y="700" type="line"/>
      <point x="441" y="700" type="line"/>
      <point x="196" y="374" type="line"/>
    </contour>
  </outline>
</glyph>
<glyph name="L" format="1">
  <advance width="450"/>
  <unicode hex="004C"/>
  <outline>
    <contour>
      <point x="440" y="0" type="line" name="hr00"/>
      <point x="440" y="78" type="line"/>
      <point x="196" y="78" type="line"/>
      <point x="196" y="700" type="line"/>
      <point x="100" y="700" type="line"/>
      <point x="100" y="0" type="line"/>
    </contour>
  </outline>
</glyph>
<glyph name="M" format="1">
  <advance width="818"/>
  <unicode hex="004D"/>
  <outline>
    <contour>
      <point x="622" y="0" type="line" name="hr00"/>
      <point x="718" y="0" type="line"/>
      <point x="718" y="700" type="line"/>
      <point x="582" y="700" type="line"/>
      <point x="409" y="227" type="line"/>
      <point x="236" y="700" type="line"/>
      <point x="100" y="700" type="line"/>
      <point x="100" y="0" type="line"/>
      <point x="196" y="0" type="line"/>
      <point x="196" y="580" type="line"/>
      <point x="372" y="100" type="line"/>
      <point x="446" y="100" type="line"/>
      <point x="622" y="580" type="line"/>
    </contour>
  </outline>
</glyph>
<glyph name="N" format="1">
  <advance width="696"/>
  <unicode hex="004E"/>
  <outline>
    <contour>
      <point x="596" y="700" type="line" name="hr00"/>
      <point x="500" y="700" type="line"/>
      <point x="500" y="122" type="line"/>
      <point x="236" y="700" type="line"/>
      <point x="100" y="700" type="line"/>
      <point x="100" y="0" type="line"/>
      <point x="196" y="0" type="line"/>
      <point x="196" y="577" type="line"/>
      <point x="460" y="0" type="line"/>
      <point x="596" y="0" type="line"/>
    </contour>
  </outline>
</glyph>
<glyph name="O" format="1">
  <advance width="724"/>
  <unicode hex="004F"/>
  <outline>
    <contour>
      <point x="70" y="351" type="curve" smooth="yes" name="hr00"/>
      <point x="70" y="109" smooth="yes"/>
      <point x="195" y="-15" smooth="yes"/>
      <point x="361" y="-15" type="curve" smooth="yes"/>
      <point x="526" y="-15" smooth="yes"/>
      <point x="654" y="109" smooth="yes"/>
      <point x="654" y="351" type="curve" smooth="yes"/>
      <point x="654" y="591" smooth="yes"/>
      <point x="526" y="715" smooth="yes"/>
      <point x="361" y="715" type="curve" smooth="yes"/>
      <point x="195" y="715" smooth="yes"/>
      <point x="70" y="591" smooth="yes"/>
    </contour>
    <contour>
      <point x="170" y="351" type="curve" smooth="yes"/>
      <point x="170" y="545" smooth="yes"/>
      <point x="249" y="637" smooth="yes"/>
      <point x="361" y="637" type="curve" smooth="yes"/>
      <point x="475" y="637" smooth="yes"/>
      <point x="554" y="545" smooth="yes"/>
      <point x="554" y="351" type="curve" smooth="yes"/>
      <point x="554" y="155" smooth="yes"/>
      <point x="475" y="63" smooth="yes"/>
      <point x="361" y="63" type="curve" smooth="yes"/>
      <point x="249" y="63" smooth="yes"/>
      <point x="170" y="155" smooth="yes"/>
    </contour>
  </outline>
</glyph>
<glyph name="P" format="1">
  <advance width="571"/>
  <unicode hex="0050"/>
  <outline>
    <contour>
      <point x="302" y="700" type="curve" name="hr00"/>
      <point x="100" y="700" type="line"/>
      <point x="100" y="0" type="line"/>
      <point x="196" y="0" type="line"/>
      <point x="196" y="261" type="line"/>
      <point x="302" y="261" type="line" smooth="yes"/>
      <point x="462" y="261" smooth="yes"/>
      <point x="541" y="352" smooth="yes"/>
      <point x="541" y="480" type="curve" smooth="yes"/>
      <point x="541" y="606"/>
      <point x="462" y="700"/>
    </contour>
    <contour>
      <point x="302" y="622" type="line" smooth="yes"/>
      <point x="416" y="622" smooth="yes"/>
      <point x="448" y="548" smooth="yes"/>
      <point x="448" y="480" type="curve" smooth="yes"/>
      <point x="448" y="412" smooth="yes"/>
      <point x="416" y="339" smooth="yes"/>
      <point x="302" y="339" type="curve" smooth="yes"/>
      <point x="196" y="339" type="line"/>
      <point x="196" y="622" type="line"/>
    </contour>
  </outline>
</glyph>
<glyph name="Q" format="1">
  <advance width="724"/>
  <unicode hex="0051"/>
  <outline>
    <contour>
      <point x="546" y="-129" type="line" name="hr00"/>
      <point x="546" y="-8"/>
      <point x="460" y="30"/>
      <point x="361" y="30" type="curve"/>
      <point x="361" y="-15" type="line"/>
      <point x="402" y="-15"/>
      <point x="464" y="-69"/>
      <point x="464" y="-153" type="curve"/>
      <point x="488" y="-153" type="line"/>
    </contour>
    <component  base="O"/>
  </outline>
</glyph>
<glyph name="R" format="1">
  <advance width="611"/>
  <unicode hex="0052"/>
  <outline>
    <contour>
      <point x="476" y="0" type="line" name="hr00"/>
      <point x="581" y="0" type="line"/>
      <point x="456" y="258" type="line" smooth="yes"/>
      <point x="448" y="274"/>
      <point x="438" y="292"/>
      <point x="419" y="305" type="curve"/>
      <point x="500" y="337" smooth="yes"/>
      <point x="541" y="404" smooth="yes"/>
      <point x="541" y="490" type="curve" smooth="yes"/>
      <point x="541" y="607" smooth="yes"/>
      <point x="462" y="700" smooth="yes"/>
      <point x="302" y="700" type="curve" smooth="yes"/>
      <point x="100" y="700" type="line"/>
      <point x="100" y="0" type="line"/>
      <point x="196" y="0" type="line"/>
      <point x="196" y="286" type="line"/>
      <point x="302" y="286" type="line"/>
      <point x="303" y="286" type="line"/>
      <point x="330" y="286" smooth="yes"/>
      <point x="349" y="277" smooth="yes"/>
      <point x="365" y="242" type="curve" smooth="yes"/>
    </contour>
    <contour>
      <point x="302" y="622" type="line" smooth="yes"/>
      <point x="416" y="622" smooth="yes"/>
      <point x="448" y="555" smooth="yes"/>
      <point x="448" y="493" type="curve" smooth="yes"/>
      <point x="448" y="430" smooth="yes"/>
      <point x="416" y="364" smooth="yes"/>
      <point x="302" y="364" type="curve" smooth="yes"/>
      <point x="196" y="364" type="line"/>
      <point x="196" y="622" type="line"/>
    </contour>
  </outline>
</glyph>
<glyph name="S" format="1">
  <advance width="566"/>
  <unicode hex="0053"/>
  <outline>
    <contour>
      <point x="418" y="163" type="curve" smooth="yes" name="hr00"/>
      <point x="418" y="106" smooth="yes"/>
      <point x="364" y="63" smooth="yes"/>
      <point x="290" y="63" type="curve" smooth="yes"/>
      <point x="211" y="63"/>
      <point x="158" y="108"/>
      <point x="134" y="202" type="curve"/>
      <point x="48" y="171" type="line"/>
      <point x="81" y="39" smooth="yes"/>
      <point x="163" y="-15" smooth="yes"/>
      <point x="281" y="-15" type="curve" smooth="yes"/>
      <point x="456" y="-15" smooth="yes"/>
      <point x="514" y="99" smooth="yes"/>
      <point x="514" y="182" type="curve" smooth="yes"/>
      <point x="514" y="406" smooth="yes"/>
      <point x="165" y="371" smooth="yes"/>
      <point x="165" y="535" type="curve" smooth="yes"/>
      <point x="165" y="599" smooth="yes"/>
      <point x="212" y="637" smooth="yes"/>
      <point x="279" y="637" type="curve" smooth="yes"/>
      <point x="352" y="637"/>
      <point x="401" y="597"/>
      <point x="423" y="532" type="curve"/>
      <point x="510" y="563" type="line"/>
      <point x="478" y="671" smooth="yes"/>
      <point x="402" y="715" smooth="yes"/>
      <point x="292" y="715" type="curve" smooth="yes"/>
      <point x="125" y="715" smooth="yes"/>
      <point x="69" y="607" smooth="yes"/>
      <point x="69" y="527" type="curve" smooth="yes"/>
      <point x="69" y="282" smooth="yes"/>
      <point x="418" y="325" smooth="yes"/>
    </contour>
  </outline>
</glyph>
<glyph name="T" format="1">
  <advance width="474"/>
  <unicode hex="0054"/>
  <outline>
    <contour>
      <point x="5" y="700" type="line" name="hr00"/>
      <point x="5" y="622" type="line"/>
      <point x="189" y="622" type="line"/>
      <point x="189" y="0" type="line"/>
      <point x="285" y="0" type="line"/>
      <point x="285" y="622" type="line"/>
      <point x="469" y="622" type="line"/>
      <point x="469" y="700" type="line"/>
    </contour>
  </outline>
</glyph>
<glyph name="U" format="1">
  <advance width="671"/>
  <unicode hex="0055"/>
  <outline>
    <contour>
      <point x="581" y="700" type="line" name="hr00"/>
      <point x="485" y="700" type="line"/>
      <point x="485" y="236" type="line" smooth="yes"/>
      <point x="485" y="108" smooth="yes"/>
      <point x="425" y="60" smooth="yes"/>
      <point x="335" y="60" type="curve" smooth="yes"/>
      <point x="246" y="60" smooth="yes"/>
      <point x="186" y="108" smooth="yes"/>
      <point x="186" y="236" type="curve" smooth="yes"/>
      <point x="186" y="700" type="line"/>
      <point x="90" y="700" type="line"/>
      <point x="90" y="236" type="line" smooth="yes"/>
      <point x="90" y="64" smooth="yes"/>
      <point x="195" y="-15" smooth="yes"/>
      <point x="335" y="-15" type="curve" smooth="yes"/>
      <point x="473" y="-15" smooth="yes"/>
      <point x="581" y="64" smooth="yes"/>
      <point x="581" y="236" type="curve" smooth="yes"/>
    </contour>
  </outline>
</glyph>
<glyph name="V" format="1">
  <advance width="562"/>
  <unicode hex="0056"/>
  <outline>
    <contour>
      <point x="542" y="700" type="line" name="hr00"/>
      <point x="448" y="700" type="line"/>
      <point x="281" y="68" type="line"/>
      <point x="114" y="700" type="line"/>
      <point x="20" y="700" type="line"/>
      <point x="205" y="0" type="line"/>
      <point x="357" y="0" type="line"/>
    </contour>
  </outline>
</glyph>
<glyph name="W" format="1">
  <advance width="920"/>
  <unicode hex="0057"/>
  <outline>
    <contour>
      <point x="593" y="0" type="line" name="hr00"/>
      <point x="735" y="0" type="line"/>
      <point x="890" y="700" type="line"/>
      <point x="796" y="700" type="line"/>
      <point x="658" y="79" type="line"/>
      <point x="512" y="700" type="line"/>
      <point x="408" y="700" type="line"/>
      <point x="261" y="78" type="line"/>
      <point x="124" y="700" type="line"/>
      <point x="30" y="700" type="line"/>
      <point x="185" y="0" type="line"/>
      <point x="327" y="0" type="line"/>
      <point x="460" y="564" type="line"/>
    </contour>
  </outline>
</glyph>
<glyph name="X" format="1">
  <advance width="596"/>
  <unicode hex="0058"/>
  <outline>
    <contour>
      <point x="144" y="700" type="line" name="hr00"/>
      <point x="36" y="700" type="line"/>
      <point x="243" y="356" type="line"/>
      <point x="30" y="0" type="line"/>
      <point x="135" y="0" type="line"/>
      <point x="295" y="269" type="line"/>
      <point x="458" y="0" type="line"/>
      <point x="566" y="0" type="line"/>
      <point x="353" y="352" type="line"/>
      <point x="560" y="700" type="line"/>
      <point x="455" y="700" type="line"/>
      <point x="300" y="440" type="line"/>
    </contour>
  </outline>
</glyph>
<glyph name="Y" format="1">
  <advance width="516"/>
  <unicode hex="0059"/>
  <outline>
    <contour>
      <point x="114" y="700" type="line" name="hr00"/>
      <point x="15" y="700" type="line"/>
      <point x="210" y="260" type="line"/>
      <point x="210" y="0" type="line"/>
      <point x="306" y="0" type="line"/>
      <point x="306" y="260" type="line"/>
      <point x="501" y="700" type="line"/>
      <point x="402" y="700" type="line"/>
      <point x="258" y="361" type="line"/>
    </contour>
  </outline>
</glyph>
<glyph name="Z" format="1">
  <advance width="527"/>
  <unicode hex="005A"/>
  <outline>
    <contour>
      <point x="35" y="0" type="line" name="hr00"/>
      <point x="485" y="0" type="line"/>
      <point x="485" y="78" type="line"/>
      <point x="159" y="78" type="line"/>
      <point x="492" y="656" type="line"/>
      <point x="492" y="700" type="line"/>
      <point x="60" y="700" type="line"/>
      <point x="60" y="622" type="line"/>
      <point x="368" y="622" type="line"/>
      <point x="35" y="44" type="line"/>
    </contour>
  </outline>
</glyph>
<glyph name="bracketleft" format="1">
  <advance width="360"/>
  <unicode hex="005B"/>
  <outline>
    <contour>
      <point x="340" y="-100" type="line" name="hr00"/>
      <point x="340" y="-22" type="line"/>
      <point x="196" y="-22" type="line"/>
      <point x="196" y="682" type="line"/>
      <point x="340" y="682" type="line"/>
      <point x="340" y="760" type="line"/>
      <point x="100" y="760" type="line"/>
      <point x="100" y="-100" type="line"/>
    </contour>
  </outline>
</glyph>
<glyph name="backslash" format="1">
  <advance width="382"/>
  <unicode hex="005C"/>
  <outline>
    <contour>
      <point x="0" y="715" type="line" name="hr00"/>
      <point x="76" y="715" type="line"/>
      <point x="382" y="-15" type="line"/>
      <point x="307" y="-15" type="line"/>
    </contour>
  </outline>
</glyph>
<glyph name="asciicircum" format="1">
  <advance width="542"/>
  <unicode hex="005E"/>
  <outline>
    <contour>
      <point x="225" y="660" type="line" name="hr00"/>
      <point x="84" y="428" type="line"/>
      <point x="171" y="428" type="line"/>
      <point x="271" y="595" type="line"/>
      <point x="371" y="428" type="line"/>
      <point x="458" y="428" type="line"/>
      <point x="317" y="660" type="line"/>
    </contour>
  </outline>
</glyph>
<glyph name="underscore" format="1">
  <advance width="470"/>
  <unicode hex="005F"/>
  <outline>
    <contour>
      <point x="20" y="-85" type="line" name="hr00"/>
      <point x="450" y="-85" type="line"/>
      <point x="450" y="-15" type="line"/>
      <point x="20" y="-15" type="line"/>
    </contour>
  </outline>
</glyph>
<glyph name="grave" format="1">
  <advance width="419"/>
  <unicode hex="0060"/>
  <outline>
    <contour>
      <point x="161" y="790" type="line" name="hr00"/>
      <point x="120" y="717" type="line"/>
      <point x="335" y="607" type="line"/>
      <point x="367" y="665" type="line"/>
    </contour>
  </outline>
</glyph>
<glyph name="a" format="1">
  <advance width="567"/>
  <unicode hex="0061"/>
  <outline>
    <contour>
      <point x="268" y="467" type="curve" smooth="yes" name="hr00"/>
      <point x="332" y="467" smooth="yes"/>
      <point x="370" y="425" smooth="yes"/>
      <point x="370" y="356" type="curve" smooth="yes"/>
      <point x="370" y="293" type="line"/>
      <point x="337" y="303" smooth="yes"/>
      <point x="300" y="309" smooth="yes"/>
      <point x="264" y="309" type="curve" smooth="yes"/>
      <point x="134" y="309" smooth="yes"/>
      <point x="55" y="244" smooth="yes"/>
      <point x="55" y="135" type="curve" smooth="yes"/>
      <point x="55" y="50" smooth="yes"/>
      <point x="117" y="-15" smooth="yes"/>
      <point x="198" y="-15" type="curve" smooth="yes"/>
      <point x="274" y="-15"/>
      <point x="334" y="27"/>
      <point x="375" y="70" type="curve"/>
      <point x="381" y="4" smooth="yes"/>
      <point x="417" y="-15" smooth="yes"/>
      <point x="465" y="-15" type="curve" smooth="yes"/>
      <point x="495" y="-15"/>
      <point x="521" y="-5"/>
      <point x="542" y="5" type="curve"/>
      <point x="526" y="67" type="line"/>
      <point x="516" y="62" smooth="yes"/>
      <point x="503" y="58" smooth="yes"/>
      <point x="492" y="58" type="curve" smooth="yes"/>
      <point x="477" y="58" smooth="yes"/>
      <point x="466" y="64" smooth="yes"/>
      <point x="466" y="85" type="curve" smooth="yes"/>
      <point x="466" y="321" type="line" smooth="yes"/>
      <point x="466" y="479" smooth="yes"/>
      <point x="407" y="545" smooth="yes"/>
      <point x="268" y="545" type="curve" smooth="yes"/>
      <point x="167" y="545"/>
      <point x="103" y="501"/>
      <point x="76" y="412" type="curve"/>
      <point x="159" y="384" type="line"/>
      <point x="175" y="438" smooth="yes"/>
      <point x="213" y="467" smooth="yes"/>
    </contour>
    <contour>
      <point x="227" y="63" type="curve" smooth="yes"/>
      <point x="182" y="63" smooth="yes"/>
      <point x="151" y="99" smooth="yes"/>
      <point x="151" y="143" type="curve" smooth="yes"/>
      <point x="151" y="219" smooth="yes"/>
      <point x="212" y="244" smooth="yes"/>
      <point x="278" y="244" type="curve" smooth="yes"/>
      <point x="309" y="244"/>
      <point x="342" y="238"/>
      <point x="370" y="229" type="curve"/>
      <point x="370" y="132" type="line"/>
      <point x="328" y="90" smooth="yes"/>
      <point x="278" y="63" smooth="yes"/>
    </contour>
  </outline>
</glyph>
<glyph name="c" format="1">
  <advance width="528"/>
  <unicode hex="0063"/>
  <outline>
    <contour>
      <point x="497" y="412" type="line" name="hr00"/>
      <point x="468" y="507" smooth="yes"/>
      <point x="400" y="545" smooth="yes"/>
      <point x="310" y="545" type="curve" smooth="yes"/>
      <point x="174" y="545" smooth="yes"/>
      <point x="70" y="450" smooth="yes"/>
      <point x="70" y="265" type="curve" smooth="yes"/>
      <point x="70" y="80" smooth="yes"/>
      <point x="171" y="-15" smooth="yes"/>
      <point x="311" y="-15" type="curve" smooth="yes"/>
      <point x="388" y="-15"/>
      <point x="457" y="25"/>
      <point x="498" y="72" type="curve"/>
      <point x="455" y="124" type="line"/>
      <point x="425" y="95" smooth="yes"/>
      <point x="374" y="63" smooth="yes"/>
      <point x="315" y="63" type="curve" smooth="yes"/>
      <point x="231" y="63" smooth="yes"/>
      <point x="170" y="128" smooth="yes"/>
      <point x="170" y="265" type="curve" smooth="yes"/>
      <point x="170" y="402" smooth="yes"/>
      <point x="230" y="467" smooth="yes"/>
      <point x="312" y="467" type="curve" smooth="yes"/>
      <point x="363" y="467"/>
      <point x="399" y="438"/>
      <point x="414" y="384" type="curve"/>
    </contour>
  </outline>
</glyph>
<glyph name="d" format="1">
  <advance width="631"/>
  <unicode hex="0064"/>
  <outline>
    <contour>
      <point x="273" y="-15" type="curve" smooth="yes" name="hr00"/>
      <point x="345" y="-15"/>
      <point x="398" y="19"/>
      <point x="436" y="59" type="curve"/>
      <point x="444" y="2" smooth="yes"/>
      <point x="479" y="-15" smooth="yes"/>
      <point x="524" y="-15" type="curve" smooth="yes"/>
      <point x="554" y="-15"/>
      <point x="580" y="-5"/>
      <point x="601" y="5" type="curve"/>
      <point x="585" y="67" type="line"/>
      <point x="575" y="62" smooth="yes"/>
      <point x="562" y="58" smooth="yes"/>
      <point x="551" y="58" type="curve" smooth="yes"/>
      <point x="536" y="58" smooth="yes"/>
      <point x="525" y="64" smooth="yes"/>
      <point x="525" y="85" type="curve" smooth="yes"/>
      <point x="525" y="750" type="line"/>
      <point x="429" y="750" type="line"/>
      <point x="429" y="504" type="line"/>
      <point x="393" y="528" smooth="yes"/>
      <point x="349" y="545" smooth="yes"/>
      <point x="300" y="545" type="curve" smooth="yes"/>
      <point x="171" y="545" smooth="yes"/>
      <point x="70" y="450" smooth="yes"/>
      <point x="70" y="265" type="curve" smooth="yes"/>
      <point x="70" y="80" smooth="yes"/>
      <point x="151" y="-15" smooth="yes"/>
    </contour>
    <contour>
      <point x="294" y="63" type="curve" smooth="yes"/>
      <point x="221" y="63" smooth="yes"/>
      <point x="170" y="128" smooth="yes"/>
      <point x="170" y="265" type="curve" smooth="yes"/>
      <point x="170" y="402" smooth="yes"/>
      <point x="226" y="467" smooth="yes"/>
      <point x="304" y="467" type="curve" smooth="yes"/>
      <point x="353" y="467"/>
      <point x="398" y="448"/>
      <point x="429" y="425" type="curve"/>
      <point x="429" y="121" type="line"/>
      <point x="391" y="86" smooth="yes"/>
      <point x="346" y="63" smooth="yes"/>
    </contour>
  </outline>
</glyph>
<glyph name="e" format="1">
  <advance width="591"/>
  <unicode hex="0065"/>
  <outline>
    <contour>
      <point x="318" y="63" type="curve" smooth="yes" name="hr00"/>
      <point x="238" y="63"/>
      <point x="179" y="119"/>
      <point x="171" y="237" type="curve"/>
      <point x="521" y="237" type="line"/>
      <point x="521" y="307" type="line" smooth="yes"/>
      <point x="521" y="467" smooth="yes"/>
      <point x="434" y="545" smooth="yes"/>
      <point x="308" y="545" type="curve" smooth="yes"/>
      <point x="173" y="545" smooth="yes"/>
      <point x="70" y="450" smooth="yes"/>
      <point x="70" y="265" type="curve" smooth="yes"/>
      <point x="70" y="80" smooth="yes"/>
      <point x="173" y="-15" smooth="yes"/>
      <point x="315" y="-15" type="curve" smooth="yes"/>
      <point x="400" y="-15"/>
      <point x="469" y="25"/>
      <point x="510" y="72" type="curve"/>
      <point x="467" y="124" type="line"/>
      <point x="437" y="95" smooth="yes"/>
      <point x="386" y="63" smooth="yes"/>
    </contour>
    <contour>
      <point x="309" y="467" type="curve" smooth="yes"/>
      <point x="383" y="467"/>
      <point x="426" y="409"/>
      <point x="426" y="307" type="curve"/>
      <point x="172" y="307" type="line"/>
      <point x="183" y="415" smooth="yes"/>
      <point x="237" y="467" smooth="yes"/>
    </contour>
  </outline>
</glyph>
<glyph name="f" format="1">
  <advance width="380"/>
  <unicode hex="0066"/>
  <outline>
    <contour>
      <point x="55" y="460" type="line" name="hr00"/>
      <point x="131" y="460" type="line"/>
      <point x="131" y="0" type="line"/>
      <point x="227" y="0" type="line"/>
      <point x="227" y="460" type="line"/>
      <point x="357" y="460" type="line"/>
      <point x="357" y="530" type="line"/>
      <point x="227" y="530" type="line"/>
      <point x="227" y="601" type="line" smooth="yes"/>
      <point x="227" y="661" smooth="yes"/>
      <point x="248" y="687" smooth="yes"/>
      <point x="288" y="687" type="curve" smooth="yes"/>
      <point x="322" y="687"/>
      <point x="339" y="669"/>
      <point x="351" y="637" type="curve"/>
      <point x="431" y="664" type="line"/>
      <point x="402" y="742" smooth="yes"/>
      <point x="356" y="765" smooth="yes"/>
      <point x="289" y="765" type="curve" smooth="yes"/>
      <point x="187" y="765" smooth="yes"/>
      <point x="131" y="716" smooth="yes"/>
      <point x="131" y="591" type="curve" smooth="yes"/>
      <point x="131" y="530" type="line"/>
      <point x="55" y="530" type="line"/>
    </contour>
  </outline>
</glyph>
<glyph name="g" format="1">
  <advance width="559"/>
  <unicode hex="0067"/>
  <outline>
    <contour>
      <point x="230" y="70" type="line" smooth="yes"/>
      <point x="182" y="70" smooth="yes"/>
      <point x="160" y="95" smooth="yes"/>
      <point x="160" y="128" type="curve" smooth="yes"/>
      <point x="160" y="149"/>
      <point x="169" y="171"/>
      <point x="185" y="186" type="curve"/>
      <point x="216" y="170" smooth="yes"/>
      <point x="253" y="162" smooth="yes"/>
      <point x="293" y="162" type="curve" smooth="yes"/>
      <point x="408" y="162" smooth="yes"/>
      <point x="497" y="233" smooth="yes"/>
      <point x="497" y="353" type="curve" smooth="yes"/>
      <point x="497" y="406"/>
      <point x="479" y="450"/>
      <point x="450" y="482" type="curve"/>
      <point x="492" y="496"/>
      <point x="519" y="529"/>
      <point x="519" y="598" type="curve" name="hr01"/>
      <point x="461" y="618" type="line"/>
      <point x="441" y="618" type="line"/>
      <point x="441" y="550"/>
      <point x="415" y="529"/>
      <point x="384" y="528" type="curve"/>
      <point x="357" y="539" smooth="yes"/>
      <point x="326" y="545" smooth="yes"/>
      <point x="293" y="545" type="curve" smooth="yes"/>
      <point x="177" y="545" smooth="yes"/>
      <point x="90" y="474" smooth="yes"/>
      <point x="90" y="353" type="curve" smooth="yes"/>
      <point x="90" y="299"/>
      <point x="107" y="255"/>
      <point x="137" y="223" type="curve"/>
      <point x="102" y="196" smooth="yes"/>
      <point x="87" y="159" smooth="yes"/>
      <point x="87" y="119" type="curve" smooth="yes"/>
      <point x="87" y="81"/>
      <point x="99" y="50"/>
      <point x="123" y="28" type="curve"/>
      <point x="79" y="4" smooth="yes"/>
      <point x="50" y="-37" smooth="yes"/>
      <point x="50" y="-82" type="curve" smooth="yes" name="hr02"/>
      <point x="50" y="-184" smooth="yes"/>
      <point x="132" y="-235" smooth="yes"/>
      <point x="292" y="-235" type="curve" smooth="yes"/>
      <point x="451" y="-235" smooth="yes"/>
      <point x="534" y="-174" smooth="yes"/>
      <point x="534" y="-72" type="curve" smooth="yes"/>
      <point x="534" y="31" smooth="yes"/>
      <point x="453" y="70" smooth="yes"/>
      <point x="362" y="70" type="curve" smooth="yes"/>
    </contour>
    <contour>
      <point x="182" y="353" type="curve" smooth="yes" name="hr03"/>
      <point x="182" y="440" smooth="yes"/>
      <point x="240" y="477" smooth="yes"/>
      <point x="293" y="477" type="curve" smooth="yes"/>
      <point x="346" y="477" smooth="yes"/>
      <point x="405" y="440" smooth="yes"/>
      <point x="405" y="353" type="curve" smooth="yes"/>
      <point x="405" y="267" smooth="yes"/>
      <point x="346" y="230" smooth="yes"/>
      <point x="293" y="230" type="curve" smooth="yes"/>
      <point x="240" y="230" smooth="yes"/>
      <point x="182" y="267" smooth="yes"/>
    </contour>
    <contour>
      <point x="238" y="-8" type="curve"/>
      <point x="358" y="-8" type="line" smooth="yes"/>
      <point x="397" y="-8" smooth="yes"/>
      <point x="446" y="-18" smooth="yes"/>
      <point x="446" y="-73" type="curve" smooth="yes" name="hr04"/>
      <point x="446" y="-135" smooth="yes"/>
      <point x="396" y="-161" smooth="yes"/>
      <point x="292" y="-161" type="curve" smooth="yes"/>
      <point x="188" y="-161" smooth="yes"/>
      <point x="138" y="-134" smooth="yes"/>
      <point x="138" y="-77" type="curve" smooth="yes"/>
      <point x="138" y="-47"/>
      <point x="156" y="-20"/>
      <point x="175" y="0" type="curve"/>
      <point x="193" y="-5"/>
      <point x="214" y="-8"/>
    </contour>
  </outline>
</glyph>
<glyph name="h" format="1">
  <advance width="616"/>
  <unicode hex="0068"/>
  <outline>
    <contour>
      <point x="191" y="750" type="line" name="hr00"/>
      <point x="100" y="750" type="line"/>
      <point x="100" y="0" type="line"/>
      <point x="196" y="0" type="line"/>
      <point x="196" y="397" type="line"/>
      <point x="230" y="443" smooth="yes"/>
      <point x="275" y="467" smooth="yes"/>
      <point x="331" y="467" type="curve" smooth="yes"/>
      <point x="398" y="467" smooth="yes"/>
      <point x="430" y="431" smooth="yes"/>
      <point x="430" y="356" type="curve" smooth="yes"/>
      <point x="430" y="0" type="line"/>
      <point x="526" y="0" type="line"/>
      <point x="526" y="346" type="line" smooth="yes"/>
      <point x="526" y="490" smooth="yes"/>
      <point x="478" y="545" smooth="yes"/>
      <point x="353" y="545" type="curve" smooth="yes"/>
      <point x="290" y="545"/>
      <point x="231" y="512"/>
      <point x="191" y="458" type="curve"/>
    </contour>
  </outline>
</glyph>
<glyph name="i" format="1">
  <advance width="296"/>
  <unicode hex="0069"/>
  <outline>
    <contour>
      <point x="196" y="530" type="line" name="hr00"/>
      <point x="100" y="530" type="line"/>
      <point x="100" y="0" type="line"/>
      <point x="196" y="0" type="line"/>
    </contour>
    <contour>
      <point x="83" y="697" type="curve"/>
      <point x="83" y="651" smooth="yes"/>
      <point x="111" y="630" smooth="yes"/>
      <point x="148" y="630" type="curve" smooth="yes"/>
      <point x="186" y="630" smooth="yes"/>
      <point x="214" y="651" smooth="yes"/>
      <point x="214" y="697" type="curve" smooth="yes"/>
      <point x="214" y="743" smooth="yes"/>
      <point x="186" y="764" smooth="yes"/>
      <point x="148" y="764" type="curve" smooth="yes"/>
      <point x="111" y="764" smooth="yes"/>
      <point x="83" y="743" smooth="yes"/>
    </contour>
  </outline>
</glyph>
<glyph name="k" format="1">
  <advance width="522"/>
  <unicode hex="006B"/>
  <outline>
    <contour>
      <point x="397" y="0" type="line" name="hr00"/>
      <point x="502" y="0" type="line"/>
      <point x="274" y="300" type="line"/>
      <point x="482" y="530" type="line"/>
      <point x="377" y="530" type="line"/>
      <point x="196" y="328" type="line"/>
      <point x="196" y="750" type="line"/>
      <point x="100" y="750" type="line"/>
      <point x="100" y="0" type="line"/>
      <point x="196" y="0" type="line"/>
      <point x="196" y="213" type="line"/>
      <point x="219" y="238" type="line"/>
    </contour>
  </outline>
</glyph>
<glyph name="m" format="1">
  <advance width="916"/>
  <unicode hex="006D"/>
  <outline>
    <contour>
      <point x="100" y="530" type="line"/>
      <point x="100" y="0" type="line"/>
      <point x="196" y="0" type="line"/>
      <point x="196" y="408" type="line"/>
      <point x="233" y="444" smooth="yes"/>
      <point x="276" y="467" smooth="yes"/>
      <point x="320" y="467" type="curve" smooth="yes" name="hr01"/>
      <point x="385" y="467" smooth="yes"/>
      <point x="415" y="430" smooth="yes"/>
      <point x="415" y="356" type="curve" smooth="yes"/>
      <point x="415" y="0" type="line"/>
      <point x="511" y="0" type="line"/>
      <point x="511" y="346" type="line" smooth="yes"/>
      <point x="511" y="368"/>
      <point x="510" y="387"/>
      <point x="507" y="405" type="curve"/>
      <point x="545" y="443" smooth="yes"/>
      <point x="589" y="467" smooth="yes"/>
      <point x="635" y="467" type="curve" smooth="yes"/>
      <point x="700" y="467" smooth="yes"/>
      <point x="730" y="430" smooth="yes"/>
      <point x="730" y="356" type="curve" smooth="yes"/>
      <point x="730" y="0" type="line"/>
      <point x="826" y="0" type="line"/>
      <point x="826" y="346" type="line" smooth="yes"/>
      <point x="826" y="490" smooth="yes"/>
      <point x="778" y="545" smooth="yes"/>
      <point x="657" y="545" type="curve" smooth="yes"/>
      <point x="589" y="545"/>
      <point x="533" y="504"/>
      <point x="494" y="460" type="curve"/>
      <point x="471" y="520" smooth="yes"/>
      <point x="423" y="545" smooth="yes"/>
      <point x="342" y="545" type="curve" smooth="yes"/>
      <point x="278" y="545"/>
      <point x="224" y="508"/>
      <point x="186" y="468" type="curve"/>
      <point x="181" y="530" type="line" name="hr02"/>
    </contour>
  </outline>
</glyph>
<glyph name="n" format="1">
  <advance width="616"/>
  <unicode hex="006E"/>
  <outline>
    <contour>
      <point x="100" y="530" type="line"/>
      <point x="100" y="0" type="line"/>
      <point x="196" y="0" type="line"/>
      <point x="196" y="407" type="line"/>
      <point x="236" y="444" smooth="yes"/>
      <point x="282" y="467" smooth="yes"/>
      <point x="329" y="467" type="curve" smooth="yes" name="hr01"/>
      <point x="398" y="467" smooth="yes"/>
      <point x="430" y="430" smooth="yes"/>
      <point x="430" y="356" type="curve" smooth="yes"/>
      <point x="430" y="0" type="line"/>
      <point x="526" y="0" type="line"/>
      <point x="526" y="346" type="line" smooth="yes"/>
      <point x="526" y="490" smooth="yes"/>
      <point x="478" y="545" smooth="yes"/>
      <point x="353" y="545" type="curve" smooth="yes"/>
      <point x="284" y="545"/>
      <point x="227" y="507"/>
      <point x="186" y="466" type="curve"/>
      <point x="181" y="530" type="line" name="hr02"/>
    </contour>
  </outline>
</glyph>
<glyph name="o" format="1">
  <advance width="623"/>
  <unicode hex="006F"/>
  <outline>
    <contour>
      <point x="70" y="265" type="curve" smooth="yes" name="hr00"/>
      <point x="70" y="80" smooth="yes"/>
      <point x="174" y="-15" smooth="yes"/>
      <point x="311" y="-15" type="curve" smooth="yes"/>
      <point x="448" y="-15" smooth="yes"/>
      <point x="553" y="80" smooth="yes"/>
      <point x="553" y="265" type="curve" smooth="yes"/>
      <point x="553" y="450" smooth="yes"/>
      <point x="448" y="545" smooth="yes"/>
      <point x="311" y="545" type="curve" smooth="yes"/>
      <point x="174" y="545" smooth="yes"/>
      <point x="70" y="450" smooth="yes"/>
    </contour>
    <contour>
      <point x="170" y="265" type="curve" smooth="yes"/>
      <point x="170" y="402" smooth="yes"/>
      <point x="229" y="467" smooth="yes"/>
      <point x="311" y="467" type="curve" smooth="yes"/>
      <point x="394" y="467" smooth="yes"/>
      <point x="453" y="402" smooth="yes"/>
      <point x="453" y="265" type="curve" smooth="yes"/>
      <point x="453" y="128" smooth="yes"/>
      <point x="394" y="63" smooth="yes"/>
      <point x="311" y="63" type="curve" smooth="yes"/>
      <point x="229" y="63" smooth="yes"/>
      <point x="170" y="128" smooth="yes"/>
    </contour>
  </outline>
</glyph>
<glyph name="p" format="1">
  <advance width="625"/>
  <unicode hex="0070"/>
  <outline>
    <contour>
      <point x="100" y="-235" type="line"/>
      <point x="196" y="-235" type="line"/>
      <point x="196" y="26" type="line"/>
      <point x="232" y="1" smooth="yes"/>
      <point x="276" y="-15" smooth="yes"/>
      <point x="325" y="-15" type="curve" smooth="yes"/>
      <point x="454" y="-15" smooth="yes"/>
      <point x="555" y="80" smooth="yes"/>
      <point x="555" y="265" type="curve" smooth="yes"/>
      <point x="555" y="450" smooth="yes"/>
      <point x="474" y="545" smooth="yes"/>
      <point x="352" y="545" type="curve" smooth="yes"/>
      <point x="278" y="545"/>
      <point x="224" y="508"/>
      <point x="186" y="468" type="curve"/>
      <point x="181" y="530" type="line" name="hr01"/>
      <point x="100" y="530" type="line"/>
    </contour>
    <contour>
      <point x="331" y="467" type="curve" smooth="yes" name="hr02"/>
      <point x="404" y="467" smooth="yes"/>
      <point x="455" y="402" smooth="yes"/>
      <point x="455" y="265" type="curve" smooth="yes"/>
      <point x="455" y="128" smooth="yes"/>
      <point x="399" y="63" smooth="yes"/>
      <point x="321" y="63" type="curve" smooth="yes"/>
      <point x="271" y="63"/>
      <point x="226" y="81"/>
      <point x="196" y="105" type="curve"/>
      <point x="196" y="408" type="line"/>
      <point x="233" y="444" smooth="yes"/>
      <point x="278" y="467" smooth="yes"/>
    </contour>
  </outline>
</glyph>
<glyph name="q" format="1">
  <advance width="625"/>
  <unicode hex="0071"/>
  <outline>
    <contour>
      <point x="273" y="-15" type="curve" smooth="yes" name="hr00"/>
      <point x="341" y="-15"/>
      <point x="392" y="15"/>
      <point x="429" y="52" type="curve"/>
      <point x="429" y="-235" type="line"/>
      <point x="525" y="-235" type="line"/>
      <point x="525" y="545" type="line"/>
      <point x="479" y="545" type="line"/>
      <point x="451" y="487" type="line"/>
      <point x="412" y="520" smooth="yes"/>
      <point x="359" y="545" smooth="yes"/>
      <point x="300" y="545" type="curve" smooth="yes"/>
      <point x="171" y="545" smooth="yes"/>
      <point x="70" y="450" smooth="yes"/>
      <point x="70" y="265" type="curve" smooth="yes"/>
      <point x="70" y="80" smooth="yes"/>
      <point x="151" y="-15" smooth="yes"/>
    </contour>
    <contour>
      <point x="294" y="63" type="curve" smooth="yes"/>
      <point x="221" y="63" smooth="yes"/>
      <point x="170" y="128" smooth="yes"/>
      <point x="170" y="265" type="curve" smooth="yes"/>
      <point x="170" y="402" smooth="yes"/>
      <point x="226" y="467" smooth="yes"/>
      <point x="304" y="467" type="curve" smooth="yes"/>
      <point x="353" y="467"/>
      <point x="398" y="448"/>
      <point x="429" y="425" type="curve"/>
      <point x="429" y="121" type="line"/>
      <point x="391" y="86" smooth="yes"/>
      <point x="346" y="63" smooth="yes"/>
    </contour>
  </outline>
</glyph>
<glyph name="r" format="1">
  <advance width="365"/>
  <unicode hex="0072"/>
  <outline>
    <contour>
      <point x="100" y="530" type="line"/>
      <point x="100" y="0" type="line"/>
      <point x="196" y="0" type="line"/>
      <point x="196" y="403" type="line"/>
      <point x="231" y="439"/>
      <point x="282" y="461"/>
      <point x="344" y="462" type="curve" name="hr01"/>
      <point x="356" y="473" type="line"/>
      <point x="351" y="545" type="line"/>
      <point x="287" y="543"/>
      <point x="227" y="511"/>
      <point x="186" y="465" type="curve"/>
      <point x="181" y="530" type="line" name="hr02"/>
    </contour>
  </outline>
</glyph>
<glyph name="s" format="1">
  <advance width="486"/>
  <unicode hex="0073"/>
  <outline>
    <contour>
      <point x="256" y="472" type="curve" smooth="yes" name="hr00"/>
      <point x="307" y="472"/>
      <point x="340" y="438"/>
      <point x="355" y="384" type="curve"/>
      <point x="438" y="412" type="line"/>
      <point x="412" y="507" smooth="yes"/>
      <point x="349" y="545" smooth="yes"/>
      <point x="258" y="545" type="curve" smooth="yes"/>
      <point x="119" y="545" smooth="yes"/>
      <point x="74" y="462" smooth="yes"/>
      <point x="74" y="401" type="curve" smooth="yes"/>
      <point x="74" y="213" smooth="yes"/>
      <point x="343" y="229" smooth="yes"/>
      <point x="343" y="126" type="curve" smooth="yes"/>
      <point x="343" y="80" smooth="yes"/>
      <point x="302" y="58" smooth="yes"/>
      <point x="257" y="58" type="curve" smooth="yes"/>
      <point x="204" y="58"/>
      <point x="152" y="78"/>
      <point x="139" y="166" type="curve"/>
      <point x="56" y="138" type="line"/>
      <point x="78" y="43" smooth="yes"/>
      <point x="136" y="-15" smooth="yes"/>
      <point x="250" y="-15" type="curve" smooth="yes"/>
      <point x="365" y="-15" smooth="yes"/>
      <point x="435" y="44" smooth="yes"/>
      <point x="435" y="133" type="curve" smooth="yes"/>
      <point x="435" y="312" smooth="yes"/>
      <point x="166" y="291" smooth="yes"/>
      <point x="166" y="403" type="curve" smooth="yes"/>
      <point x="166" y="449" smooth="yes"/>
      <point x="205" y="472" smooth="yes"/>
    </contour>
  </outline>
</glyph>
<glyph name="t" format="1">
  <advance width="397"/>
  <unicode hex="0074"/>
  <outline>
    <contour>
      <point x="55" y="460" type="line" name="hr00"/>
      <point x="131" y="460" type="line"/>
      <point x="131" y="124" type="line" smooth="yes"/>
      <point x="131" y="34" smooth="yes"/>
      <point x="169" y="-15" smooth="yes"/>
      <point x="239" y="-15" type="curve" smooth="yes"/>
      <point x="283" y="-15"/>
      <point x="337" y="4"/>
      <point x="377" y="34" type="curve"/>
      <point x="351" y="94" type="line"/>
      <point x="320" y="75" smooth="yes"/>
      <point x="295" y="66" smooth="yes"/>
      <point x="274" y="66" type="curve" smooth="yes"/>
      <point x="242" y="66" smooth="yes"/>
      <point x="227" y="82" smooth="yes"/>
      <point x="227" y="114" type="curve" smooth="yes"/>
      <point x="227" y="460" type="line"/>
      <point x="367" y="460" type="line"/>
      <point x="367" y="530" type="line"/>
      <point x="227" y="530" type="line"/>
      <point x="227" y="660" type="line"/>
      <point x="207" y="660" type="line"/>
      <point x="131" y="640" type="line"/>
      <point x="131" y="530" type="line"/>
      <point x="55" y="530" type="line"/>
    </contour>
  </outline>
</glyph>
<glyph name="u" format="1">
  <advance width="617"/>
  <unicode hex="0075"/>
  <outline>
    <contour>
      <point x="511" y="530" type="line" name="hr00"/>
      <point x="415" y="530" type="line"/>
      <point x="415" y="122" type="line"/>
      <point x="375" y="86" smooth="yes"/>
      <point x="327" y="63" smooth="yes"/>
      <point x="269" y="63" type="curve" smooth="yes"/>
      <point x="210" y="63" smooth="yes"/>
      <point x="186" y="99" smooth="yes"/>
      <point x="186" y="170" type="curve" smooth="yes"/>
      <point x="186" y="530" type="line"/>
      <point x="90" y="530" type="line"/>
      <point x="90" y="171" type="line" smooth="yes"/>
      <point x="90" y="50" smooth="yes"/>
      <point x="136" y="-15" smooth="yes"/>
      <point x="241" y="-15" type="curve" smooth="yes"/>
      <point x="320" y="-15"/>
      <point x="380" y="21"/>
      <point x="421" y="61" type="curve"/>
      <point x="429" y="2" smooth="yes"/>
      <point x="464" y="-15" smooth="yes"/>
      <point x="510" y="-15" type="curve" smooth="yes"/>
      <point x="540" y="-15"/>
      <point x="566" y="-5"/>
      <point x="587" y="5" type="curve"/>
      <point x="571" y="67" type="line"/>
      <point x="561" y="62" smooth="yes"/>
      <point x="548" y="58" smooth="yes"/>
      <point x="537" y="58" type="curve" smooth="yes"/>
      <point x="522" y="58" smooth="yes"/>
      <point x="511" y="64" smooth="yes"/>
      <point x="511" y="85" type="curve" smooth="yes"/>
    </contour>
  </outline>
</glyph>
<glyph name="v" format="1">
  <advance width="536"/>
  <unicode hex="0076"/>
  <outline>
    <contour>
      <point x="501" y="530" type="line" name="hr00"/>
      <point x="412" y="530" type="line"/>
      <point x="273" y="89" type="line"/>
      <point x="134" y="530" type="line"/>
      <point x="35" y="530" type="line"/>
      <point x="205" y="0" type="line"/>
      <point x="331" y="0" type="line"/>
    </contour>
  </outline>
</glyph>
<glyph name="w" format="1">
  <advance width="813"/>
  <unicode hex="0077"/>
  <outline>
    <contour>
      <point x="507" y="0" type="line" name="hr00"/>
      <point x="628" y="0" type="line"/>
      <point x="768" y="530" type="line"/>
      <point x="681" y="530" type="line"/>
      <point x="566" y="86" type="line"/>
      <point x="455" y="530" type="line"/>
      <point x="368" y="530" type="line"/>
      <point x="256" y="86" type="line"/>
      <point x="142" y="530" type="line"/>
      <point x="45" y="530" type="line"/>
      <point x="185" y="0" type="line"/>
      <point x="316" y="0" type="line"/>
      <point x="411" y="372" type="line"/>
    </contour>
  </outline>
</glyph>
<glyph name="x" format="1">
  <advance width="506"/>
  <unicode hex="0078"/>
  <outline>
    <contour>
      <point x="140" y="530" type="line" name="hr00"/>
      <point x="35" y="530" type="line"/>
      <point x="202" y="267" type="line"/>
      <point x="30" y="0" type="line"/>
      <point x="124" y="0" type="line"/>
      <point x="248" y="193" type="line"/>
      <point x="371" y="0" type="line"/>
      <point x="476" y="0" type="line"/>
      <point x="304" y="270" type="line"/>
      <point x="471" y="530" type="line"/>
      <point x="377" y="530" type="line"/>
      <point x="257" y="344" type="line"/>
    </contour>
  </outline>
</glyph>
<glyph name="y" format="1">
  <advance width="536"/>
  <unicode hex="0079"/>
  <outline>
    <contour>
      <point x="501" y="530" type="line" name="hr00"/>
      <point x="412" y="530" type="line"/>
      <point x="273" y="70" type="line"/>
      <point x="134" y="530" type="line"/>
      <point x="35" y="530" type="line"/>
      <point x="183" y="68" type="line" smooth="yes"/>
      <point x="201" y="13" smooth="yes"/>
      <point x="211" y="-44" smooth="yes"/>
      <point x="211" y="-80" type="curve" smooth="yes"/>
      <point x="211" y="-131" smooth="yes"/>
      <point x="183" y="-154" smooth="yes"/>
      <point x="142" y="-154" type="curve" smooth="yes"/>
      <point x="104" y="-154"/>
      <point x="76" y="-133"/>
      <point x="55" y="-112" type="curve"/>
      <point x="8" y="-172" type="line"/>
      <point x="38" y="-202" smooth="yes"/>
      <point x="91" y="-235" smooth="yes"/>
      <point x="149" y="-235" type="curve" smooth="yes"/>
      <point x="219" y="-235" smooth="yes"/>
      <point x="267" y="-200" smooth="yes"/>
      <point x="300" y="-96" type="curve" smooth="yes"/>
    </contour>
  </outline>
</glyph>
<glyph name="z" format="1">
  <advance width="462"/>
  <unicode hex="007A"/>
  <outline>
    <contour>
      <point x="45" y="0" type="line" name="hr00"/>
      <point x="412" y="0" type="line"/>
      <point x="412" y="75" type="line"/>
      <point x="159" y="75" type="line"/>
      <point x="417" y="480" type="line"/>
      <point x="417" y="530" type="line"/>
      <point x="65" y="530" type="line"/>
      <point x="65" y="455" type="line"/>
      <point x="303" y="455" type="line"/>
      <point x="45" y="50" type="line"/>
    </contour>
  </outline>
</glyph>
<glyph name="braceleft" format="1">
  <advance width="360"/>
  <unicode hex="007B"/>
  <outline>
    <contour>
      <point x="151" y="334" type="line"/>
      <point x="205" y="334" smooth="yes"/>
      <point x="216" y="372" smooth="yes"/>
      <point x="216" y="409" type="curve" smooth="yes"/>
      <point x="216" y="500" smooth="yes"/>
      <point x="199" y="601" smooth="yes"/>
      <point x="199" y="643" type="curve" smooth="yes" name="hr01"/>
      <point x="199" y="677" smooth="yes"/>
      <point x="215" y="690" smooth="yes"/>
      <point x="253" y="690" type="curve" smooth="yes"/>
      <point x="272" y="690"/>
      <point x="290" y="687"/>
      <point x="320" y="682" type="curve"/>
      <point x="330" y="750" type="line"/>
      <point x="291" y="761" smooth="yes"/>
      <point x="269" y="764" smooth="yes"/>
      <point x="224" y="764" type="curve" smooth="yes"/>
      <point x="155" y="764" smooth="yes"/>
      <point x="104" y="741" smooth="yes"/>
      <point x="104" y="660" type="curve" smooth="yes"/>
      <point x="104" y="629" smooth="yes"/>
      <point x="120" y="497" smooth="yes"/>
      <point x="120" y="409" type="curve" smooth="yes" name="hr02"/>
      <point x="120" y="375"/>
      <point x="98" y="359"/>
      <point x="46" y="359" type="curve"/>
      <point x="46" y="299" type="line"/>
      <point x="98" y="299" smooth="yes"/>
      <point x="120" y="283" smooth="yes"/>
      <point x="120" y="249" type="curve" smooth="yes"/>
      <point x="120" y="161" smooth="yes"/>
      <point x="104" y="29" smooth="yes"/>
      <point x="104" y="-2" type="curve" smooth="yes" name="hr03"/>
      <point x="104" y="-83" smooth="yes"/>
      <point x="155" y="-106" smooth="yes"/>
      <point x="224" y="-106" type="curve" smooth="yes"/>
      <point x="269" y="-106"/>
      <point x="291" y="-103"/>
      <point x="330" y="-92" type="curve"/>
      <point x="320" y="-24" type="line"/>
      <point x="290" y="-29" smooth="yes"/>
      <point x="272" y="-32" smooth="yes"/>
      <point x="253" y="-32" type="curve" smooth="yes"/>
      <point x="215" y="-32" smooth="yes"/>
      <point x="199" y="-19" smooth="yes"/>
      <point x="199" y="15" type="curve" smooth="yes"/>
      <point x="199" y="57" smooth="yes"/>
      <point x="216" y="158" smooth="yes"/>
      <point x="216" y="249" type="curve" smooth="yes" name="hr04"/>
      <point x="216" y="286"/>
      <point x="205" y="324"/>
      <point x="151" y="324" type="curve"/>
    </contour>
  </outline>
</glyph>
<glyph name="bar" format="1">
  <advance width="476"/>
  <unicode hex="007C"/>
  <outline>
    <contour>
      <point x="276" y="800" type="line" name="hr00"/>
      <point x="200" y="800" type="line"/>
      <point x="200" y="-100" type="line"/>
      <point x="276" y="-100" type="line"/>
    </contour>
  </outline>
</glyph>
<glyph name="asciitilde" format="1">
  <advance width="542"/>
  <unicode hex="007E"/>
  <outline>
    <contour>
      <point x="462" y="370" type="line"/>
      <point x="437" y="391" smooth="yes"/>
      <point x="405" y="401" smooth="yes"/>
      <point x="373" y="401" type="curve" smooth="yes"/>
      <point x="298" y="401" smooth="yes"/>
      <point x="244" y="343" smooth="yes"/>
      <point x="171" y="343" type="curve" smooth="yes" name="hr01"/>
      <point x="138" y="343"/>
      <point x="107" y="352"/>
      <point x="80" y="370" type="curve"/>
      <point x="80" y="290" type="line"/>
      <point x="105" y="269" smooth="yes"/>
      <point x="137" y="259" smooth="yes"/>
      <point x="169" y="259" type="curve" smooth="yes"/>
      <point x="244" y="259" smooth="yes"/>
      <point x="298" y="317" smooth="yes"/>
      <point x="371" y="317" type="curve" smooth="yes" name="hr02"/>
      <point x="404" y="317"/>
      <point x="435" y="308"/>
      <point x="462" y="290" type="curve"/>
    </contour>
  </outline>
</glyph>
<glyph name="cent" format="1">
  <advance width="528"/>
  <unicode hex="00A2"/>
  <outline>
    <contour>
      <point x="497" y="477" type="line" name="hr00"/>
      <point x="468" y="572" smooth="yes"/>
      <point x="400" y="610" smooth="yes"/>
      <point x="310" y="610" type="curve" smooth="yes"/>
      <point x="174" y="610" smooth="yes"/>
      <point x="70" y="515" smooth="yes"/>
      <point x="70" y="330" type="curve" smooth="yes"/>
      <point x="70" y="145" smooth="yes"/>
      <point x="171" y="50" smooth="yes"/>
      <point x="311" y="50" type="curve" smooth="yes"/>
      <point x="388" y="50"/>
      <point x="457" y="90"/>
      <point x="498" y="137" type="curve"/>
      <point x="455" y="189" type="line"/>
      <point x="425" y="160" smooth="yes"/>
      <point x="374" y="128" smooth="yes"/>
      <point x="315" y="128" type="curve" smooth="yes"/>
      <point x="231" y="128" smooth="yes"/>
      <point x="170" y="193" smooth="yes"/>
      <point x="170" y="330" type="curve" smooth="yes"/>
      <point x="170" y="467" smooth="yes"/>
      <point x="230" y="532" smooth="yes"/>
      <point x="312" y="532" type="curve" smooth="yes"/>
      <point x="363" y="532"/>
      <point x="399" y="503"/>
      <point x="414" y="449" type="curve"/>
    </contour>
    <component  base="bar" xOffset="68" yOffset="-21"/>
  </outline>
</glyph>
<glyph name="currency" format="1">
  <advance width="578"/>
  <unicode hex="00A4"/>
  <outline>
    <contour>
      <point x="80" y="72" type="line" name="hr00"/>
      <point x="178" y="171" type="line"/>
      <point x="209" y="152" smooth="yes"/>
      <point x="247" y="142" smooth="yes"/>
      <point x="289" y="142" type="curve" smooth="yes"/>
      <point x="330" y="142"/>
      <point x="368" y="152"/>
      <point x="399" y="171" type="curve"/>
      <point x="498" y="72" type="line"/>
      <point x="548" y="122" type="line"/>
      <point x="448" y="220" type="line"/>
      <point x="467" y="249" smooth="yes"/>
      <point x="478" y="286" smooth="yes"/>
      <point x="478" y="331" type="curve" smooth="yes"/>
      <point x="478" y="376"/>
      <point x="467" y="412"/>
      <point x="448" y="441" type="curve"/>
      <point x="548" y="540" type="line"/>
      <point x="498" y="590" type="line"/>
      <point x="399" y="490" type="line"/>
      <point x="368" y="510" smooth="yes"/>
      <point x="330" y="520" smooth="yes"/>
      <point x="289" y="520" type="curve" smooth="yes"/>
      <point x="247" y="520"/>
      <point x="209" y="510"/>
      <point x="178" y="491" type="curve"/>
      <point x="80" y="590" type="line"/>
      <point x="30" y="540" type="line"/>
      <point x="129" y="442" type="line"/>
      <point x="110" y="413" smooth="yes"/>
      <point x="100" y="376" smooth="yes"/>
      <point x="100" y="331" type="curve" smooth="yes"/>
      <point x="100" y="286"/>
      <point x="110" y="249"/>
      <point x="129" y="220" type="curve"/>
      <point x="30" y="122" type="line"/>
    </contour>
    <contour>
      <point x="187" y="331" type="curve" smooth="yes"/>
      <point x="187" y="410" smooth="yes"/>
      <point x="228" y="448" smooth="yes"/>
      <point x="289" y="448" type="curve" smooth="yes"/>
      <point x="347" y="448" smooth="yes"/>
      <point x="389" y="410" smooth="yes"/>
      <point x="389" y="331" type="curve" smooth="yes"/>
      <point x="389" y="252" smooth="yes"/>
      <point x="347" y="213" smooth="yes"/>
      <point x="289" y="213" type="curve" smooth="yes"/>
      <point x="228" y="213" smooth="yes"/>
      <point x="187" y="252" smooth="yes"/>
    </contour>
  </outline>
</glyph>
<glyph name="yen" format="1">
  <advance width="516"/>
  <unicode hex="00A5"/>
  <outline>
    <contour>
      <point x="114" y="660" type="line" name="hr00"/>
      <point x="15" y="660" type="line"/>
      <point x="139" y="406" type="line"/>
      <point x="48" y="406" type="line"/>
      <point x="48" y="336" type="line"/>
      <point x="173" y="336" type="line"/>
      <point x="210" y="260" type="line"/>
      <point x="210" y="231" type="line"/>
      <point x="48" y="231" type="line"/>
      <point x="48" y="161" type="line"/>
      <point x="210" y="161" type="line"/>
      <point x="210" y="0" type="line"/>
      <point x="306" y="0" type="line"/>
      <point x="306" y="161" type="line"/>
      <point x="468" y="161" type="line"/>
      <point x="468" y="231" type="line"/>
      <point x="306" y="231" type="line"/>
      <point x="306" y="260" type="line"/>
      <point x="343" y="336" type="line"/>
      <point x="468" y="336" type="line"/>
      <point x="468" y="406" type="line"/>
      <point x="377" y="406" type="line"/>
      <point x="501" y="660" type="line"/>
      <point x="402" y="660" type="line"/>
      <point x="258" y="352" type="line"/>
    </contour>
  </outline>
</glyph>
<glyph name="brokenbar" format="1">
  <advance width="376"/>
  <unicode hex="00A6"/>
  <outline>
    <contour>
      <point x="226" y="800" type="line" name="hr00"/>
      <point x="150" y="800" type="line"/>
      <point x="150" y="470" type="line"/>
      <point x="226" y="470" type="line"/>
    </contour>
    <contour>
      <point x="226" y="230" type="line"/>
      <point x="150" y="230" type="line"/>
      <point x="150" y="-100" type="line"/>
      <point x="226" y="-100" type="line"/>
    </contour>
  </outline>
</glyph>
<glyph name="section" format="1">
  <advance width="575"/>
  <unicode hex="00A7"/>
  <outline>
    <contour>
      <point x="291" y="-157" type="curve" smooth="yes" name="hr00"/>
      <point x="218" y="-157"/>
      <point x="170" y="-118"/>
      <point x="149" y="-53" type="curve"/>
      <point x="65" y="-83" type="line"/>
      <point x="95" y="-191" smooth="yes"/>
      <point x="169" y="-235" smooth="yes"/>
      <point x="279" y="-235" type="curve" smooth="yes"/>
      <point x="455" y="-235" smooth="yes"/>
      <point x="516" y="-126" smooth="yes"/>
      <point x="516" y="-46" type="curve" smooth="yes"/>
      <point x="516" y="10"/>
      <point x="491" y="48"/>
      <point x="454" y="78" type="curve"/>
      <point x="500" y="116" smooth="yes"/>
      <point x="518" y="169" smooth="yes"/>
      <point x="518" y="213" type="curve" smooth="yes"/>
      <point x="518" y="420" smooth="yes"/>
      <point x="174" y="388" smooth="yes"/>
      <point x="174" y="541" type="curve" smooth="yes"/>
      <point x="174" y="601" smooth="yes"/>
      <point x="222" y="637" smooth="yes"/>
      <point x="289" y="637" type="curve" smooth="yes"/>
      <point x="362" y="637"/>
      <point x="414" y="598"/>
      <point x="435" y="533" type="curve"/>
      <point x="519" y="563" type="line"/>
      <point x="489" y="671" smooth="yes"/>
      <point x="415" y="715" smooth="yes"/>
      <point x="305" y="715" type="curve" smooth="yes"/>
      <point x="134" y="715" smooth="yes"/>
      <point x="78" y="610" smooth="yes"/>
      <point x="78" y="534" type="curve" smooth="yes"/>
      <point x="78" y="475"/>
      <point x="101" y="435"/>
      <point x="136" y="404" type="curve"/>
      <point x="92" y="367" smooth="yes"/>
      <point x="76" y="316" smooth="yes"/>
      <point x="76" y="275" type="curve" smooth="yes"/>
      <point x="76" y="50" smooth="yes"/>
      <point x="419" y="89" smooth="yes"/>
      <point x="419" y="-62" type="curve" smooth="yes"/>
      <point x="419" y="-116" smooth="yes"/>
      <point x="364" y="-157" smooth="yes"/>
    </contour>
    <contour>
      <point x="421" y="197" type="curve" smooth="yes"/>
      <point x="421" y="166"/>
      <point x="404" y="141"/>
      <point x="376" y="124" type="curve"/>
      <point x="281" y="168" smooth="yes"/>
      <point x="172" y="196" smooth="yes"/>
      <point x="172" y="282" type="curve" smooth="yes"/>
      <point x="172" y="314"/>
      <point x="185" y="340"/>
      <point x="208" y="356" type="curve"/>
      <point x="305" y="308" smooth="yes"/>
      <point x="421" y="284" smooth="yes"/>
    </contour>
  </outline>
</glyph>
<glyph name="dieresis" format="1">
  <advance width="296"/>
  <unicode hex="00A8"/>
  <outline>
    <contour>
      <point x="-4" y="697" type="curve" name="hr00"/>
      <point x="-4" y="657" smooth="yes"/>
      <point x="21" y="638" smooth="yes"/>
      <point x="53" y="638" type="curve" smooth="yes"/>
      <point x="86" y="638" smooth="yes"/>
      <point x="111" y="657" smooth="yes"/>
      <point x="111" y="697" type="curve" smooth="yes"/>
      <point x="111" y="737" smooth="yes"/>
      <point x="86" y="756" smooth="yes"/>
      <point x="53" y="756" type="curve" smooth="yes"/>
      <point x="21" y="756" smooth="yes"/>
      <point x="-4" y="737" smooth="yes"/>
    </contour>
    <contour>
      <point x="185" y="697" type="curve"/>
      <point x="185" y="657" smooth="yes"/>
      <point x="210" y="638" smooth="yes"/>
      <point x="242" y="638" type="curve" smooth="yes"/>
      <point x="275" y="638" smooth="yes"/>
      <point x="300" y="657" smooth="yes"/>
      <point x="300" y="697" type="curve" smooth="yes"/>
      <point x="300" y="737" smooth="yes"/>
      <point x="275" y="756" smooth="yes"/>
      <point x="242" y="756" type="curve" smooth="yes"/>
      <point x="210" y="756" smooth="yes"/>
      <point x="185" y="737" smooth="yes"/>
    </contour>
  </outline>
</glyph>
<glyph name="copyright" format="1">
  <advance width="780"/>
  <unicode hex="00A9"/>
  <outline>
    <contour>
      <point x="530" y="605" type="line" name="hr00"/>
      <point x="507" y="680" smooth="yes"/>
      <point x="458" y="708" smooth="yes"/>
      <point x="390" y="708" type="curve" smooth="yes"/>
      <point x="290" y="708" smooth="yes"/>
      <point x="213" y="633" smooth="yes"/>
      <point x="213" y="486" type="curve" smooth="yes"/>
      <point x="213" y="339" smooth="yes"/>
      <point x="288" y="263" smooth="yes"/>
      <point x="392" y="263" type="curve" smooth="yes"/>
      <point x="448" y="263"/>
      <point x="498" y="291"/>
      <point x="532" y="325" type="curve"/>
      <point x="494" y="371" type="line"/>
      <point x="471" y="348" smooth="yes"/>
      <point x="434" y="327" smooth="yes"/>
      <point x="394" y="327" type="curve" smooth="yes"/>
      <point x="333" y="327" smooth="yes"/>
      <point x="289" y="378" smooth="yes"/>
      <point x="289" y="486" type="curve" smooth="yes"/>
      <point x="289" y="595" smooth="yes"/>
      <point x="333" y="644" smooth="yes"/>
      <point x="392" y="644" type="curve" smooth="yes"/>
      <point x="424" y="644"/>
      <point x="451" y="623"/>
      <point x="464" y="581" type="curve"/>
    </contour>
    <contour>
      <point x="60" y="486" type="curve" smooth="yes"/>
      <point x="60" y="268" smooth="yes"/>
      <point x="208" y="156" smooth="yes"/>
      <point x="390" y="156" type="curve" smooth="yes"/>
      <point x="572" y="156" smooth="yes"/>
      <point x="720" y="268" smooth="yes"/>
      <point x="720" y="486" type="curve" smooth="yes"/>
      <point x="720" y="704" smooth="yes"/>
      <point x="572" y="816" smooth="yes"/>
      <point x="390" y="816" type="curve" smooth="yes"/>
      <point x="208" y="816" smooth="yes"/>
      <point x="60" y="704" smooth="yes"/>
    </contour>
    <contour>
      <point x="115" y="486" type="curve" smooth="yes"/>
      <point x="115" y="668" smooth="yes"/>
      <point x="238" y="761" smooth="yes"/>
      <point x="390" y="761" type="curve" smooth="yes"/>
      <point x="542" y="761" smooth="yes"/>
      <point x="665" y="668" smooth="yes"/>
      <point x="665" y="486" type="curve" smooth="yes"/>
      <point x="665" y="304" smooth="yes"/>
      <point x="542" y="211" smooth="yes"/>
      <point x="390" y="211" type="curve" smooth="yes"/>
      <point x="238" y="211" smooth="yes"/>
      <point x="115" y="304" smooth="yes"/>
    </contour>
  </outline>
</glyph>
<glyph name="ordfeminine" format="1">
  <advance width="400"/>
  <unicode hex="00AA"/>
  <outline>
    <contour>
      <point x="192" y="657" type="curve" smooth="yes" name="hr00"/>
      <point x="223" y="657" smooth="yes"/>
      <point x="244" y="640" smooth="yes"/>
      <point x="244" y="604" type="curve" smooth="yes"/>
      <point x="244" y="567" type="line"/>
      <point x="228" y="570" smooth="yes"/>
      <point x="210" y="572" smooth="yes"/>
      <point x="191" y="572" type="curve" smooth="yes"/>
      <point x="110" y="572" smooth="yes"/>
      <point x="61" y="534" smooth="yes"/>
      <point x="61" y="468" type="curve" smooth="yes"/>
      <point x="61" y="414" smooth="yes"/>
      <point x="101" y="372" smooth="yes"/>
      <point x="153" y="372" type="curve" smooth="yes"/>
      <point x="192" y="372"/>
      <point x="229" y="394"/>
      <point x="249" y="420" type="curve"/>
      <point x="258" y="383" smooth="yes"/>
      <point x="278" y="372" smooth="yes"/>
      <point x="305" y="372" type="curve" smooth="yes"/>
      <point x="323" y="372"/>
      <point x="342" y="380"/>
      <point x="358" y="388" type="curve"/>
      <point x="345" y="431" type="line"/>
      <point x="338" y="428" smooth="yes"/>
      <point x="332" y="426" smooth="yes"/>
      <point x="327" y="426" type="curve" smooth="yes"/>
      <point x="317" y="426" smooth="yes"/>
      <point x="312" y="433" smooth="yes"/>
      <point x="312" y="457" type="curve" smooth="yes"/>
      <point x="312" y="577" type="line" smooth="yes"/>
      <point x="312" y="673" smooth="yes"/>
      <point x="277" y="715" smooth="yes"/>
      <point x="191" y="715" type="curve" smooth="yes"/>
      <point x="133" y="715"/>
      <point x="90" y="689"/>
      <point x="71" y="623" type="curve"/>
      <point x="131" y="606" type="line"/>
      <point x="141" y="639" smooth="yes"/>
      <point x="163" y="657" smooth="yes"/>
    </contour>
    <contour>
      <point x="130" y="470" type="curve" smooth="yes"/>
      <point x="130" y="510" smooth="yes"/>
      <point x="162" y="522" smooth="yes"/>
      <point x="197" y="522" type="curve" smooth="yes"/>
      <point x="213" y="522"/>
      <point x="230" y="520"/>
      <point x="244" y="516" type="curve"/>
      <point x="244" y="466" type="line"/>
      <point x="226" y="444" smooth="yes"/>
      <point x="196" y="430" smooth="yes"/>
      <point x="171" y="430" type="curve" smooth="yes"/>
      <point x="149" y="430" smooth="yes"/>
      <point x="130" y="442" smooth="yes"/>
    </contour>
  </outline>
</glyph>
<glyph name="guillemotleft" format="1">
  <advance width="505"/>
  <unicode hex="00AB"/>
  <outline>
    <contour>
      <point x="50" y="337" type="line" name="hr00"/>
      <point x="50" y="309" type="line"/>
      <point x="194" y="121" type="line"/>
      <point x="248" y="158" type="line"/>
      <point x="154" y="323" type="line"/>
      <point x="248" y="488" type="line"/>
      <point x="194" y="525" type="line"/>
    </contour>
    <contour>
      <point x="257" y="337" type="line"/>
      <point x="257" y="309" type="line"/>
      <point x="401" y="121" type="line"/>
      <point x="455" y="158" type="line"/>
      <point x="361" y="323" type="line"/>
      <point x="455" y="488" type="line"/>
      <point x="401" y="525" type="line"/>
    </contour>
  </outline>
</glyph>
<glyph name="logicalnot" format="1">
  <advance width="542"/>
  <unicode hex="00AC"/>
  <outline>
    <contour>
      <point x="80" y="290" type="line" name="hr00"/>
      <point x="390" y="290" type="line"/>
      <point x="390" y="139" type="line"/>
      <point x="462" y="139" type="line"/>
      <point x="462" y="370" type="line"/>
      <point x="80" y="370" type="line"/>
    </contour>
  </outline>
</glyph>
<glyph name="registered" format="1">
  <advance width="780"/>
  <unicode hex="00AE"/>
  <outline>
    <contour>
      <point x="60" y="486" type="curve" smooth="yes" name="hr00"/>
      <point x="60" y="268" smooth="yes"/>
      <point x="208" y="156" smooth="yes"/>
      <point x="390" y="156" type="curve" smooth="yes"/>
      <point x="572" y="156" smooth="yes"/>
      <point x="720" y="268" smooth="yes"/>
      <point x="720" y="486" type="curve" smooth="yes"/>
      <point x="720" y="704" smooth="yes"/>
      <point x="572" y="816" smooth="yes"/>
      <point x="390" y="816" type="curve" smooth="yes"/>
      <point x="208" y="816" smooth="yes"/>
      <point x="60" y="704" smooth="yes"/>
    </contour>
    <contour>
      <point x="115" y="486" type="curve" smooth="yes"/>
      <point x="115" y="668" smooth="yes"/>
      <point x="238" y="761" smooth="yes"/>
      <point x="390" y="761" type="curve" smooth="yes"/>
      <point x="542" y="761" smooth="yes"/>
      <point x="665" y="668" smooth="yes"/>
      <point x="665" y="486" type="curve" smooth="yes"/>
      <point x="665" y="304" smooth="yes"/>
      <point x="542" y="211" smooth="yes"/>
      <point x="390" y="211" type="curve" smooth="yes"/>
      <point x="238" y="211" smooth="yes"/>
      <point x="115" y="304" smooth="yes"/>
    </contour>
    <contour>
      <point x="484" y="272" type="line"/>
      <point x="564" y="272" type="line"/>
      <point x="486" y="436" type="line" smooth="yes"/>
      <point x="482" y="443"/>
      <point x="479" y="450"/>
      <point x="471" y="457" type="curve"/>
      <point x="516" y="479" smooth="yes"/>
      <point x="536" y="517" smooth="yes"/>
      <point x="536" y="567" type="curve" smooth="yes"/>
      <point x="536" y="641" smooth="yes"/>
      <point x="486" y="699" smooth="yes"/>
      <point x="387" y="699" type="curve" smooth="yes"/>
      <point x="260" y="699" type="line"/>
      <point x="260" y="272" type="line"/>
      <point x="334" y="272" type="line"/>
      <point x="334" y="440" type="line"/>
      <point x="387" y="440" type="line" smooth="yes"/>
      <point x="401" y="440" smooth="yes"/>
      <point x="409" y="434" smooth="yes"/>
      <point x="416" y="418" type="curve" smooth="yes"/>
    </contour>
    <contour>
      <point x="387" y="636" type="line" smooth="yes"/>
      <point x="448" y="636" smooth="yes"/>
      <point x="464" y="602" smooth="yes"/>
      <point x="464" y="569" type="curve" smooth="yes"/>
      <point x="464" y="536" smooth="yes"/>
      <point x="448" y="502" smooth="yes"/>
      <point x="387" y="502" type="curve" smooth="yes"/>
      <point x="334" y="502" type="line"/>
      <point x="334" y="636" type="line"/>
    </contour>
  </outline>
</glyph>
<glyph name="macron" format="1">
  <advance width="555"/>
  <unicode hex="00AF"/>
  <outline>
    <contour>
      <point x="133" y="659" type="line" name="hr00"/>
      <point x="422" y="659" type="line"/>
      <point x="422" y="734" type="line"/>
      <point x="133" y="734" type="line"/>
    </contour>
  </outline>
</glyph>
<glyph name="degree" format="1">
  <advance width="398"/>
  <unicode hex="00B0"/>
  <outline>
    <contour>
      <point x="50" y="566" type="curve" smooth="yes" name="hr00"/>
      <point x="50" y="467" smooth="yes"/>
      <point x="114" y="417" smooth="yes"/>
      <point x="199" y="417" type="curve" smooth="yes"/>
      <point x="283" y="417" smooth="yes"/>
      <point x="348" y="467" smooth="yes"/>
      <point x="348" y="566" type="curve" smooth="yes"/>
      <point x="348" y="665" smooth="yes"/>
      <point x="283" y="715" smooth="yes"/>
      <point x="199" y="715" type="curve" smooth="yes"/>
      <point x="114" y="715" smooth="yes"/>
      <point x="50" y="665" smooth="yes"/>
    </contour>
    <contour>
      <point x="125" y="566" type="curve" smooth="yes"/>
      <point x="125" y="624" smooth="yes"/>
      <point x="155" y="652" smooth="yes"/>
      <point x="199" y="652" type="curve" smooth="yes"/>
      <point x="241" y="652" smooth="yes"/>
      <point x="272" y="624" smooth="yes"/>
      <point x="272" y="566" type="curve" smooth="yes"/>
      <point x="272" y="508" smooth="yes"/>
      <point x="241" y="480" smooth="yes"/>
      <point x="199" y="480" type="curve" smooth="yes"/>
      <point x="155" y="480" smooth="yes"/>
      <point x="125" y="508" smooth="yes"/>
    </contour>
  </outline>
</glyph>
<glyph name="acute" format="1">
  <advance width="419"/>
  <unicode hex="00B4"/>
  <outline>
    <contour>
      <point x="102" y="665" type="line" name="hr00"/>
      <point x="134" y="607" type="line"/>
      <point x="349" y="717" type="line"/>
      <point x="308" y="790" type="line"/>
    </contour>
  </outline>
</glyph>
<glyph name="mu" format="1">
  <advance width="617"/>
  <unicode hex="00B5"/>
  <outline>
    <contour>
      <point x="90" y="-220" type="line" name="hr00"/>
      <point x="176" y="-220" type="line"/>
      <point x="176" y="22" type="line"/>
      <point x="193" y="0" smooth="yes"/>
      <point x="219" y="-15" smooth="yes"/>
      <point x="261" y="-15" type="curve" smooth="yes"/>
      <point x="325" y="-15"/>
      <point x="381" y="21"/>
      <point x="421" y="61" type="curve"/>
      <point x="429" y="2" smooth="yes"/>
      <point x="464" y="-15" smooth="yes"/>
      <point x="510" y="-15" type="curve" smooth="yes"/>
      <point x="540" y="-15"/>
      <point x="566" y="-5"/>
      <point x="587" y="5" type="curve"/>
      <point x="571" y="67" type="line"/>
      <point x="561" y="62" smooth="yes"/>
      <point x="548" y="58" smooth="yes"/>
      <point x="537" y="58" type="curve" smooth="yes"/>
      <point x="522" y="58" smooth="yes"/>
      <point x="511" y="64" smooth="yes"/>
      <point x="511" y="85" type="curve" smooth="yes"/>
      <point x="511" y="530" type="line"/>
      <point x="415" y="530" type="line"/>
      <point x="415" y="122" type="line"/>
      <point x="375" y="86" smooth="yes"/>
      <point x="327" y="63" smooth="yes"/>
      <point x="269" y="63" type="curve" smooth="yes"/>
      <point x="210" y="63" smooth="yes"/>
      <point x="186" y="99" smooth="yes"/>
      <point x="186" y="170" type="curve" smooth="yes"/>
      <point x="186" y="530" type="line"/>
      <point x="90" y="530" type="line"/>
    </contour>
  </outline>
</glyph>
<glyph name="paragraph" format="1">
  <advance width="531"/>
  <unicode hex="00B6"/>
  <outline>
    <contour>
      <point x="431" y="75" type="line" smooth="yes" name="hr00"/>
      <point x="431" y="-23"/>
      <point x="386" y="-117"/>
      <point x="256" y="-132" type="curve"/>
      <point x="246" y="-55" type="line"/>
      <point x="299" y="-50" smooth="yes"/>
      <point x="335" y="-13" smooth="yes"/>
      <point x="335" y="75" type="curve" smooth="yes"/>
      <point x="335" y="261" type="line"/>
      <point x="279" y="261" type="line" smooth="yes"/>
      <point x="119" y="261" smooth="yes"/>
      <point x="40" y="352" smooth="yes"/>
      <point x="40" y="480" type="curve" smooth="yes"/>
      <point x="40" y="606" smooth="yes"/>
      <point x="119" y="700" smooth="yes"/>
      <point x="279" y="700" type="curve" smooth="yes"/>
      <point x="431" y="700" type="line"/>
    </contour>
    <contour>
      <point x="279" y="331" type="line"/>
      <point x="335" y="331" type="line"/>
      <point x="335" y="630" type="line"/>
      <point x="279" y="630" type="line"/>
    </contour>
  </outline>
</glyph>
<glyph name="cedilla" format="1">
  <advance width="528"/>
  <unicode hex="00B8"/>
  <outline>
    <contour>
      <point x="145" y="-169" type="line" name="hr00"/>
      <point x="172" y="-188" smooth="yes"/>
      <point x="212" y="-210" smooth="yes"/>
      <point x="260" y="-210" type="curve" smooth="yes"/>
      <point x="337" y="-210" smooth="yes"/>
      <point x="381" y="-158" smooth="yes"/>
      <point x="381" y="-101" type="curve" smooth="yes"/>
      <point x="381" y="-48"/>
      <point x="341" y="0"/>
      <point x="259" y="27" type="curve"/>
      <point x="243" y="-6" type="line"/>
      <point x="282" y="-26" smooth="yes"/>
      <point x="299" y="-58" smooth="yes"/>
      <point x="299" y="-85" type="curve" smooth="yes"/>
      <point x="299" y="-124" smooth="yes"/>
      <point x="273" y="-139" smooth="yes"/>
      <point x="243" y="-139" type="curve" smooth="yes"/>
      <point x="219" y="-139"/>
      <point x="193" y="-130"/>
      <point x="173" y="-116" type="curve"/>
    </contour>
  </outline>
</glyph>
<glyph name="ordmasculine" format="1">
  <advance width="428"/>
  <unicode hex="00BA"/>
  <outline>
    <contour>
      <point x="65" y="543" type="curve" smooth="yes" name="hr00"/>
      <point x="65" y="430" smooth="yes"/>
      <point x="129" y="372" smooth="yes"/>
      <point x="214" y="372" type="curve" smooth="yes"/>
      <point x="298" y="372" smooth="yes"/>
      <point x="363" y="430" smooth="yes"/>
      <point x="363" y="543" type="curve" smooth="yes"/>
      <point x="363" y="657" smooth="yes"/>
      <point x="298" y="715" smooth="yes"/>
      <point x="214" y="715" type="curve" smooth="yes"/>
      <point x="129" y="715" smooth="yes"/>
      <point x="65" y="657" smooth="yes"/>
    </contour>
    <contour>
      <point x="135" y="543" type="curve" smooth="yes"/>
      <point x="135" y="620" smooth="yes"/>
      <point x="167" y="657" smooth="yes"/>
      <point x="214" y="657" type="curve" smooth="yes"/>
      <point x="259" y="657" smooth="yes"/>
      <point x="292" y="620" smooth="yes"/>
      <point x="292" y="543" type="curve" smooth="yes"/>
      <point x="292" y="467" smooth="yes"/>
      <point x="259" y="430" smooth="yes"/>
      <point x="214" y="430" type="curve" smooth="yes"/>
      <point x="167" y="430" smooth="yes"/>
      <point x="135" y="467" smooth="yes"/>
    </contour>
  </outline>
</glyph>
<glyph name="AE" format="1">
  <advance width="860"/>
  <unicode hex="00C6"/>
  <outline>
    <contour>
      <point x="795" y="700" type="line" name="hr00"/>
      <point x="335" y="700" type="line"/>
      <point x="5" y="0" type="line"/>
      <point x="104" y="0" type="line"/>
      <point x="236" y="281" type="line"/>
      <point x="405" y="281" type="line"/>
      <point x="405" y="0" type="line"/>
      <point x="795" y="0" type="line"/>
      <point x="795" y="78" type="line"/>
      <point x="501" y="78" type="line"/>
      <point x="501" y="281" type="line"/>
      <point x="765" y="281" type="line"/>
      <point x="765" y="359" type="line"/>
      <point x="501" y="359" type="line"/>
      <point x="501" y="622" type="line"/>
      <point x="795" y="622" type="line"/>
    </contour>
    <contour>
      <point x="397" y="622" type="line"/>
      <point x="405" y="622" type="line"/>
      <point x="405" y="359" type="line"/>
      <point x="273" y="359" type="line"/>
    </contour>
  </outline>
</glyph>
<glyph name="multiply" format="1">
  <advance width="542"/>
  <unicode hex="00D7"/>
  <outline>
    <contour>
      <point x="143" y="145" type="line" name="hr00"/>
      <point x="271" y="273" type="line"/>
      <point x="399" y="145" type="line"/>
      <point x="456" y="202" type="line"/>
      <point x="328" y="330" type="line"/>
      <point x="456" y="458" type="line"/>
      <point x="399" y="515" type="line"/>
      <point x="271" y="387" type="line"/>
      <point x="143" y="515" type="line"/>
      <point x="86" y="458" type="line"/>
      <point x="214" y="330" type="line"/>
      <point x="86" y="202" type="line"/>
    </contour>
  </outline>
</glyph>
<glyph name="Thorn" format="1">
  <advance width="571"/>
  <unicode hex="00DE"/>
  <outline>
    <contour>
      <point x="196" y="700" type="line" name="hr00"/>
      <point x="100" y="700" type="line"/>
      <point x="100" y="0" type="line"/>
      <point x="196" y="0" type="line"/>
      <point x="196" y="130" type="line"/>
      <point x="302" y="130" type="line" smooth="yes"/>
      <point x="462" y="130" smooth="yes"/>
      <point x="541" y="221" smooth="yes"/>
      <point x="541" y="349" type="curve" smooth="yes"/>
      <point x="541" y="475" smooth="yes"/>
      <point x="462" y="570" smooth="yes"/>
      <point x="302" y="570" type="curve" smooth="yes"/>
      <point x="196" y="570" type="line"/>
    </contour>
    <contour>
      <point x="302" y="492" type="line" smooth="yes"/>
      <point x="416" y="492" smooth="yes"/>
      <point x="448" y="417" smooth="yes"/>
      <point x="448" y="349" type="curve" smooth="yes"/>
      <point x="448" y="281" smooth="yes"/>
      <point x="416" y="208" smooth="yes"/>
      <point x="302" y="208" type="curve" smooth="yes"/>
      <point x="196" y="208" type="line"/>
      <point x="196" y="492" type="line"/>
    </contour>
  </outline>
</glyph>
<glyph name="germandbls" format="1">
  <advance width="664"/>
  <unicode hex="00DF"/>
  <outline>
    <contour>
      <point x="55" y="460" type="line"/>
      <point x="131" y="460" type="line"/>
      <point x="131" y="0" type="line"/>
      <point x="227" y="0" type="line"/>
      <point x="227" y="559" type="line" smooth="yes"/>
      <point x="227" y="661" smooth="yes"/>
      <point x="278" y="687" smooth="yes"/>
      <point x="336" y="687" type="curve" smooth="yes"/>
      <point x="399" y="687" smooth="yes"/>
      <point x="444" y="644" smooth="yes"/>
      <point x="444" y="587" type="curve" smooth="yes"/>
      <point x="444" y="484" smooth="yes"/>
      <point x="306" y="485" smooth="yes"/>
      <point x="306" y="378" type="curve" smooth="yes"/>
      <point x="306" y="239" smooth="yes"/>
      <point x="534" y="309" smooth="yes"/>
      <point x="534" y="155" type="curve" smooth="yes" name="hr01"/>
      <point x="534" y="101" smooth="yes"/>
      <point x="490" y="63" smooth="yes"/>
      <point x="437" y="63" type="curve" smooth="yes"/>
      <point x="373" y="63"/>
      <point x="349" y="100"/>
      <point x="339" y="146" type="curve"/>
      <point x="257" y="118" type="line"/>
      <point x="279" y="23" smooth="yes"/>
      <point x="342" y="-15" smooth="yes"/>
      <point x="439" y="-15" type="curve" smooth="yes"/>
      <point x="570" y="-15" smooth="yes"/>
      <point x="634" y="82" smooth="yes"/>
      <point x="634" y="163" type="curve" smooth="yes"/>
      <point x="634" y="366" smooth="yes"/>
      <point x="396" y="339" smooth="yes"/>
      <point x="396" y="385" type="curve" smooth="yes"/>
      <point x="396" y="431" smooth="yes"/>
      <point x="539" y="460" smooth="yes"/>
      <point x="539" y="591" type="curve" smooth="yes" name="hr02"/>
      <point x="539" y="674" smooth="yes"/>
      <point x="493" y="765" smooth="yes"/>
      <point x="329" y="765" type="curve" smooth="yes"/>
      <point x="187" y="765" smooth="yes"/>
      <point x="131" y="666" smooth="yes"/>
      <point x="131" y="541" type="curve" smooth="yes"/>
      <point x="131" y="530" type="line"/>
      <point x="55" y="530" type="line"/>
    </contour>
  </outline>
</glyph>
<glyph name="ae" format="1">
  <advance width="891"/>
  <unicode hex="00E6"/>
  <outline>
    <contour>
      <point x="618" y="63" type="curve" smooth="yes" name="hr00"/>
      <point x="538" y="63"/>
      <point x="475" y="119"/>
      <point x="467" y="237" type="curve"/>
      <point x="821" y="237" type="line"/>
      <point x="821" y="307" type="line" smooth="yes"/>
      <point x="821" y="467" smooth="yes"/>
      <point x="734" y="545" smooth="yes"/>
      <point x="608" y="545" type="curve" smooth="yes"/>
      <point x="538" y="545"/>
      <point x="477" y="519"/>
      <point x="434" y="469" type="curve"/>
      <point x="403" y="522" smooth="yes"/>
      <point x="350" y="545" smooth="yes"/>
      <point x="268" y="545" type="curve" smooth="yes"/>
      <point x="174" y="545"/>
      <point x="105" y="507"/>
      <point x="76" y="412" type="curve"/>
      <point x="159" y="384" type="line"/>
      <point x="175" y="438" smooth="yes"/>
      <point x="213" y="467" smooth="yes"/>
      <point x="268" y="467" type="curve" smooth="yes"/>
      <point x="328" y="467" smooth="yes"/>
      <point x="370" y="429" smooth="yes"/>
      <point x="370" y="356" type="curve" smooth="yes"/>
      <point x="370" y="307" type="line"/>
      <point x="258" y="307" type="line" smooth="yes"/>
      <point x="128" y="307" smooth="yes"/>
      <point x="55" y="244" smooth="yes"/>
      <point x="55" y="135" type="curve" smooth="yes"/>
      <point x="55" y="27" smooth="yes"/>
      <point x="126" y="-15" smooth="yes"/>
      <point x="208" y="-15" type="curve" smooth="yes"/>
      <point x="287" y="-15"/>
      <point x="369" y="26"/>
      <point x="418" y="82" type="curve"/>
      <point x="462" y="18" smooth="yes"/>
      <point x="531" y="-15" smooth="yes"/>
      <point x="615" y="-15" type="curve" smooth="yes"/>
      <point x="700" y="-15"/>
      <point x="769" y="25"/>
      <point x="810" y="72" type="curve"/>
      <point x="767" y="124" type="line"/>
      <point x="737" y="95" smooth="yes"/>
      <point x="686" y="63" smooth="yes"/>
    </contour>
    <contour>
      <point x="468" y="307" type="line"/>
      <point x="480" y="415" smooth="yes"/>
      <point x="537" y="467" smooth="yes"/>
      <point x="609" y="467" type="curve" smooth="yes"/>
      <point x="683" y="467"/>
      <point x="726" y="409"/>
      <point x="726" y="307" type="curve"/>
    </contour>
    <contour>
      <point x="227" y="63" type="curve" smooth="yes"/>
      <point x="182" y="63" smooth="yes"/>
      <point x="151" y="99" smooth="yes"/>
      <point x="151" y="143" type="curve" smooth="yes"/>
      <point x="151" y="219" smooth="yes"/>
      <point x="212" y="237" smooth="yes"/>
      <point x="278" y="237" type="curve" smooth="yes"/>
      <point x="371" y="237" type="line"/>
      <point x="373" y="203"/>
      <point x="378" y="172"/>
      <point x="387" y="145" type="curve"/>
      <point x="342" y="96" smooth="yes"/>
      <point x="283" y="63" smooth="yes"/>
    </contour>
  </outline>
</glyph>
<glyph name="eth" format="1">
  <advance width="649"/>
  <unicode hex="00F0"/>
  <outline>
    <contour>
      <point x="192" y="669" type="line" name="hr00"/>
      <point x="225" y="682" smooth="yes"/>
      <point x="254" y="688" smooth="yes"/>
      <point x="280" y="688" type="curve" smooth="yes"/>
      <point x="407" y="688"/>
      <point x="460" y="525"/>
      <point x="460" y="435" type="curve"/>
      <point x="431" y="471" smooth="yes"/>
      <point x="380" y="495" smooth="yes"/>
      <point x="318" y="495" type="curve" smooth="yes"/>
      <point x="181" y="495" smooth="yes"/>
      <point x="77" y="408" smooth="yes"/>
      <point x="77" y="240" type="curve" smooth="yes"/>
      <point x="77" y="72" smooth="yes"/>
      <point x="181" y="-15" smooth="yes"/>
      <point x="318" y="-15" type="curve" smooth="yes"/>
      <point x="455" y="-15" smooth="yes"/>
      <point x="560" y="64" smooth="yes"/>
      <point x="560" y="311" type="curve" smooth="yes"/>
      <point x="560" y="610" smooth="yes"/>
      <point x="443" y="765" smooth="yes"/>
      <point x="293" y="765" type="curve" smooth="yes"/>
      <point x="243" y="765"/>
      <point x="201" y="755"/>
      <point x="168" y="731" type="curve"/>
    </contour>
    <contour>
      <point x="177" y="240" type="curve" smooth="yes"/>
      <point x="177" y="348" smooth="yes"/>
      <point x="212" y="417" smooth="yes"/>
      <point x="318" y="417" type="curve" smooth="yes"/>
      <point x="424" y="417" smooth="yes"/>
      <point x="460" y="348" smooth="yes"/>
      <point x="460" y="240" type="curve" smooth="yes"/>
      <point x="460" y="132" smooth="yes"/>
      <point x="424" y="63" smooth="yes"/>
      <point x="318" y="63" type="curve" smooth="yes"/>
      <point x="212" y="63" smooth="yes"/>
      <point x="177" y="132" smooth="yes"/>
    </contour>
    <component  base="eslash" xOffset="256" yOffset="202"/>
  </outline>
</glyph>
<glyph name="thorn" format="1">
  <advance width="625"/>
  <unicode hex="00FE"/>
  <outline>
    <contour>
      <point x="352" y="545" type="curve" smooth="yes" name="hr00"/>
      <point x="284" y="545"/>
      <point x="233" y="514"/>
      <point x="196" y="478" type="curve"/>
      <point x="196" y="750" type="line"/>
      <point x="100" y="750" type="line"/>
      <point x="100" y="-221" type="line"/>
      <point x="196" y="-221" type="line"/>
      <point x="196" y="26" type="line"/>
      <point x="232" y="1" smooth="yes"/>
      <point x="276" y="-15" smooth="yes"/>
      <point x="325" y="-15" type="curve" smooth="yes"/>
      <point x="454" y="-15" smooth="yes"/>
      <point x="555" y="80" smooth="yes"/>
      <point x="555" y="265" type="curve" smooth="yes"/>
      <point x="555" y="450" smooth="yes"/>
      <point x="474" y="545" smooth="yes"/>
    </contour>
    <contour>
      <point x="331" y="467" type="curve" smooth="yes"/>
      <point x="404" y="467" smooth="yes"/>
      <point x="455" y="402" smooth="yes"/>
      <point x="455" y="265" type="curve" smooth="yes"/>
      <point x="455" y="128" smooth="yes"/>
      <point x="399" y="63" smooth="yes"/>
      <point x="321" y="63" type="curve" smooth="yes"/>
      <point x="271" y="63"/>
      <point x="226" y="81"/>
      <point x="196" y="105" type="curve"/>
      <point x="196" y="408" type="line"/>
      <point x="233" y="444" smooth="yes"/>
      <point x="278" y="467" smooth="yes"/>
    </contour>
  </outline>
</glyph>
<glyph name="dotlessi" format="1">
  <advance width="296"/>
  <unicode hex="0131"/>
  <outline>
    <contour>
      <point x="196" y="530" type="line" name="hr00"/>
      <point x="100" y="530" type="line"/>
      <point x="100" y="0" type="line"/>
      <point x="196" y="0" type="line"/>
    </contour>
  </outline>
</glyph>
<glyph name="kgreenlandic" format="1">
  <advance width="542"/>
  <unicode hex="0138"/>
  <outline>
    <contour>
      <point x="196" y="530" type="line" name="hr00"/>
      <point x="100" y="530" type="line"/>
      <point x="100" y="0" type="line"/>
      <point x="196" y="0" type="line"/>
      <point x="196" y="190" type="line"/>
      <point x="239" y="238" type="line"/>
      <point x="417" y="0" type="line"/>
      <point x="522" y="0" type="line"/>
      <point x="294" y="300" type="line"/>
      <point x="502" y="530" type="line"/>
      <point x="397" y="530" type="line"/>
      <point x="196" y="305" type="line"/>
    </contour>
  </outline>
</glyph>
<glyph name="Eng" format="1">
  <advance width="696"/>
  <unicode hex="014A"/>
  <outline>
    <contour>
      <point x="596" y="700" type="line" name="hr00"/>
      <point x="500" y="700" type="line"/>
      <point x="500" y="198" type="line"/>
      <point x="236" y="700" type="line"/>
      <point x="100" y="700" type="line"/>
      <point x="100" y="0" type="line"/>
      <point x="196" y="0" type="line"/>
      <point x="196" y="577" type="line"/>
      <point x="500" y="2" type="line"/>
      <point x="500" y="-55" type="line" smooth="yes"/>
      <point x="500" y="-128" smooth="yes"/>
      <point x="468" y="-156" smooth="yes"/>
      <point x="422" y="-156" type="curve" smooth="yes"/>
      <point x="380" y="-156"/>
      <point x="351" y="-127"/>
      <point x="339" y="-73" type="curve"/>
      <point x="256" y="-101" type="line"/>
      <point x="285" y="-196" smooth="yes"/>
      <point x="344" y="-234" smooth="yes"/>
      <point x="422" y="-234" type="curve" smooth="yes"/>
      <point x="539" y="-234" smooth="yes"/>
      <point x="596" y="-177" smooth="yes"/>
      <point x="596" y="-20" type="curve" smooth="yes"/>
    </contour>
  </outline>
</glyph>
<glyph name="eng" format="1">
  <advance width="616"/>
  <unicode hex="014B"/>
  <outline>
    <contour>
      <point x="100" y="530" type="line"/>
      <point x="100" y="0" type="line"/>
      <point x="196" y="0" type="line"/>
      <point x="196" y="407" type="line"/>
      <point x="236" y="444" smooth="yes"/>
      <point x="282" y="467" smooth="yes"/>
      <point x="329" y="467" type="curve" smooth="yes" name="hr01"/>
      <point x="398" y="467" smooth="yes"/>
      <point x="430" y="430" smooth="yes"/>
      <point x="430" y="356" type="curve" smooth="yes"/>
      <point x="430" y="-71" type="line" smooth="yes"/>
      <point x="430" y="-131" smooth="yes"/>
      <point x="412" y="-157" smooth="yes"/>
      <point x="379" y="-157" type="curve" smooth="yes"/>
      <point x="350" y="-157"/>
      <point x="336" y="-139"/>
      <point x="326" y="-107" type="curve"/>
      <point x="246" y="-134" type="line"/>
      <point x="272" y="-212" smooth="yes"/>
      <point x="314" y="-235" smooth="yes"/>
      <point x="374" y="-235" type="curve" smooth="yes"/>
      <point x="470" y="-235" smooth="yes"/>
      <point x="526" y="-186" smooth="yes"/>
      <point x="526" y="-61" type="curve" smooth="yes"/>
      <point x="526" y="346" type="line" smooth="yes"/>
      <point x="526" y="490" smooth="yes"/>
      <point x="478" y="545" smooth="yes"/>
      <point x="353" y="545" type="curve" smooth="yes"/>
      <point x="284" y="545"/>
      <point x="227" y="507"/>
      <point x="186" y="466" type="curve"/>
      <point x="181" y="530" type="line" name="hr02"/>
    </contour>
  </outline>
</glyph>
<glyph name="OE" format="1">
  <advance width="906"/>
  <unicode hex="0152"/>
  <outline>
    <contour>
      <point x="488" y="78" type="line" name="hr00"/>
      <point x="365" y="78" type="line" smooth="yes"/>
      <point x="252" y="78" smooth="yes"/>
      <point x="170" y="166" smooth="yes"/>
      <point x="170" y="351" type="curve" smooth="yes"/>
      <point x="170" y="536" smooth="yes"/>
      <point x="251" y="622" smooth="yes"/>
      <point x="362" y="622" type="curve" smooth="yes"/>
      <point x="488" y="622" type="line"/>
      <point x="488" y="700" type="line"/>
      <point x="359" y="700" type="line" smooth="yes"/>
      <point x="195" y="700" smooth="yes"/>
      <point x="70" y="582" smooth="yes"/>
      <point x="70" y="351" type="curve" smooth="yes"/>
      <point x="70" y="120" smooth="yes"/>
      <point x="192" y="0" smooth="yes"/>
      <point x="361" y="0" type="curve" smooth="yes"/>
      <point x="488" y="0" type="line"/>
    </contour>
    <component  base="E" xOffset="351"/>
  </outline>
</glyph>
<glyph name="florin" format="1">
  <advance width="566"/>
  <unicode hex="0192"/>
  <outline>
    <contour>
      <point x="136" y="-232" type="line" name="hr00"/>
      <point x="266" y="-217" smooth="yes"/>
      <point x="310" y="-123" smooth="yes"/>
      <point x="310" y="-25" type="curve" smooth="yes"/>
      <point x="310" y="460" type="line" smooth="yes"/>
      <point x="310" y="551" smooth="yes"/>
      <point x="343" y="591" smooth="yes"/>
      <point x="397" y="591" type="curve" smooth="yes"/>
      <point x="421" y="591"/>
      <point x="469" y="581"/>
      <point x="493" y="563" type="curve"/>
      <point x="530" y="639" type="line"/>
      <point x="491" y="663" smooth="yes"/>
      <point x="441" y="675" smooth="yes"/>
      <point x="394" y="675" type="curve" smooth="yes"/>
      <point x="286" y="675" smooth="yes"/>
      <point x="214" y="593" smooth="yes"/>
      <point x="214" y="466" type="curve" smooth="yes"/>
      <point x="214" y="-25" type="line" smooth="yes"/>
      <point x="214" y="-113"/>
      <point x="179" y="-150"/>
      <point x="126" y="-155" type="curve"/>
    </contour>
    <component  base="barra" xOffset="38"/>
  </outline>
</glyph>
<glyph name="dotlessj" format="1">
  <advance width="296"/>
  <unicode hex="0237"/>
  <outline>
    <contour>
      <point x="196" y="530" type="line" name="hr00"/>
      <point x="100" y="530" type="line"/>
      <point x="100" y="-71" type="line" smooth="yes"/>
      <point x="100" y="-131" smooth="yes"/>
      <point x="82" y="-157" smooth="yes"/>
      <point x="49" y="-157" type="curve" smooth="yes"/>
      <point x="20" y="-157"/>
      <point x="6" y="-139"/>
      <point x="-4" y="-107" type="curve"/>
      <point x="-84" y="-134" type="line"/>
      <point x="-58" y="-212" smooth="yes"/>
      <point x="-16" y="-235" smooth="yes"/>
      <point x="44" y="-235" type="curve" smooth="yes"/>
      <point x="140" y="-235" smooth="yes"/>
      <point x="196" y="-186" smooth="yes"/>
      <point x="196" y="-61" type="curve" smooth="yes"/>
    </contour>
  </outline>
</glyph>
<glyph name="circumflex" format="1">
  <advance width="436"/>
  <unicode hex="02C6"/>
  <outline>
    <contour>
      <point x="231" y="790" type="line" name="hr00"/>
      <point x="205" y="790" type="line"/>
      <point x="54" y="658" type="line"/>
      <point x="91" y="607" type="line"/>
      <point x="218" y="696" type="line"/>
      <point x="345" y="607" type="line"/>
      <point x="382" y="658" type="line"/>
    </contour>
  </outline>
</glyph>
<glyph name="caron" format="1">
  <advance width="436"/>
  <unicode hex="02C7"/>
  <outline>
    <contour>
      <point x="205" y="604" type="line" name="hr00"/>
      <point x="231" y="604" type="line"/>
      <point x="382" y="736" type="line"/>
      <point x="345" y="787" type="line"/>
      <point x="218" y="698" type="line"/>
      <point x="91" y="787" type="line"/>
      <point x="54" y="736" type="line"/>
    </contour>
  </outline>
</glyph>
<glyph name="breve" format="1">
  <advance width="436"/>
  <unicode hex="02D8"/>
  <outline>
    <contour>
      <point x="320" y="780" type="line" name="hr00"/>
      <point x="299" y="749" smooth="yes"/>
      <point x="272" y="693" smooth="yes"/>
      <point x="221" y="693" type="curve" smooth="yes"/>
      <point x="168" y="693"/>
      <point x="142" y="744"/>
      <point x="116" y="780" type="curve"/>
      <point x="59" y="753" type="line"/>
      <point x="94" y="678" smooth="yes"/>
      <point x="144" y="609" smooth="yes"/>
      <point x="217" y="609" type="curve" smooth="yes"/>
      <point x="292" y="609"/>
      <point x="342" y="679"/>
      <point x="377" y="753" type="curve"/>
    </contour>
  </outline>
</glyph>
<glyph name="ring" format="1">
  <advance width="296"/>
  <unicode hex="02DA"/>
  <outline>
    <contour>
      <point x="38" y="697" type="curve" name="hr00"/>
      <point x="38" y="620" smooth="yes"/>
      <point x="85" y="584" smooth="yes"/>
      <point x="148" y="584" type="curve" smooth="yes"/>
      <point x="212" y="584" smooth="yes"/>
      <point x="259" y="620" smooth="yes"/>
      <point x="259" y="697" type="curve" smooth="yes"/>
      <point x="259" y="774" smooth="yes"/>
      <point x="212" y="810" smooth="yes"/>
      <point x="148" y="810" type="curve" smooth="yes"/>
      <point x="85" y="810" smooth="yes"/>
      <point x="38" y="774" smooth="yes"/>
    </contour>
    <contour>
      <point x="96" y="697" type="curve" smooth="yes"/>
      <point x="96" y="734" smooth="yes"/>
      <point x="118" y="751" smooth="yes"/>
      <point x="148" y="751" type="curve" smooth="yes"/>
      <point x="179" y="751" smooth="yes"/>
      <point x="201" y="734" smooth="yes"/>
      <point x="201" y="697" type="curve" smooth="yes"/>
      <point x="201" y="660" smooth="yes"/>
      <point x="179" y="643" smooth="yes"/>
      <point x="148" y="643" type="curve" smooth="yes"/>
      <point x="118" y="643" smooth="yes"/>
      <point x="96" y="660" smooth="yes"/>
    </contour>
  </outline>
</glyph>
<glyph name="ogonek" format="1">
  <advance width="349"/>
  <unicode hex="02DB"/>
  <outline>
    <contour>
      <point x="258" y="-110" type="line" name="hr00"/>
      <point x="238" y="-124" smooth="yes"/>
      <point x="212" y="-133" smooth="yes"/>
      <point x="188" y="-133" type="curve" smooth="yes"/>
      <point x="158" y="-133" smooth="yes"/>
      <point x="132" y="-118" smooth="yes"/>
      <point x="132" y="-79" type="curve" smooth="yes"/>
      <point x="132" y="-52"/>
      <point x="149" y="-20"/>
      <point x="188" y="0" type="curve"/>
      <point x="172" y="33" type="line"/>
      <point x="90" y="6" smooth="yes"/>
      <point x="50" y="-42" smooth="yes"/>
      <point x="50" y="-95" type="curve" smooth="yes"/>
      <point x="50" y="-152" smooth="yes"/>
      <point x="94" y="-204" smooth="yes"/>
      <point x="171" y="-204" type="curve" smooth="yes"/>
      <point x="219" y="-204"/>
      <point x="259" y="-182"/>
      <point x="286" y="-163" type="curve"/>
    </contour>
  </outline>
</glyph>
<glyph name="tilde" format="1">
  <advance width="555"/>
  <unicode hex="02DC"/>
  <outline>
    <contour>
      <point x="393" y="749" type="line"/>
      <point x="380" y="726" smooth="yes"/>
      <point x="364" y="720" smooth="yes"/>
      <point x="345" y="720" type="curve" smooth="yes"/>
      <point x="294" y="720" smooth="yes"/>
      <point x="263" y="754" smooth="yes"/>
      <point x="209" y="754" type="curve" smooth="yes" name="hr01"/>
      <point x="173" y="754"/>
      <point x="130" y="730"/>
      <point x="105" y="672" type="curve"/>
      <point x="162" y="644" type="line"/>
      <point x="174" y="667" smooth="yes"/>
      <point x="190" y="673" smooth="yes"/>
      <point x="209" y="673" type="curve" smooth="yes"/>
      <point x="260" y="673" smooth="yes"/>
      <point x="292" y="639" smooth="yes"/>
      <point x="345" y="639" type="curve" smooth="yes" name="hr02"/>
      <point x="382" y="639"/>
      <point x="425" y="663"/>
      <point x="450" y="721" type="curve"/>
    </contour>
  </outline>
</glyph>
<glyph name="pi" format="1">
  <advance width="627"/>
  <unicode hex="03C0"/>
  <outline>
    <contour>
      <point x="61" y="455" type="line"/>
      <point x="134" y="455" type="line"/>
      <point x="100" y="0" type="line"/>
      <point x="193" y="0" type="line"/>
      <point x="227" y="455" type="line"/>
      <point x="400" y="455" type="line"/>
      <point x="400" y="88" type="line" smooth="yes"/>
      <point x="400" y="7" smooth="yes"/>
      <point x="443" y="-15" smooth="yes"/>
      <point x="495" y="-15" type="curve" smooth="yes" name="hr01"/>
      <point x="525" y="-15"/>
      <point x="551" y="-5"/>
      <point x="572" y="5" type="curve"/>
      <point x="556" y="67" type="line"/>
      <point x="546" y="62" smooth="yes"/>
      <point x="531" y="58" smooth="yes"/>
      <point x="520" y="58" type="curve" smooth="yes"/>
      <point x="505" y="58" smooth="yes"/>
      <point x="496" y="64" smooth="yes"/>
      <point x="496" y="85" type="curve" smooth="yes"/>
      <point x="496" y="455" type="line"/>
      <point x="566" y="455" type="line"/>
      <point x="566" y="530" type="line"/>
      <point x="61" y="530" type="line"/>
    </contour>
  </outline>
</glyph>
<glyph name="endash" format="1">
  <advance width="696"/>
  <unicode hex="2013"/>
  <outline>
    <contour>
      <point x="55" y="266" type="line" name="hr00"/>
      <point x="641" y="266" type="line"/>
      <point x="641" y="336" type="line"/>
      <point x="55" y="336" type="line"/>
    </contour>
  </outline>
</glyph>
<glyph name="emdash" format="1">
  <advance width="818"/>
  <unicode hex="2014"/>
  <outline>
    <contour>
      <point x="55" y="266" type="line" name="hr00"/>
      <point x="763" y="266" type="line"/>
      <point x="763" y="336" type="line"/>
      <point x="55" y="336" type="line"/>
    </contour>
  </outline>
</glyph>
<glyph name="quoteleft" format="1">
  <advance width="236"/>
  <unicode hex="2018"/>
  <outline>
    <contour>
      <point x="151" y="679" type="curve" smooth="yes" name="hr00"/>
      <point x="151" y="711"/>
      <point x="168" y="747"/>
      <point x="186" y="774" type="curve"/>
      <point x="141" y="804" type="line"/>
      <point x="95" y="751" smooth="yes"/>
      <point x="50" y="653" smooth="yes"/>
      <point x="50" y="583" type="curve" smooth="yes"/>
      <point x="50" y="536" smooth="yes"/>
      <point x="78" y="515" smooth="yes"/>
      <point x="117" y="515" type="curve" smooth="yes"/>
      <point x="155" y="515" smooth="yes"/>
      <point x="183" y="536" smooth="yes"/>
      <point x="183" y="583" type="curve" smooth="yes"/>
      <point x="183" y="628" smooth="yes"/>
      <point x="151" y="635" smooth="yes"/>
    </contour>
  </outline>
</glyph>
<glyph name="quotedblleft" format="1">
  <advance width="436"/>
  <unicode hex="201C"/>
  <outline>
    <contour>
      <point x="151" y="679" type="curve" smooth="yes" name="hr00"/>
      <point x="151" y="711"/>
      <point x="168" y="747"/>
      <point x="186" y="774" type="curve"/>
      <point x="141" y="804" type="line"/>
      <point x="95" y="751" smooth="yes"/>
      <point x="50" y="653" smooth="yes"/>
      <point x="50" y="583" type="curve" smooth="yes"/>
      <point x="50" y="536" smooth="yes"/>
      <point x="78" y="515" smooth="yes"/>
      <point x="117" y="515" type="curve" smooth="yes"/>
      <point x="155" y="515" smooth="yes"/>
      <point x="183" y="536" smooth="yes"/>
      <point x="183" y="583" type="curve" smooth="yes"/>
      <point x="183" y="628" smooth="yes"/>
      <point x="151" y="635" smooth="yes"/>
    </contour>
    <contour>
      <point x="351" y="679" type="curve" smooth="yes"/>
      <point x="351" y="711"/>
      <point x="368" y="747"/>
      <point x="386" y="774" type="curve"/>
      <point x="341" y="804" type="line"/>
      <point x="295" y="751" smooth="yes"/>
      <point x="250" y="653" smooth="yes"/>
      <point x="250" y="583" type="curve" smooth="yes"/>
      <point x="250" y="536" smooth="yes"/>
      <point x="278" y="515" smooth="yes"/>
      <point x="317" y="515" type="curve" smooth="yes"/>
      <point x="355" y="515" smooth="yes"/>
      <point x="383" y="536" smooth="yes"/>
      <point x="383" y="583" type="curve" smooth="yes"/>
      <point x="383" y="628" smooth="yes"/>
      <point x="351" y="635" smooth="yes"/>
    </contour>
  </outline>
</glyph>
<glyph name="dagger" format="1">
  <advance width="476"/>
  <unicode hex="2020"/>
  <outline>
    <contour>
      <point x="38" y="606" type="line" name="hr00"/>
      <point x="38" y="530" type="line"/>
      <point x="190" y="530" type="line"/>
      <point x="190" y="0" type="line"/>
      <point x="286" y="0" type="line"/>
      <point x="286" y="530" type="line"/>
      <point x="438" y="530" type="line"/>
      <point x="438" y="606" type="line"/>
      <point x="286" y="606" type="line"/>
      <point x="286" y="750" type="line"/>
      <point x="190" y="750" type="line"/>
      <point x="190" y="606" type="line"/>
    </contour>
  </outline>
</glyph>
<glyph name="daggerdbl" format="1">
  <advance width="476"/>
  <unicode hex="2021"/>
  <outline>
    <contour>
      <point x="38" y="606" type="line" name="hr00"/>
      <point x="38" y="530" type="line"/>
      <point x="190" y="530" type="line"/>
      <point x="190" y="220" type="line"/>
      <point x="38" y="220" type="line"/>
      <point x="38" y="144" type="line"/>
      <point x="190" y="144" type="line"/>
      <point x="190" y="0" type="line"/>
      <point x="286" y="0" type="line"/>
      <point x="286" y="144" type="line"/>
      <point x="438" y="144" type="line"/>
      <point x="438" y="220" type="line"/>
      <point x="286" y="220" type="line"/>
      <point x="286" y="530" type="line"/>
      <point x="438" y="530" type="line"/>
      <point x="438" y="606" type="line"/>
      <point x="286" y="606" type="line"/>
      <point x="286" y="750" type="line"/>
      <point x="190" y="750" type="line"/>
      <point x="190" y="606" type="line"/>
    </contour>
  </outline>
</glyph>
<glyph name="bullet" format="1">
  <advance width="387"/>
  <unicode hex="2022"/>
  <outline>
    <contour>
      <point x="100" y="301" type="curve" smooth="yes" name="hr00"/>
      <point x="100" y="235" smooth="yes"/>
      <point x="140" y="206" smooth="yes"/>
      <point x="193" y="206" type="curve" smooth="yes"/>
      <point x="247" y="206" smooth="yes"/>
      <point x="287" y="235" smooth="yes"/>
      <point x="287" y="301" type="curve" smooth="yes"/>
      <point x="287" y="367" smooth="yes"/>
      <point x="247" y="396" smooth="yes"/>
      <point x="193" y="396" type="curve" smooth="yes"/>
      <point x="140" y="396" smooth="yes"/>
      <point x="100" y="367" smooth="yes"/>
    </contour>
  </outline>
</glyph>
<glyph name="ellipsis" format="1">
  <advance width="699"/>
  <unicode hex="2026"/>
  <outline>
    <contour>
      <point x="50" y="53" type="curve" smooth="yes" name="hr00"/>
      <point x="50" y="6" smooth="yes"/>
      <point x="78" y="-15" smooth="yes"/>
      <point x="116" y="-15" type="curve" smooth="yes"/>
      <point x="155" y="-15" smooth="yes"/>
      <point x="183" y="6" smooth="yes"/>
      <point x="183" y="53" type="curve" smooth="yes"/>
      <point x="183" y="100" smooth="yes"/>
      <point x="155" y="121" smooth="yes"/>
      <point x="116" y="121" type="curve" smooth="yes"/>
      <point x="78" y="121"/>
      <point x="50" y="100"/>
    </contour>
    <contour>
      <point x="283" y="53" type="curve" smooth="yes"/>
      <point x="283" y="6" smooth="yes"/>
      <point x="311" y="-15" smooth="yes"/>
      <point x="349" y="-15" type="curve" smooth="yes"/>
      <point x="388" y="-15" smooth="yes"/>
      <point x="416" y="6" smooth="yes"/>
      <point x="416" y="53" type="curve" smooth="yes"/>
      <point x="416" y="100" smooth="yes"/>
      <point x="388" y="121" smooth="yes"/>
      <point x="349" y="121" type="curve" smooth="yes"/>
      <point x="311" y="121"/>
      <point x="283" y="100"/>
    </contour>
    <contour>
      <point x="516" y="53" type="curve" smooth="yes"/>
      <point x="516" y="6" smooth="yes"/>
      <point x="544" y="-15" smooth="yes"/>
      <point x="582" y="-15" type="curve" smooth="yes"/>
      <point x="621" y="-15" smooth="yes"/>
      <point x="649" y="6" smooth="yes"/>
      <point x="649" y="53" type="curve" smooth="yes"/>
      <point x="649" y="100" smooth="yes"/>
      <point x="621" y="121" smooth="yes"/>
      <point x="582" y="121" type="curve" smooth="yes"/>
      <point x="544" y="121"/>
      <point x="516" y="100"/>
    </contour>
  </outline>
</glyph>
<glyph name="guilsinglleft" format="1">
  <advance width="298"/>
  <unicode hex="2039"/>
  <outline>
    <contour>
      <point x="50" y="337" type="line" name="hr00"/>
      <point x="50" y="309" type="line"/>
      <point x="194" y="121" type="line"/>
      <point x="248" y="158" type="line"/>
      <point x="154" y="323" type="line"/>
      <point x="248" y="488" type="line"/>
      <point x="194" y="525" type="line"/>
    </contour>
  </outline>
</glyph>
<glyph name="fraction" format="1">
  <advance width="303"/>
  <unicode hex="2044"/>
  <outline>
    <contour>
      <point x="313" y="675" type="line" name="hr00"/>
      <point x="232" y="675" type="line"/>
      <point x="-10" y="-15" type="line"/>
      <point x="69" y="-15" type="line"/>
    </contour>
  </outline>
</glyph>
<glyph name="zeroinferior" format="1">
  <advance width="434"/>
  <unicode hex="2080"/>
  <outline>
    <contour>
      <point x="61" y="3" type="curve" smooth="yes" name="hr00"/>
      <point x="61" y="-138" smooth="yes"/>
      <point x="127" y="-209" smooth="yes"/>
      <point x="217" y="-209" type="curve" smooth="yes"/>
      <point x="304" y="-209" smooth="yes"/>
      <point x="373" y="-138" smooth="yes"/>
      <point x="373" y="3" type="curve" smooth="yes"/>
      <point x="373" y="141" smooth="yes"/>
      <point x="304" y="212" smooth="yes"/>
      <point x="217" y="212" type="curve" smooth="yes"/>
      <point x="127" y="212" smooth="yes"/>
      <point x="61" y="141" smooth="yes"/>
    </contour>
    <contour>
      <point x="135" y="3" type="curve" smooth="yes"/>
      <point x="135" y="102" smooth="yes"/>
      <point x="169" y="149" smooth="yes"/>
      <point x="217" y="149" type="curve" smooth="yes"/>
      <point x="264" y="149" smooth="yes"/>
      <point x="299" y="102" smooth="yes"/>
      <point x="299" y="3" type="curve" smooth="yes"/>
      <point x="299" y="-99" smooth="yes"/>
      <point x="264" y="-145" smooth="yes"/>
      <point x="217" y="-145" type="curve" smooth="yes"/>
      <point x="169" y="-145" smooth="yes"/>
      <point x="135" y="-99" smooth="yes"/>
    </contour>
  </outline>
</glyph>
<glyph name="oneinferior" format="1">
  <advance width="349"/>
  <unicode hex="2081"/>
  <outline>
    <contour>
      <point x="162" y="204" type="line" name="hr00"/>
      <point x="152" y="170"/>
      <point x="104" y="135"/>
      <point x="61" y="123" type="curve"/>
      <point x="84" y="58" type="line"/>
      <point x="111" y="67"/>
      <point x="131" y="77"/>
      <point x="149" y="90" type="curve"/>
      <point x="149" y="-200" type="line"/>
      <point x="223" y="-200" type="line"/>
      <point x="223" y="204" type="line"/>
    </contour>
  </outline>
</glyph>
<glyph name="twoinferior" format="1">
  <advance width="402"/>
  <unicode hex="2082"/>
  <outline>
    <contour>
      <point x="136" y="92" type="line" name="hr00"/>
      <point x="147" y="133" smooth="yes"/>
      <point x="168" y="150" smooth="yes"/>
      <point x="199" y="150" type="curve" smooth="yes"/>
      <point x="231" y="150" smooth="yes"/>
      <point x="255" y="127" smooth="yes"/>
      <point x="255" y="97" type="curve" smooth="yes"/>
      <point x="255" y="8" smooth="yes"/>
      <point x="67" y="-49" smooth="yes"/>
      <point x="67" y="-168" type="curve" smooth="yes"/>
      <point x="67" y="-200" type="line"/>
      <point x="332" y="-200" type="line"/>
      <point x="332" y="-137" type="line"/>
      <point x="150" y="-137" type="line"/>
      <point x="197" y="-62" smooth="yes"/>
      <point x="329" y="-11" smooth="yes"/>
      <point x="329" y="102" type="curve" smooth="yes"/>
      <point x="329" y="154" smooth="yes"/>
      <point x="294" y="212" smooth="yes"/>
      <point x="193" y="212" type="curve" smooth="yes"/>
      <point x="129" y="212"/>
      <point x="87" y="173"/>
      <point x="68" y="110" type="curve"/>
    </contour>
  </outline>
</glyph>
<glyph name="threeinferior" format="1">
  <advance width="392"/>
  <unicode hex="2083"/>
  <outline>
    <contour>
      <point x="127" y="92" type="line"/>
      <point x="139" y="133" smooth="yes"/>
      <point x="159" y="150" smooth="yes"/>
      <point x="186" y="150" type="curve" smooth="yes"/>
      <point x="218" y="150" smooth="yes"/>
      <point x="241" y="128" smooth="yes"/>
      <point x="241" y="99" type="curve" smooth="yes"/>
      <point x="241" y="70" smooth="yes"/>
      <point x="222" y="26" smooth="yes"/>
      <point x="139" y="26" type="curve" smooth="yes"/>
      <point x="124" y="26" type="line"/>
      <point x="124" y="-28" type="line"/>
      <point x="169" y="-28" type="line" smooth="yes"/>
      <point x="228" y="-28" smooth="yes"/>
      <point x="250" y="-58" smooth="yes"/>
      <point x="250" y="-93" type="curve" smooth="yes"/>
      <point x="250" y="-126" smooth="yes"/>
      <point x="224" y="-145" smooth="yes"/>
      <point x="182" y="-145" type="curve" smooth="yes"/>
      <point x="155" y="-145"/>
      <point x="125" y="-128"/>
      <point x="116" y="-94" type="curve"/>
      <point x="51" y="-116" type="line"/>
      <point x="70" y="-182" smooth="yes"/>
      <point x="127" y="-209" smooth="yes"/>
      <point x="183" y="-209" type="curve" smooth="yes"/>
      <point x="280" y="-209" smooth="yes"/>
      <point x="326" y="-147" smooth="yes"/>
      <point x="326" y="-90" type="curve" smooth="yes"/>
      <point x="326" y="-50"/>
      <point x="305" y="-9"/>
      <point x="260" y="13" type="curve"/>
      <point x="292" y="36" smooth="yes"/>
      <point x="314" y="67" smooth="yes"/>
      <point x="314" y="102" type="curve" smooth="yes" name="hr01"/>
      <point x="314" y="154" smooth="yes"/>
      <point x="285" y="212" smooth="yes"/>
      <point x="182" y="212" type="curve" smooth="yes"/>
      <point x="124" y="212"/>
      <point x="79" y="173"/>
      <point x="59" y="111" type="curve"/>
    </contour>
  </outline>
</glyph>
<glyph name="fourinferior" format="1">
  <advance width="396"/>
  <unicode hex="2084"/>
  <outline>
    <contour>
      <point x="35" y="-81" type="line" name="hr00"/>
      <point x="35" y="-117" type="line"/>
      <point x="217" y="-117" type="line"/>
      <point x="217" y="-200" type="line"/>
      <point x="291" y="-200" type="line"/>
      <point x="291" y="-117" type="line"/>
      <point x="339" y="-117" type="line"/>
      <point x="339" y="-55" type="line"/>
      <point x="291" y="-55" type="line"/>
      <point x="291" y="204" type="line"/>
      <point x="199" y="204" type="line"/>
    </contour>
    <contour>
      <point x="122" y="-55" type="line"/>
      <point x="155" y="4"/>
      <point x="185" y="54"/>
      <point x="217" y="110" type="curve"/>
      <point x="217" y="-55" type="line"/>
    </contour>
  </outline>
</glyph>
<glyph name="fiveinferior" format="1">
  <advance width="392"/>
  <unicode hex="2085"/>
  <outline>
    <contour>
      <point x="83" y="204" type="line" name="hr00"/>
      <point x="79" y="3" type="line"/>
      <point x="103" y="-22" type="line"/>
      <point x="129" y="-14" smooth="yes"/>
      <point x="152" y="-11" smooth="yes"/>
      <point x="169" y="-11" type="curve" smooth="yes"/>
      <point x="228" y="-11" smooth="yes"/>
      <point x="250" y="-45" smooth="yes"/>
      <point x="250" y="-84" type="curve" smooth="yes"/>
      <point x="250" y="-123" smooth="yes"/>
      <point x="224" y="-145" smooth="yes"/>
      <point x="182" y="-145" type="curve" smooth="yes"/>
      <point x="155" y="-145"/>
      <point x="125" y="-128"/>
      <point x="116" y="-94" type="curve"/>
      <point x="51" y="-116" type="line"/>
      <point x="70" y="-182" smooth="yes"/>
      <point x="127" y="-209" smooth="yes"/>
      <point x="183" y="-209" type="curve" smooth="yes"/>
      <point x="280" y="-209" smooth="yes"/>
      <point x="326" y="-145" smooth="yes"/>
      <point x="326" y="-81" type="curve" smooth="yes"/>
      <point x="326" y="-15" smooth="yes"/>
      <point x="283" y="50" smooth="yes"/>
      <point x="185" y="50" type="curve" smooth="yes"/>
      <point x="172" y="50"/>
      <point x="161" y="49"/>
      <point x="148" y="47" type="curve"/>
      <point x="150" y="140" type="line"/>
      <point x="302" y="140" type="line"/>
      <point x="302" y="204" type="line"/>
    </contour>
  </outline>
</glyph>
<glyph name="sixinferior" format="1">
  <advance width="402"/>
  <unicode hex="2086"/>
  <outline>
    <contour>
      <point x="221" y="149" type="curve" smooth="yes" name="hr00"/>
      <point x="244" y="149"/>
      <point x="263" y="134"/>
      <point x="277" y="106" type="curve"/>
      <point x="340" y="138" type="line"/>
      <point x="315" y="192" smooth="yes"/>
      <point x="275" y="212" smooth="yes"/>
      <point x="221" y="212" type="curve" smooth="yes"/>
      <point x="129" y="212" smooth="yes"/>
      <point x="59" y="137" smooth="yes"/>
      <point x="59" y="-10" type="curve" smooth="yes"/>
      <point x="59" y="-142" smooth="yes"/>
      <point x="112" y="-209" smooth="yes"/>
      <point x="202" y="-209" type="curve" smooth="yes"/>
      <point x="296" y="-209" smooth="yes"/>
      <point x="346" y="-136" smooth="yes"/>
      <point x="346" y="-67" type="curve" smooth="yes"/>
      <point x="346" y="11" smooth="yes"/>
      <point x="281" y="53" smooth="yes"/>
      <point x="218" y="53" type="curve" smooth="yes"/>
      <point x="187" y="53"/>
      <point x="158" y="45"/>
      <point x="134" y="23" type="curve"/>
      <point x="141" y="105" smooth="yes"/>
      <point x="175" y="149" smooth="yes"/>
    </contour>
    <contour>
      <point x="141" y="-76" type="curve" smooth="yes"/>
      <point x="141" y="-37" smooth="yes"/>
      <point x="171" y="-6" smooth="yes"/>
      <point x="208" y="-6" type="curve" smooth="yes"/>
      <point x="245" y="-6" smooth="yes"/>
      <point x="274" y="-37" smooth="yes"/>
      <point x="274" y="-76" type="curve" smooth="yes"/>
      <point x="274" y="-115" smooth="yes"/>
      <point x="245" y="-145" smooth="yes"/>
      <point x="208" y="-145" type="curve" smooth="yes"/>
      <point x="171" y="-145" smooth="yes"/>
      <point x="141" y="-115" smooth="yes"/>
    </contour>
  </outline>
</glyph>
<glyph name="seveninferior" format="1">
  <advance width="330"/>
  <unicode hex="2087"/>
  <outline>
    <contour>
      <point x="298" y="204" type="line" name="hr00"/>
      <point x="29" y="204" type="line"/>
      <point x="29" y="140" type="line"/>
      <point x="212" y="140" type="line"/>
      <point x="63" y="-200" type="line"/>
      <point x="138" y="-200" type="line"/>
      <point x="298" y="168" type="line"/>
    </contour>
  </outline>
</glyph>
<glyph name="eightinferior" format="1">
  <advance width="416"/>
  <unicode hex="2088"/>
  <outline>
    <contour>
      <point x="75" y="96" type="curve" smooth="yes" name="hr00"/>
      <point x="75" y="74"/>
      <point x="84" y="37"/>
      <point x="114" y="12" type="curve"/>
      <point x="74" y="-17" smooth="yes"/>
      <point x="66" y="-57" smooth="yes"/>
      <point x="66" y="-85" type="curve" smooth="yes"/>
      <point x="66" y="-173" smooth="yes"/>
      <point x="134" y="-209" smooth="yes"/>
      <point x="206" y="-209" type="curve" smooth="yes"/>
      <point x="279" y="-209" smooth="yes"/>
      <point x="346" y="-173" smooth="yes"/>
      <point x="346" y="-85" type="curve" smooth="yes"/>
      <point x="346" y="-56"/>
      <point x="337" y="-18"/>
      <point x="297" y="11" type="curve"/>
      <point x="329" y="36" smooth="yes"/>
      <point x="337" y="73" smooth="yes"/>
      <point x="337" y="95" type="curve" smooth="yes"/>
      <point x="337" y="179" smooth="yes"/>
      <point x="271" y="212" smooth="yes"/>
      <point x="206" y="212" type="curve" smooth="yes"/>
      <point x="139" y="212" smooth="yes"/>
      <point x="75" y="179" smooth="yes"/>
    </contour>
    <contour>
      <point x="141" y="-85" type="curve" smooth="yes"/>
      <point x="141" y="-49" smooth="yes"/>
      <point x="170" y="-21" smooth="yes"/>
      <point x="206" y="-21" type="curve" smooth="yes"/>
      <point x="242" y="-21" smooth="yes"/>
      <point x="270" y="-49" smooth="yes"/>
      <point x="270" y="-85" type="curve" smooth="yes"/>
      <point x="270" y="-121" smooth="yes"/>
      <point x="242" y="-148" smooth="yes"/>
      <point x="206" y="-148" type="curve" smooth="yes"/>
      <point x="170" y="-148" smooth="yes"/>
      <point x="141" y="-121" smooth="yes"/>
    </contour>
    <contour>
      <point x="147" y="97" type="curve" smooth="yes"/>
      <point x="147" y="130" smooth="yes"/>
      <point x="173" y="156" smooth="yes"/>
      <point x="206" y="156" type="curve" smooth="yes"/>
      <point x="238" y="156" smooth="yes"/>
      <point x="264" y="130" smooth="yes"/>
      <point x="264" y="97" type="curve" smooth="yes"/>
      <point x="264" y="64" smooth="yes"/>
      <point x="238" y="39" smooth="yes"/>
      <point x="206" y="39" type="curve" smooth="yes"/>
      <point x="173" y="39" smooth="yes"/>
      <point x="147" y="64" smooth="yes"/>
    </contour>
  </outline>
</glyph>
<glyph name="nineinferior" format="1">
  <advance width="402"/>
  <unicode hex="2089"/>
  <outline>
    <contour>
      <point x="183" y="-145" type="curve" smooth="yes" name="hr00"/>
      <point x="161" y="-145"/>
      <point x="137" y="-131"/>
      <point x="125" y="-103" type="curve"/>
      <point x="61" y="-135" type="line"/>
      <point x="87" y="-188" smooth="yes"/>
      <point x="129" y="-209" smooth="yes"/>
      <point x="182" y="-209" type="curve" smooth="yes"/>
      <point x="275" y="-209" smooth="yes"/>
      <point x="346" y="-134" smooth="yes"/>
      <point x="346" y="14" type="curve" smooth="yes"/>
      <point x="346" y="145" smooth="yes"/>
      <point x="292" y="212" smooth="yes"/>
      <point x="203" y="212" type="curve" smooth="yes"/>
      <point x="107" y="212" smooth="yes"/>
      <point x="60" y="139" smooth="yes"/>
      <point x="60" y="71" type="curve" smooth="yes"/>
      <point x="60" y="11" smooth="yes"/>
      <point x="100" y="-55" smooth="yes"/>
      <point x="184" y="-55" type="curve" smooth="yes"/>
      <point x="217" y="-55"/>
      <point x="250" y="-44"/>
      <point x="272" y="-25" type="curve"/>
      <point x="264" y="-107" smooth="yes"/>
      <point x="228" y="-145" smooth="yes"/>
    </contour>
    <contour>
      <point x="133" y="77" type="curve" smooth="yes"/>
      <point x="133" y="117" smooth="yes"/>
      <point x="162" y="149" smooth="yes"/>
      <point x="199" y="149" type="curve" smooth="yes"/>
      <point x="236" y="149" smooth="yes"/>
      <point x="266" y="117" smooth="yes"/>
      <point x="266" y="77" type="curve" smooth="yes"/>
      <point x="266" y="37" smooth="yes"/>
      <point x="236" y="5" smooth="yes"/>
      <point x="199" y="5" type="curve" smooth="yes"/>
      <point x="162" y="5" smooth="yes"/>
      <point x="133" y="37" smooth="yes"/>
    </contour>
  </outline>
</glyph>
<glyph name="franc" format="1">
  <advance width="490"/>
  <unicode hex="20A3"/>
  <outline>
    <contour>
      <point x="470" y="660" type="line" name="hr00"/>
      <point x="100" y="660" type="line"/>
      <point x="100" y="0" type="line"/>
      <point x="196" y="0" type="line"/>
      <point x="196" y="271" type="line"/>
      <point x="440" y="271" type="line"/>
      <point x="440" y="349" type="line"/>
      <point x="196" y="349" type="line"/>
      <point x="196" y="582" type="line"/>
      <point x="470" y="582" type="line"/>
    </contour>
    <contour>
      <point x="49" y="96" type="line"/>
      <point x="361" y="96" type="line"/>
      <point x="361" y="166" type="line"/>
      <point x="49" y="166" type="line"/>
    </contour>
  </outline>
</glyph>
<glyph name="lira" format="1">
  <advance width="566"/>
  <unicode hex="20A4"/>
  <outline>
    <contour>
      <point x="86" y="0" type="line" name="hr00"/>
      <point x="516" y="0" type="line"/>
      <point x="516" y="78" type="line"/>
      <point x="199" y="78" type="line"/>
      <point x="218" y="116" smooth="yes"/>
      <point x="227" y="158" smooth="yes"/>
      <point x="227" y="212" type="curve" smooth="yes"/>
      <point x="227" y="295" smooth="yes"/>
      <point x="216" y="428" smooth="yes"/>
      <point x="216" y="466" type="curve" smooth="yes"/>
      <point x="216" y="561" smooth="yes"/>
      <point x="257" y="597" smooth="yes"/>
      <point x="317" y="597" type="curve" smooth="yes"/>
      <point x="382" y="597"/>
      <point x="418" y="558"/>
      <point x="437" y="493" type="curve"/>
      <point x="521" y="523" type="line"/>
      <point x="492" y="621" smooth="yes"/>
      <point x="432" y="675" smooth="yes"/>
      <point x="330" y="675" type="curve" smooth="yes"/>
      <point x="172" y="675" smooth="yes"/>
      <point x="120" y="572" smooth="yes"/>
      <point x="120" y="466" type="curve" smooth="yes"/>
      <point x="120" y="419" smooth="yes"/>
      <point x="138" y="310" smooth="yes"/>
      <point x="138" y="212" type="curve" smooth="yes"/>
      <point x="138" y="147"/>
      <point x="126" y="88"/>
      <point x="86" y="44" type="curve"/>
    </contour>
    <contour>
      <point x="55" y="414" type="line"/>
      <point x="55" y="344" type="line"/>
      <point x="396" y="344" type="line"/>
      <point x="396" y="414" type="line"/>
    </contour>
    <contour>
      <point x="396" y="169" type="line"/>
      <point x="396" y="239" type="line"/>
      <point x="55" y="239" type="line"/>
      <point x="55" y="169" type="line"/>
    </contour>
  </outline>
</glyph>
<glyph name="Euro" format="1">
  <advance width="623"/>
  <unicode hex="20AC"/>
  <outline>
    <contour>
      <point x="0" y="384" type="line" name="hr00"/>
      <point x="62" y="384" type="line"/>
      <point x="60" y="367" smooth="yes"/>
      <point x="60" y="349" smooth="yes"/>
      <point x="60" y="331" type="curve" smooth="yes"/>
      <point x="60" y="313"/>
      <point x="60" y="295"/>
      <point x="62" y="279" type="curve"/>
      <point x="0" y="279" type="line"/>
      <point x="0" y="209" type="line"/>
      <point x="72" y="209" type="line"/>
      <point x="103" y="61" smooth="yes"/>
      <point x="194" y="-15" smooth="yes"/>
      <point x="311" y="-15" type="curve" smooth="yes"/>
      <point x="426" y="-15"/>
      <point x="486" y="39"/>
      <point x="515" y="137" type="curve"/>
      <point x="431" y="167" type="line"/>
      <point x="412" y="102" smooth="yes"/>
      <point x="376" y="63" smooth="yes"/>
      <point x="311" y="63" type="curve" smooth="yes"/>
      <point x="244" y="63"/>
      <point x="192" y="111"/>
      <point x="169" y="209" type="curve"/>
      <point x="370" y="209" type="line"/>
      <point x="370" y="279" type="line"/>
      <point x="159" y="279" type="line"/>
      <point x="157" y="295" smooth="yes"/>
      <point x="157" y="312" smooth="yes"/>
      <point x="157" y="331" type="curve" smooth="yes"/>
      <point x="157" y="349"/>
      <point x="157" y="367"/>
      <point x="159" y="384" type="curve"/>
      <point x="370" y="384" type="line"/>
      <point x="370" y="454" type="line"/>
      <point x="169" y="454" type="line"/>
      <point x="192" y="550" smooth="yes"/>
      <point x="244" y="597" smooth="yes"/>
      <point x="311" y="597" type="curve" smooth="yes"/>
      <point x="376" y="597"/>
      <point x="412" y="558"/>
      <point x="431" y="493" type="curve"/>
      <point x="515" y="523" type="line"/>
      <point x="486" y="621" smooth="yes"/>
      <point x="426" y="675" smooth="yes"/>
      <point x="311" y="675" type="curve" smooth="yes"/>
      <point x="195" y="675"/>
      <point x="104" y="600"/>
      <point x="72" y="454" type="curve"/>
      <point x="0" y="454" type="line"/>
    </contour>
  </outline>
</glyph>
<glyph name="uni2113" format="1">
  <advance width="296"/>
  <unicode hex="2113"/>
  <outline>
    <contour>
      <point x="196" y="670" type="line" name="hr00"/>
      <point x="100" y="660" type="line"/>
      <point x="100" y="88" type="line" smooth="yes"/>
      <point x="100" y="7" smooth="yes"/>
      <point x="143" y="-15" smooth="yes"/>
      <point x="195" y="-15" type="curve" smooth="yes"/>
      <point x="225" y="-15"/>
      <point x="251" y="-5"/>
      <point x="272" y="5" type="curve"/>
      <point x="256" y="67" type="line"/>
      <point x="246" y="62" smooth="yes"/>
      <point x="231" y="58" smooth="yes"/>
      <point x="220" y="58" type="curve" smooth="yes"/>
      <point x="205" y="58" smooth="yes"/>
      <point x="196" y="64" smooth="yes"/>
      <point x="196" y="85" type="curve" smooth="yes"/>
    </contour>
  </outline>
</glyph>
<glyph name="trademark" format="1">
  <advance width="835"/>
  <unicode hex="2122"/>
  <outline>
    <contour>
      <point x="667" y="272" type="line" name="hr00"/>
      <point x="740" y="272" type="line"/>
      <point x="740" y="699" type="line"/>
      <point x="647" y="699" type="line"/>
      <point x="551" y="438" type="line"/>
      <point x="456" y="699" type="line"/>
      <point x="361" y="699" type="line"/>
      <point x="361" y="272" type="line"/>
      <point x="435" y="272" type="line"/>
      <point x="435" y="571" type="line"/>
      <point x="524" y="330" type="line"/>
      <point x="579" y="330" type="line"/>
      <point x="667" y="571" type="line"/>
    </contour>
    <contour>
      <point x="29" y="699" type="line"/>
      <point x="29" y="636" type="line"/>
      <point x="136" y="636" type="line"/>
      <point x="136" y="272" type="line"/>
      <point x="210" y="272" type="line"/>
      <point x="210" y="636" type="line"/>
      <point x="317" y="636" type="line"/>
      <point x="317" y="699" type="line"/>
    </contour>
  </outline>
</glyph>
<glyph name="Omega" format="1">
  <advance width="767"/>
  <unicode hex="2126"/>
  <outline>
    <contour>
      <point x="464" y="0" type="line" name="hr00"/>
      <point x="680" y="0" type="line"/>
      <point x="680" y="68" type="line"/>
      <point x="540" y="68" type="line"/>
      <point x="540" y="153" type="line"/>
      <point x="634" y="197" smooth="yes"/>
      <point x="698" y="289" smooth="yes"/>
      <point x="698" y="401" type="curve" smooth="yes"/>
      <point x="698" y="608" smooth="yes"/>
      <point x="557" y="715" smooth="yes"/>
      <point x="384" y="715" type="curve" smooth="yes"/>
      <point x="211" y="715" smooth="yes"/>
      <point x="69" y="608" smooth="yes"/>
      <point x="69" y="401" type="curve" smooth="yes"/>
      <point x="69" y="289"/>
      <point x="133" y="197"/>
      <point x="228" y="153" type="curve"/>
      <point x="228" y="68" type="line"/>
      <point x="88" y="68" type="line"/>
      <point x="88" y="0" type="line"/>
      <point x="304" y="0" type="line"/>
      <point x="304" y="197" type="line"/>
      <point x="219" y="224" smooth="yes"/>
      <point x="159" y="295" smooth="yes"/>
      <point x="159" y="411" type="curve" smooth="yes"/>
      <point x="159" y="561" smooth="yes"/>
      <point x="260" y="641" smooth="yes"/>
      <point x="384" y="641" type="curve" smooth="yes"/>
      <point x="508" y="641" smooth="yes"/>
      <point x="608" y="561" smooth="yes"/>
      <point x="608" y="411" type="curve" smooth="yes"/>
      <point x="608" y="296"/>
      <point x="548" y="224"/>
      <point x="464" y="197" type="curve"/>
    </contour>
  </outline>
</glyph>
<glyph name="partialdiff" format="1">
  <advance width="623"/>
  <unicode hex="2202"/>
  <outline>
    <contour>
      <point x="475" y="437" type="line" name="hr00"/>
      <point x="455" y="472" smooth="yes"/>
      <point x="407" y="495" smooth="yes"/>
      <point x="354" y="495" type="curve" smooth="yes"/>
      <point x="215" y="495" smooth="yes"/>
      <point x="83" y="390" smooth="yes"/>
      <point x="83" y="188" type="curve" smooth="yes"/>
      <point x="83" y="54" smooth="yes"/>
      <point x="165" y="-15" smooth="yes"/>
      <point x="282" y="-15" type="curve" smooth="yes"/>
      <point x="414" y="-15" smooth="yes"/>
      <point x="526" y="64" smooth="yes"/>
      <point x="561" y="311" type="curve" smooth="yes"/>
      <point x="568" y="361" smooth="yes"/>
      <point x="571" y="406" smooth="yes"/>
      <point x="571" y="448" type="curve" smooth="yes"/>
      <point x="571" y="657" smooth="yes"/>
      <point x="488" y="765" smooth="yes"/>
      <point x="368" y="765" type="curve" smooth="yes"/>
      <point x="320" y="765"/>
      <point x="279" y="755"/>
      <point x="243" y="731" type="curve"/>
      <point x="258" y="669" type="line"/>
      <point x="291" y="682" smooth="yes"/>
      <point x="320" y="688" smooth="yes"/>
      <point x="345" y="688" type="curve" smooth="yes"/>
      <point x="450" y="688" smooth="yes"/>
      <point x="485" y="566" smooth="yes"/>
      <point x="485" y="475" type="curve" smooth="yes"/>
      <point x="485" y="466"/>
      <point x="485" y="452"/>
      <point x="484" y="440" type="curve"/>
    </contour>
    <contour>
      <point x="343" y="417" type="curve" smooth="yes"/>
      <point x="427" y="417" smooth="yes"/>
      <point x="459" y="370" smooth="yes"/>
      <point x="459" y="292" type="curve" smooth="yes"/>
      <point x="459" y="155" smooth="yes"/>
      <point x="406" y="63" smooth="yes"/>
      <point x="293" y="63" type="curve" smooth="yes"/>
      <point x="210" y="63" smooth="yes"/>
      <point x="179" y="110" smooth="yes"/>
      <point x="179" y="186" type="curve" smooth="yes"/>
      <point x="179" y="298" smooth="yes"/>
      <point x="219" y="417" smooth="yes"/>
    </contour>
  </outline>
</glyph>
<glyph name="Delta" format="1">
  <advance width="582"/>
  <unicode hex="2206"/>
  <outline>
    <contour>
      <point x="357" y="700" type="line" name="hr00"/>
      <point x="225" y="700" type="line"/>
      <point x="15" y="0" type="line"/>
      <point x="567" y="0" type="line"/>
    </contour>
    <contour>
      <point x="283" y="631" type="line"/>
      <point x="452" y="68" type="line"/>
      <point x="114" y="68" type="line"/>
    </contour>
  </outline>
</glyph>
<glyph name="product" format="1">
  <advance width="686"/>
  <unicode hex="220F"/>
  <outline>
    <contour>
      <point x="40" y="700" type="line" name="hr00"/>
      <point x="40" y="622" type="line"/>
      <point x="120" y="622" type="line"/>
      <point x="120" y="-100" type="line"/>
      <point x="216" y="-100" type="line"/>
      <point x="216" y="622" type="line"/>
      <point x="470" y="622" type="line"/>
      <point x="470" y="-100" type="line"/>
      <point x="566" y="-100" type="line"/>
      <point x="566" y="622" type="line"/>
      <point x="646" y="622" type="line"/>
      <point x="646" y="700" type="line"/>
    </contour>
  </outline>
</glyph>
<glyph name="summation" format="1">
  <advance width="520"/>
  <unicode hex="2211"/>
  <outline>
    <contour>
      <point x="20" y="-100" type="line" name="hr00"/>
      <point x="510" y="-100" type="line"/>
      <point x="510" y="-22" type="line"/>
      <point x="136" y="-22" type="line"/>
      <point x="350" y="286" type="line"/>
      <point x="367" y="314" type="line"/>
      <point x="161" y="622" type="line"/>
      <point x="492" y="622" type="line"/>
      <point x="492" y="700" type="line"/>
      <point x="30" y="700" type="line"/>
      <point x="30" y="656" type="line"/>
      <point x="267" y="300" type="line"/>
      <point x="20" y="-56" type="line"/>
    </contour>
  </outline>
</glyph>
<glyph name="minus" format="1">
  <advance width="542"/>
  <unicode hex="2212"/>
  <outline>
    <contour>
      <point x="80" y="290" type="line" name="hr00"/>
      <point x="462" y="290" type="line"/>
      <point x="462" y="370" type="line"/>
      <point x="80" y="370" type="line"/>
    </contour>
  </outline>
</glyph>
<glyph name="radical" format="1">
  <advance width="537"/>
  <unicode hex="221A"/>
  <outline>
    <contour>
      <point x="644" y="765" type="line" name="hr00"/>
      <point x="450" y="765" type="line"/>
      <point x="262" y="-41" type="line"/>
      <point x="184" y="335" type="line"/>
      <point x="90" y="335" type="line"/>
      <point x="180" y="-100" type="line"/>
      <point x="327" y="-100" type="line"/>
      <point x="514" y="700" type="line"/>
      <point x="644" y="700" type="line"/>
    </contour>
  </outline>
</glyph>
<glyph name="infinity" format="1">
  <advance width="825"/>
  <unicode hex="221E"/>
  <outline>
    <contour>
      <point x="113" y="330" type="curve" smooth="yes" name="hr00"/>
      <point x="113" y="388" smooth="yes"/>
      <point x="152" y="441" smooth="yes"/>
      <point x="211" y="441" type="curve" smooth="yes"/>
      <point x="276" y="441"/>
      <point x="326" y="391"/>
      <point x="368" y="330" type="curve"/>
      <point x="326" y="269" smooth="yes"/>
      <point x="276" y="219" smooth="yes"/>
      <point x="211" y="219" type="curve" smooth="yes"/>
      <point x="152" y="219" smooth="yes"/>
      <point x="113" y="272" smooth="yes"/>
    </contour>
    <contour>
      <point x="410" y="263" type="curve"/>
      <point x="457" y="199" smooth="yes"/>
      <point x="516" y="143" smooth="yes"/>
      <point x="607" y="143" type="curve" smooth="yes"/>
      <point x="686" y="143" smooth="yes"/>
      <point x="795" y="189" smooth="yes"/>
      <point x="795" y="330" type="curve" smooth="yes"/>
      <point x="795" y="471" smooth="yes"/>
      <point x="686" y="517" smooth="yes"/>
      <point x="607" y="517" type="curve" smooth="yes"/>
      <point x="516" y="517"/>
      <point x="457" y="460"/>
      <point x="410" y="397" type="curve"/>
      <point x="363" y="460" smooth="yes"/>
      <point x="309" y="517" smooth="yes"/>
      <point x="218" y="517" type="curve" smooth="yes"/>
      <point x="139" y="517" smooth="yes"/>
      <point x="30" y="471" smooth="yes"/>
      <point x="30" y="330" type="curve" smooth="yes"/>
      <point x="30" y="189" smooth="yes"/>
      <point x="139" y="143" smooth="yes"/>
      <point x="218" y="143" type="curve" smooth="yes"/>
      <point x="309" y="143"/>
      <point x="363" y="199"/>
    </contour>
    <contour>
      <point x="707" y="330" type="curve"/>
      <point x="707" y="272" smooth="yes"/>
      <point x="668" y="219" smooth="yes"/>
      <point x="609" y="219" type="curve" smooth="yes"/>
      <point x="544" y="219"/>
      <point x="494" y="269"/>
      <point x="452" y="330" type="curve"/>
      <point x="494" y="391" smooth="yes"/>
      <point x="544" y="441" smooth="yes"/>
      <point x="609" y="441" type="curve" smooth="yes"/>
      <point x="668" y="441" smooth="yes"/>
      <point x="707" y="388" smooth="yes"/>
    </contour>
  </outline>
</glyph>
<glyph name="integral" format="1">
  <advance width="427"/>
  <unicode hex="222B"/>
  <outline>
    <contour>
      <point x="261" y="460" type="line" smooth="yes" name="hr00"/>
      <point x="261" y="551" smooth="yes"/>
      <point x="294" y="591" smooth="yes"/>
      <point x="348" y="591" type="curve" smooth="yes"/>
      <point x="358" y="591"/>
      <point x="371" y="589"/>
      <point x="385" y="586" type="curve"/>
      <point x="397" y="670" type="line"/>
      <point x="380" y="673" smooth="yes"/>
      <point x="362" y="675" smooth="yes"/>
      <point x="345" y="675" type="curve" smooth="yes"/>
      <point x="237" y="675" smooth="yes"/>
      <point x="165" y="593" smooth="yes"/>
      <point x="165" y="466" type="curve" smooth="yes"/>
      <point x="165" y="-20" type="line" smooth="yes"/>
      <point x="165" y="-111" smooth="yes"/>
      <point x="133" y="-151" smooth="yes"/>
      <point x="79" y="-151" type="curve" smooth="yes"/>
      <point x="69" y="-151"/>
      <point x="56" y="-149"/>
      <point x="42" y="-146" type="curve"/>
      <point x="30" y="-230" type="line"/>
      <point x="47" y="-233" smooth="yes"/>
      <point x="65" y="-235" smooth="yes"/>
      <point x="82" y="-235" type="curve" smooth="yes"/>
      <point x="190" y="-235" smooth="yes"/>
      <point x="261" y="-153" smooth="yes"/>
      <point x="261" y="-26" type="curve" smooth="yes"/>
    </contour>
  </outline>
</glyph>
<glyph name="approxequal" format="1">
  <advance width="542"/>
  <unicode hex="2248"/>
  <outline>
    <contour>
      <point x="80" y="390" type="line"/>
      <point x="105" y="369" smooth="yes"/>
      <point x="137" y="359" smooth="yes"/>
      <point x="169" y="359" type="curve" smooth="yes"/>
      <point x="244" y="359" smooth="yes"/>
      <point x="298" y="417" smooth="yes"/>
      <point x="371" y="417" type="curve" smooth="yes" name="hr01"/>
      <point x="404" y="417"/>
      <point x="435" y="408"/>
      <point x="462" y="390" type="curve"/>
      <point x="462" y="470" type="line"/>
      <point x="433" y="488" smooth="yes"/>
      <point x="400" y="497" smooth="yes"/>
      <point x="367" y="497" type="curve" smooth="yes"/>
      <point x="296" y="497" smooth="yes"/>
      <point x="235" y="441" smooth="yes"/>
      <point x="167" y="441" type="curve" smooth="yes" name="hr02"/>
      <point x="135" y="441"/>
      <point x="105" y="450"/>
      <point x="80" y="470" type="curve"/>
    </contour>
    <contour>
      <point x="80" y="190" type="line"/>
      <point x="105" y="168" smooth="yes"/>
      <point x="137" y="159" smooth="yes"/>
      <point x="169" y="159" type="curve" smooth="yes"/>
      <point x="245" y="159" smooth="yes"/>
      <point x="296" y="219" smooth="yes"/>
      <point x="370" y="219" type="curve" smooth="yes" name="hr03"/>
      <point x="404" y="219"/>
      <point x="436" y="209"/>
      <point x="462" y="190" type="curve"/>
      <point x="462" y="270" type="line"/>
      <point x="434" y="290" smooth="yes"/>
      <point x="401" y="299" smooth="yes"/>
      <point x="367" y="299" type="curve" smooth="yes"/>
      <point x="295" y="299" smooth="yes"/>
      <point x="236" y="239" smooth="yes"/>
      <point x="167" y="239" type="curve" smooth="yes" name="hr04"/>
      <point x="135" y="239"/>
      <point x="104" y="249"/>
      <point x="80" y="270" type="curve"/>
    </contour>
  </outline>
</glyph>
<glyph name="lozenge" format="1">
  <advance width="552"/>
  <unicode hex="25CA"/>
  <outline>
    <contour>
      <point x="210" y="0" type="line" name="hr00"/>
      <point x="342" y="0" type="line"/>
      <point x="502" y="350" type="line"/>
      <point x="342" y="700" type="line"/>
      <point x="210" y="700" type="line"/>
      <point x="50" y="350" type="line"/>
    </contour>
    <contour>
      <point x="268" y="655" type="line"/>
      <point x="415" y="333" type="line"/>
      <point x="283" y="45" type="line"/>
      <point x="136" y="366" type="line"/>
    </contour>
  </outline>
</glyph>
